<?xml version="1.0" encoding="utf-8"?>
<!-- Generator: Adobe Illustrator 24.0.3, SVG Export Plug-In . SVG Version: 6.00 Build 0)  -->
<svg version="1.1" id="Capa_1" xmlns="http://www.w3.org/2000/svg" xmlns:xlink="http://www.w3.org/1999/xlink" x="0px" y="0px"
	 viewBox="0 0 411 53" style="enable-background:new 0 0 411 53;" xml:space="preserve">
<g>
	<g>
		<path d="M355.1,46.9c-14.8,0-22.3-6.9-29-13c-6-5.5-10.7-9.8-20.9-9.8s-14.9,4.3-20.9,9.8c-6.6,6.1-14.2,13-29,13
			c-14.8,0-22.3-6.9-29-13c-6-5.5-10.7-9.8-20.9-9.8c-10.1,0-14.9,4.3-20.9,9.8c-6.6,6.1-14.2,13-29,13c-14.8,0-22.3-6.9-29-13
			c-6-5.5-10.7-9.8-20.9-9.8c-10.1,0-14.9,4.3-20.9,9.8c-6.7,6.1-14.2,13-29,13c-14.8,0-22.3-6.9-29-13c-6-5.5-10.7-9.8-20.9-9.8
			c-3.3,0-6-2.7-6-6c0-3.3,2.7-6,6-6c14.8,0,22.3,6.9,29,13c6,5.5,10.7,9.8,20.9,9.8c10.1,0,14.9-4.3,20.9-9.8
			c6.7-6.1,14.2-13,29-13c14.8,0,22.3,6.9,29,13c6,5.5,10.7,9.8,20.9,9.8c10.1,0,14.9-4.3,20.9-9.8c6.6-6.1,14.2-13,29-13
			c14.8,0,22.3,6.9,29,13c6,5.5,10.7,9.8,20.9,9.8c10.1,0,14.9-4.3,20.9-9.8c6.7-6.1,14.2-13,29-13s22.3,6.9,29,13
			c6,5.5,10.7,9.8,20.9,9.8c10.1,0,14.9-4.3,20.9-9.8c6.7-6.1,14.2-13,29-13c3.3,0,6,2.7,6,6c0,3.3-2.7,6-6,6
			c-10.1,0-14.9,4.3-20.9,9.8C377.4,40,369.9,46.9,355.1,46.9z"/>
	</g>
</g>
</svg>
