<svg width="47" height="47" viewBox="0 0 47 47" fill="none" xmlns="http://www.w3.org/2000/svg">
<path d="M20.4609 35.6172H25.1876C25.5932 35.6172 25.922 35.2884 25.922 34.8828V24.2429H28.3776C28.7541 24.2429 29.0696 23.9582 29.1082 23.5838L29.5222 19.5657C29.5435 19.359 29.4762 19.1528 29.3368 18.9985C29.1976 18.8441 28.9995 18.756 28.7916 18.756H25.922V17.1285C25.922 16.7923 26.0284 16.7672 26.1908 16.7672H28.7319C29.1374 16.7672 29.4663 16.4383 29.4663 16.0328V12.1314C29.4663 11.727 29.1393 11.3987 28.7348 11.397L25.2303 11.3828C22.7745 11.3828 21.464 12.4633 20.797 13.3696C19.8656 14.6352 19.7265 16.1181 19.7265 16.8893V18.7559H18.2129C17.8073 18.7559 17.4785 19.0848 17.4785 19.4903V23.5084C17.4785 23.914 17.8073 24.2428 18.2129 24.2428H19.7265V34.8828C19.7265 35.2884 20.0553 35.6172 20.4609 35.6172ZM18.9472 22.7742V20.2248H20.4608C20.8664 20.2248 21.1952 19.896 21.1952 19.4904V16.8894C21.1952 16.4135 21.2717 15.2026 21.9798 14.2402C22.6578 13.3188 23.7514 12.8517 25.2272 12.8517L27.9973 12.8629V15.2985H26.1906C25.3258 15.2985 24.4531 15.8643 24.4531 17.1286V19.4905C24.4531 19.8961 24.7819 20.2249 25.1874 20.2249H27.9776L27.7149 22.7743H25.1874C24.7819 22.7743 24.4531 23.1031 24.4531 23.5086V34.1484H21.1951V23.5085C21.1951 23.103 20.8663 22.7742 20.4607 22.7742H18.9472Z" fill="black"/>
<path d="M40.1173 6.8833C35.6787 2.44455 29.7772 0 23.5 0C17.2233 0 11.322 2.44455 6.8833 6.8833C2.44455 11.322 0 17.2233 0 23.5C0 29.7778 2.44455 35.6794 6.8833 40.1178C11.3218 44.5559 17.223 47 23.5 47C29.7775 47 35.679 44.5559 40.1172 40.1178C44.5556 35.6795 47 29.7779 47 23.5C47 17.2231 44.5556 11.3219 40.1173 6.8833ZM39.0787 39.0792C34.9178 43.2399 29.3852 45.5312 23.5 45.5312C17.6153 45.5312 12.0829 43.2399 7.92179 39.0792C3.76046 34.9182 1.46875 29.3854 1.46875 23.5C1.46875 17.6156 3.76046 12.0832 7.92179 7.92189C12.0832 3.76046 17.6156 1.46875 23.5 1.46875C29.3849 1.46875 34.9175 3.76046 39.0787 7.92179C43.2397 12.083 45.5312 17.6155 45.5312 23.5C45.5312 29.3856 43.2397 34.9183 39.0787 39.0792Z" fill="black"/>
<path d="M39.4759 10.554C39.2204 10.239 38.758 10.1908 38.4429 10.4464C38.128 10.702 38.0798 11.1645 38.3354 11.4793C41.0813 14.8639 42.5935 19.133 42.5935 23.5002C42.5935 28.6011 40.6075 33.3962 37.0014 37.0022C33.3952 40.6081 28.6003 42.594 23.4998 42.594C18.7943 42.594 14.2737 40.8675 10.7709 37.7328C10.4688 37.4623 10.0044 37.488 9.73401 37.7902C9.46358 38.0924 9.48928 38.5567 9.79147 38.8272C13.564 42.2034 18.4323 44.0627 23.4998 44.0627C28.9926 44.0627 34.1564 41.9241 38.0399 38.0407C41.9235 34.1573 44.0623 28.9933 44.0623 23.5002C44.0623 18.7971 42.4334 14.1994 39.4759 10.554Z" fill="black"/>
<path d="M4.40625 23.5C4.40625 12.9717 12.9717 4.40625 23.5 4.40625C28.2055 4.40625 32.726 6.13277 36.2287 9.26772C36.531 9.53834 36.9953 9.51245 37.2657 9.21035C37.5362 8.90815 37.5105 8.44384 37.2083 8.17341C33.4358 4.79694 28.5675 2.9375 23.5 2.9375C18.0079 2.9375 12.8443 5.07646 8.96038 8.96039C5.07646 12.8442 2.9375 18.0079 2.9375 23.5C2.9375 28.2037 4.56634 32.8016 7.52395 36.4468C7.66908 36.6258 7.88095 36.7186 8.09465 36.7186C8.25722 36.7186 8.4208 36.6649 8.55694 36.5544C8.87189 36.2989 8.92009 35.8364 8.66452 35.5214C5.91851 32.137 4.40625 27.8677 4.40625 23.5Z" fill="black"/>
</svg>
