<svg width="47" height="47" viewBox="0 0 47 47" fill="none" xmlns="http://www.w3.org/2000/svg">
<path d="M40.1152 6.88477C35.6814 2.4418 29.7789 0 23.5 0C17.2211 0 11.3186 2.4418 6.88477 6.88477C2.45098 11.3277 0 17.2211 0 23.5C0 29.7789 2.4418 35.6814 6.88477 40.1152C11.3277 44.549 17.2211 47 23.5 47C29.7789 47 35.6814 44.5582 40.1152 40.1152C44.5582 35.6814 47 29.7789 47 23.5C47 17.2211 44.5582 11.3186 40.1152 6.88477ZM39.0779 39.0779C34.9195 43.2363 29.3842 45.5312 23.5 45.5312C17.6158 45.5312 12.0805 43.2363 7.92207 39.0779C3.76367 34.9195 1.46875 29.3842 1.46875 23.5C1.46875 17.6158 3.76367 12.0805 7.92207 7.92207C12.0805 3.76367 17.6158 1.46875 23.5 1.46875C29.3842 1.46875 34.9195 3.76367 39.0779 7.92207C43.2363 12.0805 45.5312 17.6158 45.5312 23.5C45.5312 29.3842 43.2363 34.9195 39.0779 39.0779Z" fill="black"/>
<path d="M39.4727 10.5567C39.2156 10.2446 38.7566 10.1895 38.4354 10.4465C38.1232 10.7035 38.0682 11.1625 38.3252 11.4838C41.0699 14.8711 42.5846 19.1397 42.5846 23.5092C42.5846 28.6131 40.6018 33.4049 36.9941 37.0125C33.3957 40.611 28.6039 42.5938 23.5 42.5938C18.7908 42.5938 14.2744 40.868 10.7678 37.7286C10.4649 37.4623 10.0059 37.4807 9.73048 37.7836C9.45508 38.0866 9.48262 38.5547 9.78555 38.8209C13.5584 42.1991 18.4236 44.0534 23.4908 44.0534C28.9803 44.0534 34.1484 41.9145 38.0314 38.0315C41.9236 34.1577 44.0625 28.9895 44.0625 23.5C44.0625 18.8 42.4377 14.201 39.4727 10.5567Z" fill="black"/>
<path d="M4.40625 23.5C4.40625 12.9709 12.9709 4.40625 23.5 4.40625C28.2092 4.40625 32.7256 6.13203 36.2322 9.27148C36.5352 9.5377 37.0033 9.51934 37.2695 9.21641C37.5357 8.91348 37.5174 8.45449 37.2145 8.1791C33.4324 4.80098 28.5672 2.9375 23.5 2.9375C18.0105 2.9375 12.8424 5.07637 8.95937 8.95937C5.07637 12.8424 2.9375 18.0105 2.9375 23.5C2.9375 28.2 4.5623 32.799 7.52734 36.4434C7.67422 36.6178 7.88535 36.7188 8.09648 36.7188C8.26172 36.7188 8.42695 36.6637 8.55547 36.5535C8.86758 36.2965 8.92266 35.8375 8.66563 35.5162C5.9209 32.1381 4.40625 27.8695 4.40625 23.5Z" fill="black"/>
<path d="M29.0996 11.3828H17.9922C14.3754 11.3828 11.4287 14.3295 11.4287 17.9463V29.0629C11.4287 32.6797 14.3754 35.6264 17.9922 35.6264H29.0996C32.7164 35.6264 35.6631 32.6797 35.6631 29.0629V17.9463C35.6631 14.3295 32.7164 11.3828 29.0996 11.3828ZM34.2402 29.0537C34.2402 31.8902 31.9361 34.1943 29.0996 34.1943H17.9922C15.1557 34.1943 12.8516 31.8902 12.8516 29.0537V17.9463C12.8516 15.1098 15.1557 12.8057 17.9922 12.8057H29.0996C31.9361 12.8057 34.2402 15.1098 34.2402 17.9463V29.0537Z" fill="black"/>
<path d="M23.5462 16.8726C19.8927 16.8726 16.9185 19.8468 16.9185 23.5003C16.9185 27.1538 19.8927 30.128 23.5462 30.128C27.1997 30.128 30.1739 27.1538 30.1739 23.5003C30.1739 19.8468 27.1997 16.8726 23.5462 16.8726ZM23.5462 28.7052C20.673 28.7052 18.3413 26.3735 18.3413 23.5003C18.3413 20.6271 20.673 18.2954 23.5462 18.2954C26.4194 18.2954 28.7511 20.6271 28.7511 23.5003C28.7511 26.3735 26.4194 28.7052 23.5462 28.7052Z" fill="black"/>
<path d="M30.3298 14.522C29.2466 14.522 28.3745 15.4032 28.3745 16.4772C28.3745 17.5605 29.2558 18.4325 30.3298 18.4325C31.4038 18.4325 32.285 17.5513 32.285 16.4772C32.285 15.4032 31.413 14.522 30.3298 14.522ZM30.3298 17.0188C30.036 17.0188 29.7882 16.7802 29.7882 16.4772C29.7882 16.1835 30.0269 15.9356 30.3298 15.9356C30.6235 15.9356 30.8714 16.1743 30.8714 16.4772C30.8714 16.771 30.6235 17.0188 30.3298 17.0188Z" fill="black"/>
</svg>
