<svg width="16" height="16" viewBox="0 0 16 16" fill="none" xmlns="http://www.w3.org/2000/svg">
<path d="M11.6687 0H4.33125C1.94375 0 0 1.94375 0 4.33125V11.6687C0 14.0562 1.94375 16 4.33125 16H11.6687C14.0562 16 16 14.0562 16 11.6687V4.33125C16 1.94375 14.0562 0 11.6687 0ZM15.0625 11.6687C15.0625 13.5406 13.5406 15.0625 11.6687 15.0625H4.33125C2.45938 15.0625 0.9375 13.5406 0.9375 11.6687V4.33125C0.9375 2.45938 2.45938 0.9375 4.33125 0.9375H11.6687C13.5406 0.9375 15.0625 2.45938 15.0625 4.33125V11.6687Z" fill="black"/>
<path d="M8 3.625C5.5875 3.625 3.625 5.5875 3.625 8C3.625 10.4125 5.5875 12.375 8 12.375C10.4125 12.375 12.375 10.4125 12.375 8C12.375 5.5875 10.4125 3.625 8 3.625ZM8 11.4375C6.10625 11.4375 4.5625 9.89687 4.5625 8C4.5625 6.10625 6.10313 4.5625 8 4.5625C9.89375 4.5625 11.4375 6.10313 11.4375 8C11.4375 9.89375 9.89375 11.4375 8 11.4375Z" fill="black"/>
<path d="M12.4783 2.07187C11.7658 2.07187 11.1846 2.65312 11.1846 3.36562C11.1846 4.07812 11.7658 4.65937 12.4783 4.65937C13.1908 4.65937 13.7721 4.07812 13.7721 3.36562C13.7721 2.65312 13.1939 2.07187 12.4783 2.07187ZM12.4783 3.71874C12.2814 3.71874 12.1221 3.55937 12.1221 3.36249C12.1221 3.16562 12.2814 3.00624 12.4783 3.00624C12.6752 3.00624 12.8346 3.16562 12.8346 3.36249C12.8346 3.55937 12.6752 3.71874 12.4783 3.71874Z" fill="black"/>
</svg>
