<svg width="186" height="82" viewBox="0 0 186 82" fill="none" xmlns="http://www.w3.org/2000/svg">
<path fill-rule="evenodd" clip-rule="evenodd" d="M0 0H186V66.9181H0V0Z" fill="#ED1C24"/>
<path d="M39.0039 48.1607C39.0039 50.8223 38.4958 53.2303 37.4794 55.3849C36.463 57.5394 35.0654 59.3138 33.2867 60.7079C31.508 62.2288 29.4753 63.2427 27.0613 64.0031C24.6474 64.7635 22.1064 65.1437 19.3113 65.1437C17.4056 65.1437 15.6269 65.017 13.9753 64.6368C12.3236 64.2566 10.799 63.8764 9.52854 63.4961C8.25805 62.9892 7.1146 62.4822 6.22526 61.9753C5.33591 61.4683 4.70067 61.0881 4.44657 60.7079C4.06542 60.3277 3.81132 59.9475 3.68427 59.3138C3.55723 58.6801 3.43018 58.0464 3.43018 57.1592C3.43018 56.5255 3.43018 56.0186 3.55722 55.5116C3.55722 55.1314 3.68427 54.7512 3.81132 54.4977C3.93837 54.2442 4.06542 53.9907 4.31952 53.9907C4.44657 53.864 4.70067 53.864 4.95477 53.864C5.33591 53.864 5.97116 54.1175 6.73345 54.6244C7.49575 55.1314 8.51214 55.6383 9.65559 56.272C10.799 56.9057 12.3236 57.4127 13.9753 57.9196C15.6269 58.4266 17.6597 58.6801 19.8195 58.6801C21.4712 58.6801 22.9958 58.4266 24.3933 58.0464C25.7908 57.6662 26.9343 56.9057 27.9507 56.1453C28.9671 55.3849 29.7294 54.3709 30.2376 53.1036C30.7457 51.9629 30.9998 50.5688 30.9998 49.0479C30.9998 47.4003 30.6187 46.0062 29.8564 44.8655C29.0941 43.7249 28.0777 42.711 26.9343 41.8238C25.6638 40.9366 24.3933 40.1762 22.7417 39.4158C21.2171 38.6553 19.5654 37.8949 17.9138 37.1345C16.2621 36.374 14.7376 35.4869 13.0859 34.5997C11.5613 33.7125 10.1638 32.5719 8.89329 31.3045C7.6228 30.0371 6.73345 28.643 5.97116 26.8686C5.20886 25.221 4.82772 23.1932 4.82772 20.7852C4.82772 18.3771 5.20886 16.2226 6.09821 14.3215C7.1146 12.6739 8.25804 11.0263 9.78263 9.75889C11.3072 8.4915 13.213 7.47759 15.3728 6.8439C17.5326 6.2102 19.8195 5.82999 22.3605 5.82999C23.631 5.82999 24.9015 5.95673 26.172 6.2102C27.4425 6.46368 28.713 6.71716 29.8564 7.09737C30.9998 7.47759 32.0162 7.85781 32.9056 8.36476C33.7949 8.87172 34.4302 9.25193 34.6843 9.50541C34.9384 9.75889 35.1925 10.0124 35.1925 10.1391C35.3195 10.2658 35.3195 10.5193 35.4466 10.7728C35.4466 11.0263 35.5736 11.2798 35.5736 11.66C35.5736 12.0402 35.5736 12.4204 35.5736 13.0541C35.5736 13.5611 35.5736 14.068 35.5736 14.4482C35.5736 14.8284 35.4466 15.2087 35.3195 15.4621C35.1925 15.7156 35.0654 15.9691 34.9384 16.0958C34.8113 16.2226 34.5572 16.3493 34.4302 16.3493C34.049 16.3493 33.5408 16.0958 32.9056 15.7156C32.1433 15.3354 31.381 14.8284 30.3646 14.3215C29.3482 13.8145 28.2048 13.3076 26.8072 12.9274C25.4097 12.5471 23.8851 12.2937 22.1064 12.2937C20.4548 12.2937 19.0572 12.5471 17.9138 12.9274C16.7703 13.3076 15.7539 13.9413 14.9917 14.7017C14.2294 15.4621 13.5941 16.2226 13.213 17.2365C12.8318 18.1236 12.7048 19.1376 12.7048 20.2782C12.7048 21.9258 13.0859 23.1932 13.8482 24.4606C14.6105 25.728 15.6269 26.6152 16.7703 27.5023C18.0408 28.3895 19.4384 29.2767 20.963 29.9104C22.4876 30.6708 24.1392 31.4312 25.7908 32.1917C27.4425 32.9521 29.0941 33.8393 30.6187 34.7264C32.1433 35.6136 33.5408 36.7543 34.8113 37.8949C36.0818 39.1623 37.0982 40.5564 37.7335 42.204C38.6228 43.8516 39.0039 45.8794 39.0039 48.1607Z" fill="white"/>
<path d="M50.1845 63.1159C50.1845 63.3694 50.1845 63.4961 50.0574 63.7496C49.9304 63.8764 49.6763 64.0031 49.4222 64.1298C49.1681 64.2566 48.7869 64.3833 48.2787 64.3833C47.7705 64.3833 47.1353 64.5101 46.373 64.5101C45.6107 64.5101 45.1025 64.51 44.5943 64.3833C44.0861 64.3833 43.705 64.2566 43.4509 64.1298C43.1968 64.0031 42.9427 63.8764 42.8156 63.7496C42.6886 63.6229 42.6886 63.3694 42.6886 63.1159V23.0665C42.6886 22.813 42.6886 22.6862 42.8156 22.4328C42.9427 22.306 43.0697 22.0525 43.4509 22.0525C43.705 21.9258 44.0861 21.7991 44.5943 21.7991C45.1025 21.7991 45.7377 21.6723 46.373 21.6723C47.1353 21.6723 47.7705 21.6723 48.2787 21.7991C48.7869 21.7991 49.1681 21.9258 49.4222 22.0525C49.6763 22.1793 49.9304 22.306 50.0574 22.4328C50.1845 22.5595 50.1845 22.813 50.1845 23.0665V63.1159ZM51.0738 9.63215C51.0738 11.4065 50.6927 12.5471 50.0574 13.1808C49.4222 13.8145 48.1517 14.068 46.5 14.068C44.7213 14.068 43.5779 13.8145 42.9427 13.1808C42.3074 12.5471 41.9263 11.4065 41.9263 9.63215C41.9263 7.8578 42.3074 6.71715 42.9427 6.08346C43.5779 5.44977 44.8484 5.19629 46.5 5.19629C48.2787 5.19629 49.4222 5.44977 50.0574 6.08346C50.6927 6.71715 51.0738 7.8578 51.0738 9.63215Z" fill="white"/>
<path d="M94.5245 42.5842C94.5245 46.0062 94.1434 49.1747 93.3811 51.9629C92.6188 54.7512 91.4754 57.1592 90.0778 59.0603C88.5532 60.9614 86.7745 62.4822 84.6147 63.4961C82.4549 64.5101 80.0409 65.017 77.2458 65.017C75.9754 65.017 74.8319 64.8903 73.6885 64.6368C72.545 64.3833 71.5286 64.0031 70.5122 63.3694C69.4958 62.8625 68.4795 62.102 67.336 61.2149C66.3196 60.3277 65.1762 59.3138 64.0327 58.0464V62.9892C64.0327 63.2427 64.0327 63.3694 63.9057 63.6229C63.7786 63.7496 63.6516 64.0031 63.2704 64.0031C63.0163 64.1298 62.6352 64.1298 62.254 64.2566C61.8729 64.2566 61.3647 64.3833 60.7295 64.3833C60.0942 64.3833 59.586 64.3833 59.2049 64.2566C58.8237 64.2566 58.4426 64.1298 58.1885 64.0031C57.9344 63.8764 57.8073 63.7496 57.6803 63.6229C57.5532 63.4962 57.5532 63.2427 57.5532 62.9892V3.67544C57.5532 3.42196 57.5532 3.16848 57.6803 3.04174C57.8073 2.915 57.9344 2.66153 58.3155 2.53479C58.5696 2.40805 58.9508 2.28131 59.459 2.28131C59.9672 2.28131 60.6024 2.15457 61.2377 2.15457C61.9999 2.15457 62.6352 2.15457 63.1434 2.28131C63.6516 2.28131 64.0327 2.40805 64.2868 2.53479C64.5409 2.66153 64.795 2.78827 64.9221 3.04174C65.0491 3.16848 65.0491 3.42196 65.0491 3.67544V27.6291C66.1926 26.3617 67.336 25.3478 68.4795 24.5873C69.6229 23.7002 70.6393 23.0665 71.7827 22.5595C72.7991 22.0526 73.9426 21.6723 74.959 21.4189C75.9754 21.1654 77.1188 21.0387 78.3893 21.0387C81.3114 21.0387 83.8524 21.6723 85.8852 22.813C87.918 23.9536 89.5696 25.4745 90.9672 27.5023C92.2377 29.4034 93.2541 31.6847 93.7622 34.3462C94.1434 36.881 94.5245 39.6693 94.5245 42.5842ZM86.6475 43.4714C86.6475 41.4436 86.5204 39.4158 86.1393 37.5147C85.7581 35.6136 85.2499 33.8393 84.4877 32.4451C83.7254 30.9243 82.709 29.7836 81.4385 28.8965C80.168 28.0093 78.5163 27.5023 76.6106 27.5023C75.5942 27.5023 74.7049 27.6291 73.8155 27.8825C72.9262 28.136 71.9098 28.643 71.0204 29.1499C70.004 29.7836 69.1147 30.5441 68.0983 31.558C67.0819 32.5719 65.9385 33.7125 64.795 35.2334V51.2025C66.8278 53.6105 68.7336 55.5116 70.6393 56.779C72.545 58.0464 74.4508 58.6801 76.3565 58.6801C78.2622 58.6801 79.7868 58.1731 81.0573 57.2859C82.3278 56.3988 83.4713 55.2581 84.2336 53.7373C84.9959 52.2164 85.6311 50.5688 86.0122 48.7944C86.5204 47.1468 86.6475 45.3725 86.6475 43.4714Z" fill="white"/>
<path d="M129.463 63.2427C129.463 63.6229 129.336 63.8763 129.082 64.0031C128.828 64.1298 128.574 64.3833 128.066 64.3833C127.685 64.51 127.049 64.51 126.287 64.51C125.525 64.51 124.889 64.51 124.381 64.3833C123.873 64.2566 123.619 64.1298 123.365 64.0031C123.238 63.8763 123.238 63.6229 123.238 63.2427V59.187C121.459 61.0881 119.553 62.4822 117.394 63.4961C115.234 64.51 112.947 65.017 110.533 65.017C108.373 65.017 106.467 64.7635 104.816 64.1298C103.164 63.6229 101.639 62.7357 100.496 61.7218C99.3526 60.7079 98.3362 59.4405 97.701 57.9196C97.0657 56.3988 96.6846 54.6244 96.6846 52.7233C96.6846 50.442 97.1928 48.541 98.0821 46.8933C98.9715 45.2457 100.369 43.8516 102.021 42.711C103.799 41.5703 105.832 40.8099 108.373 40.1762C110.914 39.6692 113.709 39.4158 116.758 39.4158H122.349V36.2473C122.349 34.7264 122.221 33.3323 121.84 32.1916C121.459 31.051 120.951 30.0371 120.316 29.2767C119.553 28.5162 118.664 27.8825 117.521 27.5023C116.377 27.1221 114.98 26.8686 113.201 26.8686C111.422 26.8686 109.771 27.1221 108.373 27.5023C106.976 27.8825 105.705 28.3895 104.562 28.8964C103.418 29.4034 102.529 29.9103 101.894 30.2906C101.131 30.6708 100.623 30.9243 100.242 30.9243C99.9879 30.9243 99.8608 30.9243 99.6067 30.7975C99.4797 30.6708 99.2256 30.544 99.0985 30.2906C98.9715 30.0371 98.8444 29.7836 98.8444 29.4034C98.8444 29.0232 98.7174 28.643 98.7174 28.136C98.7174 27.3756 98.7174 26.7419 98.8444 26.3617C98.9715 25.9814 99.2256 25.4745 99.6067 25.0943C99.9879 24.7141 100.75 24.2071 101.639 23.7002C102.656 23.1932 103.799 22.6862 105.07 22.306C106.34 21.9258 107.738 21.5456 109.262 21.2921C110.787 21.0386 112.312 20.9119 113.836 20.9119C116.758 20.9119 119.172 21.2921 121.205 21.9258C123.238 22.5595 124.889 23.5734 126.16 24.8408C127.43 26.1082 128.32 27.6291 128.828 29.5301C129.336 31.4312 129.717 33.5858 129.717 36.1206V63.2427H129.463ZM122.221 44.9923H115.996C113.963 44.9923 112.185 45.119 110.787 45.4992C109.262 45.8794 108.119 46.3864 107.103 47.0201C106.086 47.6538 105.451 48.541 104.943 49.4281C104.435 50.3153 104.308 51.4559 104.308 52.5966C104.308 54.6244 104.943 56.272 106.34 57.5394C107.611 58.8068 109.517 59.4405 111.93 59.4405C113.836 59.4405 115.615 58.9335 117.267 57.9196C118.918 56.9057 120.697 55.3848 122.476 53.4838V44.9923H122.221Z" fill="white"/>
<path d="M144.963 64.8903C144.963 67.8053 144.709 70.2133 144.328 72.1144C143.946 73.8887 143.184 75.4096 142.295 76.677C141.278 77.9444 140.135 78.8315 138.61 79.4652C137.086 80.0989 135.307 80.4791 133.274 80.4791C132.258 80.4791 131.496 80.4791 130.86 80.3524C130.225 80.2257 129.717 80.0989 129.336 79.9722C128.955 79.8454 128.701 79.592 128.574 79.4652C128.446 79.2117 128.319 79.085 128.319 78.8315C128.319 78.578 128.192 78.3246 128.192 78.0711C128.192 77.8176 128.192 77.4374 128.192 77.0572C128.192 76.5502 128.192 76.0433 128.192 75.6631C128.192 75.2828 128.319 74.9026 128.446 74.7759C128.574 74.5224 128.701 74.3957 128.828 74.2689C128.955 74.1422 129.082 74.1422 129.336 74.1422C129.463 74.1422 129.844 74.1422 130.352 74.2689C130.86 74.3957 131.496 74.3957 132.131 74.3957C133.147 74.3957 133.91 74.2689 134.672 74.0154C135.434 73.762 135.942 73.255 136.451 72.6213C136.832 71.9876 137.213 71.1005 137.467 69.9598C137.721 68.9459 137.848 67.2983 137.848 65.1437V23.3199C137.848 23.0665 137.848 22.9397 137.975 22.6862C138.102 22.5595 138.356 22.306 138.61 22.306C138.865 22.1793 139.246 22.0525 139.754 22.0525C140.262 22.0525 140.77 21.9258 141.533 21.9258C142.295 21.9258 142.803 21.9258 143.311 22.0525C143.819 22.0525 144.201 22.1793 144.455 22.306C144.709 22.4328 144.963 22.5595 145.09 22.6862C145.217 22.813 145.217 23.0665 145.217 23.3199V64.8903H144.963ZM145.852 9.63215C145.852 11.4065 145.471 12.5471 144.836 13.1808C144.201 13.8145 142.93 14.068 141.151 14.068C139.373 14.068 138.229 13.8145 137.594 13.1808C136.959 12.5471 136.705 11.4065 136.705 9.75889C136.705 7.98454 137.086 6.84389 137.721 6.2102C138.356 5.57651 139.627 5.32303 141.278 5.32303C143.057 5.32303 144.201 5.57651 144.836 6.2102C145.471 6.71716 145.852 7.8578 145.852 9.63215Z" fill="white"/>
<path d="M182.57 63.2427C182.57 63.6229 182.443 63.8763 182.189 64.0031C181.935 64.1298 181.68 64.3833 181.172 64.3833C180.791 64.51 180.156 64.51 179.394 64.51C178.631 64.51 177.996 64.51 177.488 64.3833C176.98 64.2566 176.726 64.1298 176.471 64.0031C176.217 63.8763 176.217 63.6229 176.217 63.2427V59.187C174.439 61.0881 172.533 62.4822 170.373 63.4961C168.213 64.51 165.926 65.017 163.512 65.017C161.353 65.017 159.447 64.7635 157.795 64.1298C156.144 63.6229 154.619 62.7357 153.476 61.7218C152.332 60.7079 151.316 59.4405 150.68 57.9196C150.045 56.3988 149.664 54.6244 149.664 52.7233C149.664 50.442 150.172 48.541 151.062 46.8933C151.951 45.2457 153.348 43.8516 155 42.711C156.779 41.5703 158.812 40.8099 161.353 40.1762C163.894 39.6692 166.689 39.4158 169.738 39.4158H175.328V36.2473C175.328 34.7264 175.201 33.3323 174.82 32.1916C174.439 31.051 173.93 30.0371 173.295 29.2767C172.533 28.5162 171.644 27.8825 170.5 27.5023C169.357 27.1221 167.959 26.8686 166.18 26.8686C164.402 26.8686 162.75 27.1221 161.353 27.5023C159.955 27.8825 158.685 28.3895 157.541 28.8964C156.398 29.4034 155.508 29.9103 154.873 30.2906C154.111 30.6708 153.603 30.9243 153.221 30.9243C152.967 30.9243 152.84 30.9243 152.586 30.7975C152.459 30.6708 152.205 30.544 152.078 30.2906C151.951 30.0371 151.824 29.7836 151.824 29.4034C151.824 29.0232 151.697 28.643 151.697 28.136C151.697 27.3756 151.697 26.7419 151.824 26.3617C151.951 25.9814 152.205 25.4745 152.586 25.0943C152.967 24.7141 153.73 24.2071 154.619 23.7002C155.635 23.1932 156.779 22.6862 158.049 22.306C159.32 21.9258 160.717 21.5456 162.242 21.2921C163.767 21.0386 165.291 20.9119 166.816 20.9119C169.738 20.9119 172.152 21.2921 174.185 21.9258C176.217 22.5595 177.869 23.5734 179.139 24.8408C180.41 26.1082 181.299 27.6291 181.807 29.5301C182.316 31.4312 182.697 33.5858 182.697 36.1206V63.2427H182.57ZM175.328 44.9923H168.976C166.943 44.9923 165.164 45.119 163.767 45.4992C162.242 45.8794 161.098 46.3864 160.082 47.0201C159.066 47.6538 158.43 48.541 157.922 49.4281C157.414 50.3153 157.287 51.4559 157.287 52.5966C157.287 54.6244 157.922 56.272 159.32 57.5394C160.59 58.8068 162.496 59.4405 164.91 59.4405C166.816 59.4405 168.594 58.9335 170.246 57.9196C171.898 56.9057 173.676 55.3848 175.455 53.4838V44.9923H175.328Z" fill="white"/>
<path d="M13.467 81.2396C13.467 81.3663 13.594 81.4931 13.594 81.6198C13.594 81.7465 13.594 81.7465 13.467 81.8733C13.467 81.8733 13.3399 82 13.2129 82C13.0858 82 12.9588 82 12.7047 82C12.4506 82 12.3235 82 12.1965 82C12.0694 82 11.9424 82 11.9424 82C11.9424 82 11.8153 82 11.8153 81.8733C11.8153 81.8733 11.8153 81.7465 11.6883 81.7465L10.6719 78.8316H5.58991L4.57351 81.7465C4.57351 81.7465 4.57351 81.8733 4.44647 81.8733L4.31942 82C4.31942 82 4.19237 82 4.06532 82C3.93827 82 3.81122 82 3.68417 82C3.55712 82 3.30302 82 3.30302 82C3.17597 82 3.04892 82 3.04892 81.8733C3.04892 81.8733 2.92188 81.7465 2.92188 81.6198C2.92188 81.4931 2.92188 81.3663 3.04892 81.2396L7.1145 70.0866C7.1145 69.9598 7.1145 69.9598 7.24155 69.9598C7.3686 69.9598 7.3686 69.8331 7.3686 69.8331C7.49565 69.8331 7.49565 69.8331 7.62269 69.8331C7.74974 69.8331 7.87679 69.8331 8.13089 69.8331C8.38499 69.8331 8.51204 69.8331 8.63909 69.8331C8.76614 69.8331 8.89319 69.8331 8.89319 69.8331C9.02024 69.8331 9.02024 69.8331 9.02024 69.9598L9.14728 70.0866L13.467 81.2396ZM8.25794 71.4807L6.22515 77.4374H10.4178L8.25794 71.4807ZM25.1555 81.1128C25.1555 81.2396 25.1555 81.3663 25.1555 81.3663C25.1555 81.4931 25.1555 81.4931 25.1555 81.6198L25.0284 81.7465H24.9014H19.5653C19.4383 81.7465 19.3112 81.7465 19.1842 81.6198C19.0571 81.4931 18.9301 81.3663 18.9301 81.1128V69.9598V69.8331L19.0571 69.7064C19.0571 69.7064 19.1842 69.7064 19.3112 69.7064C19.4383 69.7064 19.5653 69.7064 19.6924 69.7064C19.8194 69.7064 19.9465 69.7064 20.0735 69.7064C20.2006 69.7064 20.2006 69.7064 20.3276 69.7064C20.4547 69.7064 20.4547 69.7064 20.4547 69.8331V69.9598V80.3524H24.7743H24.9014L25.0284 80.4792C25.0284 80.4792 25.0284 80.6059 25.0284 80.7326C25.1555 80.9861 25.1555 80.9861 25.1555 81.1128ZM31.8891 81.6198V81.7465L31.762 81.8733C31.762 81.8733 31.635 81.8733 31.5079 81.8733C31.3809 81.8733 31.2538 81.8733 31.1268 81.8733C30.9997 81.8733 30.8727 81.8733 30.7456 81.8733C30.6186 81.8733 30.4915 81.8733 30.4915 81.8733C30.3645 81.8733 30.3645 81.8733 30.3645 81.7465V81.6198V70.0866V69.9598L30.4915 69.8331C30.6186 69.8331 30.6186 69.8331 30.7456 69.8331C30.8727 69.8331 30.9997 69.8331 31.1268 69.8331C31.2538 69.8331 31.3809 69.8331 31.5079 69.8331C31.635 69.8331 31.635 69.8331 31.762 69.8331C31.8891 69.8331 31.8891 69.8331 31.8891 69.9598V70.0866V81.6198ZM51.4547 81.6198V81.7465L51.3276 81.8733C51.3276 81.8733 51.2006 81.8733 51.0735 81.8733C50.9465 81.8733 50.8194 81.8733 50.6924 81.8733C50.5653 81.8733 50.4383 81.8733 50.3112 81.8733C50.1842 81.8733 50.1842 81.8733 50.0571 81.8733C50.0571 81.8733 49.9301 81.8733 49.9301 81.7465V81.6198V71.1005L45.6104 81.6198C45.6104 81.6198 45.6104 81.7465 45.4834 81.7465C45.4834 81.7465 45.3563 81.7465 45.3563 81.8733C45.2293 81.8733 45.2293 81.8733 45.1022 81.8733C44.9752 81.8733 44.8481 81.8733 44.7211 81.8733C44.594 81.8733 44.467 81.8733 44.3399 81.8733C44.2129 81.8733 44.2129 81.8733 44.0858 81.8733C44.0858 81.8733 43.9588 81.8733 43.9588 81.7465C43.9588 81.7465 43.9588 81.6198 43.8317 81.6198L39.7661 71.1005V81.6198V81.7465L39.6391 81.8733C39.6391 81.8733 39.512 81.8733 39.385 81.8733C39.2579 81.8733 39.1309 81.8733 39.0038 81.8733C38.8768 81.8733 38.7497 81.8733 38.6227 81.8733C38.4956 81.8733 38.4956 81.8733 38.3686 81.8733C38.3686 81.8733 38.2416 81.8733 38.2416 81.7465V81.6198V70.5935C38.2416 70.3401 38.3686 70.0866 38.4956 70.0866C38.6227 69.9598 38.7497 69.9598 39.0038 69.9598H40.0202C40.2743 69.9598 40.4014 69.9598 40.5284 69.9598C40.6555 69.9598 40.7825 70.0866 40.9096 70.0866C41.0366 70.2133 41.1637 70.2133 41.1637 70.3401C41.2907 70.4668 41.2907 70.5935 41.4178 70.7203L44.9752 79.4652L48.6596 70.7203C48.7866 70.5935 48.7866 70.3401 48.9137 70.2133C49.0407 70.0866 49.0407 69.9598 49.1678 69.9598C49.2948 69.8331 49.4219 69.8331 49.5489 69.8331C49.676 69.8331 49.803 69.8331 49.9301 69.8331H50.8194C50.9465 69.8331 50.9465 69.8331 51.0735 69.8331C51.2006 69.8331 51.2006 69.9598 51.3276 69.9598C51.3276 69.9598 51.4547 70.0866 51.4547 70.2133C51.4547 70.3401 51.4547 70.4668 51.4547 70.5935V81.6198ZM64.7948 81.2396C64.7948 81.3663 64.7948 81.4931 64.7948 81.4931C64.7948 81.6198 64.7948 81.6198 64.6678 81.7465L64.5407 81.8733H64.4137H58.5694C58.4424 81.8733 58.3153 81.8733 58.1883 81.7465C58.0612 81.6198 57.9342 81.4931 57.9342 81.2396V70.4668C57.9342 70.2133 58.0612 70.0866 58.1883 69.9598C58.3153 69.8331 58.4424 69.8331 58.5694 69.8331H64.2866H64.4137L64.5407 69.9598C64.5407 69.9598 64.5407 70.0866 64.6678 70.2133C64.6678 70.3401 64.6678 70.3401 64.6678 70.4668C64.6678 70.5935 64.6678 70.7203 64.6678 70.7203C64.6678 70.847 64.6678 70.847 64.5407 70.9737C64.5407 70.9737 64.5407 71.1005 64.4137 71.1005H64.2866H59.7129V74.9026H63.7784H63.9055L64.0325 75.0294C64.0325 75.0294 64.0325 75.1561 64.0325 75.2829C64.0325 75.4096 64.0325 75.4096 64.0325 75.5363C64.0325 75.6631 64.0325 75.7898 64.0325 75.7898C64.0325 75.9166 64.0325 75.9166 64.0325 76.0433L63.9055 76.17H63.7784H59.7129V80.4792H64.5407H64.6678L64.7948 80.6059C64.7948 80.6059 64.7948 80.7326 64.9219 80.8594C64.7948 80.9861 64.7948 81.1128 64.7948 81.2396ZM79.9137 81.2396C79.9137 81.3663 79.9137 81.4931 79.9137 81.6198C79.9137 81.7465 79.7866 81.7465 79.7866 81.8733C79.6596 81.8733 79.6596 82 79.5325 82C79.4055 82 79.4055 82 79.2784 82H78.7702C78.6432 82 78.5161 82 78.3891 82C78.262 82 78.135 81.8733 78.0079 81.8733C77.8809 81.7465 77.7538 81.6198 77.6268 81.4931C77.4997 81.3663 77.3727 81.1128 77.2457 80.8594L73.4342 74.0155C73.1801 73.6353 73.053 73.255 72.7989 72.8748C72.5448 72.4946 72.4178 72.1144 72.2907 71.7342C72.2907 72.2411 72.2907 72.6214 72.2907 73.1283C72.2907 73.6353 72.2907 74.0155 72.2907 74.5224V81.7465V81.8733L72.1637 82C72.1637 82 72.0366 82 71.9096 82C71.7825 82 71.6555 82 71.5284 82C71.4014 82 71.2743 82 71.1473 82C71.0202 82 71.0202 82 70.8932 82C70.8932 82 70.7661 82 70.7661 81.8733V81.7465V70.5935C70.7661 70.3401 70.8932 70.2133 71.0202 70.0866C71.1473 69.9598 71.2743 69.9598 71.5284 69.9598H72.2907C72.4178 69.9598 72.6719 69.9598 72.7989 69.9598C72.926 69.9598 73.053 70.0866 73.1801 70.0866C73.3071 70.2133 73.3071 70.2133 73.4342 70.3401C73.5612 70.4668 73.5612 70.5935 73.6883 70.847L76.6104 76.17C76.7374 76.5503 76.9916 76.8037 77.1186 77.0572C77.2457 77.3107 77.4997 77.6909 77.6268 77.9444C77.7538 78.1979 77.8809 78.5781 78.135 78.8316C78.262 79.085 78.3891 79.4652 78.6432 79.7187C78.6432 79.2118 78.6432 78.7048 78.6432 78.1979C78.6432 77.6909 78.6432 77.1839 78.6432 76.677V70.0866V69.9598L78.7702 69.8331C78.7702 69.8331 78.8973 69.8331 79.0243 69.8331C79.1514 69.8331 79.2784 69.8331 79.4055 69.8331C79.5325 69.8331 79.6596 69.8331 79.7866 69.8331C79.9137 69.8331 79.9137 69.8331 80.0407 69.8331C80.0407 69.8331 80.1678 69.8331 80.1678 69.9598V70.0866V81.2396H79.9137ZM94.0161 70.4668C94.0161 70.5935 94.0161 70.7203 94.0161 70.7203C94.0161 70.847 94.0161 70.847 94.0161 70.9737L93.8891 71.1005H93.762H90.3317V81.4931V81.6198L90.2047 81.7465C90.2047 81.7465 90.0776 81.7465 89.9506 81.7465C89.8235 81.7465 89.6965 81.7465 89.5694 81.7465C89.4424 81.7465 89.3153 81.7465 89.1883 81.7465C89.0612 81.7465 88.9342 81.7465 88.9342 81.7465C88.8071 81.7465 88.8071 81.7465 88.8071 81.6198V81.4931V71.1005H85.3768H85.2497C85.2497 71.1005 85.1227 71.1005 85.1227 70.9737C85.1227 70.9737 85.1227 70.847 85.1227 70.7203C85.1227 70.5935 85.1227 70.5935 85.1227 70.4668C85.1227 70.3401 85.1227 70.2133 85.1227 70.2133C85.1227 70.0866 85.1227 70.0866 85.1227 69.9598C85.1227 69.9598 85.1227 69.8331 85.2497 69.8331H85.3768H93.762H93.8891L94.0161 69.9598C94.0161 69.9598 94.0161 70.0866 94.0161 70.2133C94.0161 70.3401 94.0161 70.3401 94.0161 70.4668ZM108.627 75.6631C108.627 76.677 108.5 77.5642 108.246 78.3246C107.992 79.085 107.61 79.7187 107.229 80.3524C106.721 80.8594 106.213 81.3663 105.451 81.6198C104.815 81.8733 103.926 82 103.037 82C102.147 82 101.385 81.8733 100.623 81.6198C99.9874 81.3663 99.3522 80.9861 98.9711 80.4792C98.5899 79.9722 98.2088 79.3385 97.9547 78.5781C97.7006 77.8176 97.5735 76.9305 97.5735 75.9166C97.5735 75.0294 97.7006 74.1422 97.9547 73.3818C98.2088 72.6214 98.5899 71.9877 98.9711 71.354C99.4793 70.847 99.9874 70.3401 100.75 70.0866C101.385 69.8331 102.274 69.7064 103.164 69.7064C104.053 69.7064 104.815 69.8331 105.451 70.0866C106.086 70.3401 106.721 70.7203 107.102 71.2272C107.483 71.7342 107.864 72.3679 108.119 73.1283C108.5 73.8887 108.627 74.7759 108.627 75.6631ZM106.975 75.7898C106.975 75.1561 106.975 74.5224 106.848 73.8887C106.721 73.255 106.467 72.7481 106.213 72.3679C105.959 71.9877 105.578 71.6074 105.069 71.354C104.561 71.1005 104.053 70.9737 103.291 70.9737C102.655 70.9737 102.02 71.1005 101.512 71.354C101.004 71.6074 100.623 71.9877 100.369 72.3679C100.114 72.7481 99.8604 73.255 99.7334 73.8887C99.6063 74.5224 99.4793 75.0294 99.4793 75.6631C99.4793 76.4235 99.4793 77.0572 99.6063 77.5642C99.7334 78.1979 99.9874 78.7048 100.242 79.085C100.496 79.4652 100.877 79.8455 101.385 80.0989C101.893 80.3524 102.401 80.4792 103.164 80.4792C103.926 80.4792 104.434 80.3524 104.942 80.0989C105.451 79.8455 105.832 79.4652 106.086 79.085C106.34 78.5781 106.594 78.0711 106.721 77.5642C106.848 77.0572 106.975 76.4235 106.975 75.7898ZM121.078 78.4513C121.078 78.9583 120.951 79.4652 120.824 79.9722C120.569 80.3524 120.315 80.7326 119.934 81.1128C119.553 81.3663 119.172 81.6198 118.664 81.7465C118.155 81.8733 117.647 82 117.012 82C116.631 82 116.25 82 115.869 81.8733C115.487 81.7465 115.233 81.7465 114.979 81.6198C114.725 81.4931 114.471 81.3663 114.344 81.3663C114.217 81.2396 114.09 81.1128 113.963 81.1128C113.836 80.9861 113.836 80.9861 113.836 80.8594C113.836 80.7326 113.836 80.6059 113.836 80.3524C113.836 80.2257 113.836 80.0989 113.836 79.9722C113.836 79.8455 113.836 79.8455 113.836 79.7187C113.836 79.7187 113.836 79.592 113.963 79.592H114.09C114.217 79.592 114.344 79.592 114.471 79.7187C114.598 79.8455 114.852 79.9722 115.106 80.0989C115.36 80.2257 115.615 80.3524 115.996 80.4792C116.377 80.6059 116.758 80.6059 117.266 80.6059C117.647 80.6059 117.901 80.6059 118.283 80.4792C118.537 80.3524 118.791 80.2257 119.045 80.0989C119.299 79.9722 119.426 79.7187 119.553 79.4652C119.68 79.2118 119.68 78.9583 119.68 78.5781C119.68 78.1979 119.553 77.9444 119.426 77.6909C119.299 77.4374 119.045 77.1839 118.791 77.0572C118.537 76.9305 118.283 76.677 117.901 76.5503C117.52 76.4235 117.266 76.2968 116.885 76.0433C116.504 75.9166 116.25 75.6631 115.869 75.5363C115.487 75.2829 115.233 75.1561 114.979 74.9026C114.725 74.6492 114.471 74.3957 114.344 74.0155C114.217 73.6353 114.09 73.255 114.09 72.7481C114.09 72.2411 114.217 71.7342 114.344 71.354C114.471 70.9737 114.725 70.5935 115.106 70.3401C115.487 70.0866 115.869 69.8331 116.25 69.7064C116.758 69.5796 117.139 69.4529 117.647 69.4529C117.901 69.4529 118.155 69.4529 118.41 69.5796C118.664 69.5796 118.918 69.7064 119.172 69.7064C119.426 69.8331 119.68 69.8331 119.807 69.9598C119.934 70.0866 120.061 70.0866 120.188 70.2133L120.315 70.3401V70.4668C120.315 70.4668 120.315 70.5935 120.315 70.7203C120.315 70.847 120.315 70.847 120.315 70.9737C120.315 71.1005 120.315 71.2272 120.315 71.2272C120.315 71.354 120.315 71.354 120.315 71.4807C120.315 71.4807 120.315 71.6074 120.188 71.6074H120.061C119.934 71.6074 119.934 71.6074 119.68 71.4807C119.553 71.354 119.299 71.354 119.172 71.2272C118.918 71.1005 118.664 70.9737 118.41 70.9737C118.155 70.9737 117.901 70.9737 117.52 70.9737C117.139 70.9737 116.885 70.9737 116.631 71.1005C116.377 71.2272 116.123 71.354 115.996 71.4807C115.869 71.6074 115.742 71.8609 115.614 71.9877C115.487 72.2411 115.487 72.3679 115.487 72.6213C115.487 73.0016 115.614 73.255 115.742 73.5085C115.869 73.762 116.123 74.0155 116.377 74.1422C116.631 74.269 116.885 74.5224 117.266 74.6492C117.647 74.7759 117.901 74.9026 118.283 75.1561C118.664 75.2829 118.918 75.5363 119.299 75.6631C119.68 75.9166 119.934 76.0433 120.188 76.2968C120.442 76.5503 120.696 76.8037 120.824 77.1839C120.951 77.5642 121.078 78.0711 121.078 78.4513Z" fill="#808285"/>
<path d="M144.963 64.8903C144.963 67.8053 144.709 70.2133 144.328 72.1144C143.946 73.8887 143.184 75.4096 142.295 76.677C141.278 77.9444 140.135 78.8315 138.61 79.4652C137.086 80.0989 135.307 80.4791 133.274 80.4791C132.258 80.4791 131.496 80.4791 130.86 80.3524C130.225 80.2257 129.717 80.0989 129.336 79.9722C128.955 79.8454 128.701 79.592 128.574 79.4652C128.446 79.2117 128.319 79.085 128.319 78.8315C128.319 78.578 128.192 78.3246 128.192 78.0711C128.192 77.8176 128.192 77.4374 128.192 77.0572C128.192 76.5502 128.192 76.0433 128.192 75.6631C128.192 75.2828 128.319 74.9026 128.446 74.7759C128.574 74.5224 128.701 74.3957 128.828 74.2689C128.955 74.1422 129.082 74.1422 129.336 74.1422C129.463 74.1422 129.844 74.1422 130.352 74.2689C130.86 74.3957 131.496 74.3957 132.131 74.3957C133.147 74.3957 133.91 74.2689 134.672 74.0154C135.434 73.762 135.942 73.255 136.451 72.6213C136.832 71.9876 137.213 71.1005 137.467 69.9598C137.721 68.9459 137.848 67.2983 137.848 65.1437V23.3199C137.848 23.0665 137.848 22.9397 137.975 22.6862C138.102 22.5595 138.356 22.306 138.61 22.306C138.865 22.1793 139.246 22.0525 139.754 22.0525C140.262 22.0525 140.77 21.9258 141.533 21.9258C142.295 21.9258 142.803 21.9258 143.311 22.0525C143.819 22.0525 144.201 22.1793 144.455 22.306C144.709 22.4328 144.963 22.5595 145.09 22.6862C145.217 22.813 145.217 23.0665 145.217 23.3199V64.8903H144.963ZM145.852 9.63215C145.852 11.4065 145.471 12.5471 144.836 13.1808C144.201 13.8145 142.93 14.068 141.151 14.068C139.373 14.068 138.229 13.8145 137.594 13.1808C136.959 12.5471 136.705 11.4065 136.705 9.75889C136.705 7.98454 137.086 6.84389 137.721 6.2102C138.356 5.57651 139.627 5.32303 141.278 5.32303C143.057 5.32303 144.201 5.57651 144.836 6.2102C145.471 6.71716 145.852 7.8578 145.852 9.63215Z" fill="white"/>
<path d="M145.344 64.8903C145.344 66.4111 145.344 67.6785 145.217 68.9459C145.09 70.2133 144.963 71.2272 144.709 72.1144C144.582 72.3679 144.582 72.6213 144.455 72.8748C144.328 73.1283 144.328 73.3818 144.201 73.6352C143.82 74.9026 143.184 75.9165 142.549 76.8037C142.041 77.4374 141.533 78.0711 140.897 78.4513C140.262 78.9583 139.5 79.3385 138.738 79.7187C137.213 80.3524 135.434 80.7326 133.274 80.7326C132.766 80.7326 132.385 80.7326 132.004 80.7326H131.75C131.369 80.7326 131.115 80.6059 130.861 80.6059C130.479 80.6059 130.225 80.4791 129.971 80.3524C129.717 80.2257 129.463 80.2257 129.336 80.0989C129.336 80.0989 129.209 80.0989 129.209 79.9722C129.209 79.9722 129.082 79.9722 129.082 79.8454C128.828 79.7187 128.701 79.592 128.574 79.3385C128.447 79.2117 128.447 79.085 128.32 78.9583C128.32 78.8315 128.192 78.7048 128.192 78.5781C128.192 78.4513 128.192 78.3246 128.065 78.1978C128.065 78.0711 128.065 77.9444 128.065 77.8176C128.065 77.6909 128.065 77.5641 128.065 77.4374C128.065 77.3107 128.065 77.0572 128.065 76.9305C128.065 76.677 128.065 76.4235 128.065 76.17C128.065 75.9165 128.065 75.6631 128.065 75.5363V75.4096V75.2828C128.065 75.0294 128.192 74.7759 128.32 74.6492C128.32 74.5224 128.447 74.3957 128.574 74.2689C128.701 74.1422 128.701 74.0155 128.828 74.0155C128.828 74.0155 128.828 74.0155 128.955 73.8887H129.082C129.209 73.762 129.463 73.762 129.59 73.762C129.717 73.762 129.844 73.762 129.971 73.762H130.098C130.225 73.762 130.479 73.762 130.606 73.8887C130.861 73.8887 131.115 73.8887 131.369 74.0155C131.623 74.0155 132.004 74.0155 132.258 74.0155C132.766 74.0155 133.147 74.0155 133.529 73.8887H133.656C134.037 73.762 134.291 73.762 134.545 73.6352C134.926 73.5085 135.18 73.255 135.434 73.1283C135.688 72.8748 135.942 72.6213 136.197 72.3679C136.197 72.2411 136.324 72.2411 136.324 72.1144C136.324 71.9876 136.451 71.8609 136.451 71.8609C136.705 71.3539 136.959 70.7202 137.086 69.9598C137.213 69.4529 137.213 68.8192 137.34 67.932C137.34 67.1716 137.467 66.1577 137.467 65.1437V23.3199C137.467 23.0665 137.594 22.813 137.721 22.5595C137.721 22.5595 137.721 22.4328 137.848 22.4328C137.848 22.4328 137.848 22.4328 137.975 22.306C138.102 22.1793 138.356 22.0525 138.611 21.9258H138.738H138.865C139.119 21.7991 139.373 21.7991 139.754 21.7991C139.881 21.7991 140.008 21.7991 140.135 21.7991C140.262 21.7991 140.389 21.7991 140.516 21.7991C140.77 21.7991 141.151 21.7991 141.533 21.7991C141.914 21.7991 142.168 21.7991 142.549 21.7991H142.803C142.93 21.7991 143.184 21.7991 143.311 21.7991C143.565 21.7991 143.82 21.9258 143.947 21.9258C144.201 21.9258 144.328 22.0525 144.455 22.0525H144.582C144.582 22.0525 144.709 22.0525 144.709 22.1793C144.963 22.306 145.09 22.4328 145.217 22.5595C145.344 22.6862 145.344 22.813 145.344 22.9397C145.344 23.0665 145.344 23.1932 145.344 23.3199V64.8903ZM144.455 68.9459C144.582 67.8053 144.582 66.4111 144.582 65.017V23.1932C144.582 23.0665 144.582 23.0665 144.582 22.9397C144.582 22.813 144.582 22.813 144.455 22.6862C144.455 22.5595 144.328 22.5595 144.201 22.4328C144.201 22.4328 144.201 22.4328 144.074 22.4328H143.947C143.82 22.4328 143.692 22.306 143.438 22.306C143.311 22.306 143.057 22.1793 142.803 22.1793C142.676 22.1793 142.549 22.1793 142.295 22.1793H142.041C141.787 22.1793 141.406 22.1793 141.151 22.1793C140.77 22.1793 140.516 22.1793 140.135 22.1793C140.008 22.1793 139.881 22.1793 139.754 22.1793C139.627 22.1793 139.5 22.1793 139.373 22.1793C139.119 22.1793 138.738 22.306 138.611 22.306H138.483H138.356C138.229 22.306 138.102 22.4328 137.975 22.5595C137.848 22.6862 137.848 22.813 137.848 22.9397V64.7635C137.848 65.9042 137.848 66.7913 137.721 67.6785C137.721 68.4389 137.594 69.1994 137.467 69.7063C137.34 70.4668 137.086 71.2272 136.832 71.7342C136.832 71.8609 136.705 71.9876 136.705 72.1144C136.705 72.2411 136.578 72.3679 136.578 72.3679C136.324 72.7481 136.07 73.0015 135.815 73.255C135.561 73.5085 135.18 73.762 134.799 73.8887C134.545 74.0155 134.164 74.1422 133.783 74.1422C133.783 74.1422 133.656 74.1422 133.529 74.1422C133.147 74.2689 132.639 74.2689 132.131 74.2689C131.75 74.2689 131.496 74.2689 131.115 74.2689C130.861 74.2689 130.479 74.2689 130.225 74.1422C129.971 74.1422 129.844 74.1422 129.717 74.0155H129.59C129.463 74.0155 129.336 74.0155 129.209 74.0155C129.082 74.0155 129.082 74.0155 128.955 74.0155L128.828 74.1422C128.828 74.2689 128.701 74.2689 128.701 74.3957C128.701 74.5224 128.574 74.6491 128.574 74.9026V75.0294V75.1561C128.574 75.2828 128.574 75.5363 128.574 75.7898C128.574 76.0433 128.574 76.2968 128.574 76.5502C128.574 76.677 128.574 76.9305 128.574 77.0572C128.574 77.1839 128.574 77.3107 128.574 77.4374C128.574 77.5641 128.574 77.6909 128.574 77.8176C128.574 77.9444 128.574 78.0711 128.701 78.1978C128.701 78.3246 128.701 78.4513 128.828 78.4513C128.828 78.5781 128.955 78.578 128.955 78.7048C129.082 78.8315 129.082 78.8315 129.336 78.9583H129.463H129.59C129.717 79.085 129.971 79.085 130.225 79.2117C130.479 79.3385 130.733 79.3385 131.115 79.3385C131.369 79.3385 131.623 79.4652 132.004 79.4652H132.258C132.639 79.4652 133.147 79.4652 133.529 79.4652C135.561 79.4652 137.34 79.2117 138.738 78.5781C139.5 78.3246 140.135 77.9444 140.643 77.4374C141.279 76.9304 141.787 76.4235 142.168 75.9165C142.803 75.0294 143.311 74.0155 143.82 72.8748C143.947 72.6213 143.947 72.3679 144.074 72.1144C144.201 71.8609 144.201 71.6074 144.328 71.3539C144.201 71.1005 144.328 70.0866 144.455 68.9459ZM146.106 9.63215C146.106 10.5193 145.979 11.2798 145.852 11.9134C145.852 12.0402 145.852 12.1669 145.725 12.1669C145.598 12.6739 145.344 13.0541 144.963 13.3076C144.836 13.4343 144.709 13.561 144.582 13.561C144.455 13.6878 144.328 13.6878 144.201 13.8145C143.438 14.1947 142.422 14.3215 141.151 14.3215C140.262 14.3215 139.5 14.1947 138.865 14.068C138.229 13.9413 137.721 13.6878 137.34 13.3076C136.959 12.9274 136.705 12.4204 136.578 11.9134C136.451 11.2798 136.324 10.5193 136.324 9.75888C136.324 8.87171 136.451 8.11128 136.578 7.47759C136.578 7.35085 136.578 7.22411 136.705 7.22411C136.832 6.71715 137.086 6.33694 137.467 6.08346C137.594 5.95672 137.721 5.82998 137.848 5.82998C137.975 5.70324 138.102 5.70324 138.229 5.5765C138.992 5.19629 140.008 5.06955 141.279 5.06955C142.168 5.06955 142.93 5.19629 143.565 5.32303C143.692 5.32303 143.82 5.32303 143.82 5.44977C144.328 5.57651 144.709 5.82998 144.963 6.08346C145.09 6.2102 145.217 6.33694 145.217 6.46368C145.344 6.59042 145.344 6.71715 145.471 6.84389C145.979 7.35085 146.106 8.36476 146.106 9.63215ZM145.471 9.63215C145.471 8.4915 145.344 7.60433 144.963 6.97063C144.963 6.84389 144.836 6.71715 144.836 6.71715C144.836 6.59042 144.709 6.59042 144.582 6.46368C144.328 6.2102 144.074 6.08346 143.692 5.95672C143.565 5.95672 143.565 5.95672 143.438 5.82998C142.93 5.70324 142.168 5.5765 141.279 5.5765C140.008 5.5765 139.119 5.70324 138.483 6.08346C138.356 6.08346 138.229 6.2102 138.102 6.2102C137.975 6.2102 137.975 6.33694 137.848 6.46368C137.594 6.71715 137.467 6.97063 137.34 7.35085C137.34 7.47759 137.34 7.47759 137.213 7.60433C137.086 8.11128 136.959 8.87171 136.959 9.63215C136.959 10.5193 137.086 11.153 137.213 11.66C137.34 12.1669 137.594 12.5471 137.848 12.8006C138.102 13.0541 138.483 13.3076 138.992 13.4343C139.5 13.561 140.262 13.6878 141.024 13.6878C142.295 13.6878 143.184 13.561 143.82 13.1808C143.947 13.1808 144.074 13.0541 144.201 13.0541C144.328 12.9274 144.328 12.9274 144.455 12.8006C144.709 12.5471 144.836 12.2937 144.963 11.9134C144.963 11.7867 144.963 11.7867 145.09 11.66C145.471 11.153 145.471 10.3926 145.471 9.63215Z" fill="#ED1C24"/>
</svg>
