<svg xmlns="http://www.w3.org/2000/svg" viewBox="0 0 231.07 230.41"><defs><style>.rubi-cls-1{fill:#102a83;fill-rule:evenodd;}</style></defs><title>Asset 2rubi</title><g id="Layer_2" data-name="Layer 2"><g id="Layer_1-2" data-name="Layer 1"><path class="rubi-cls-1" d="M206.76,71.83c.87.66,4.46,10.28,5.14,12.27,2.49,7.26,6.32,22.6,5.88,30.15-.19,3.23-1,14.13-1.83,16.16-.49,5.62-3.73,15.53-5.53,20.24a116.23,116.23,0,0,1-6.09,13.1l-1.93,3.43-.12.15-.13.15-.29.3c-.11,1-3.13,5.4-3.84,6.45-.89,1.34-3.6,5.09-4,6.48,1.46-.07,6.87-6.84,8.28-8.87l2.56-3.42a52.74,52.74,0,0,1-4.34,7.26c-.86,1.22-1.59,2.34-2.34,3.5s-2,2.41-2.05,3.75c2.21-.7,8.58-9.47,10.6-12.32.54-.76.9-1.48,1.43-2.11a31,31,0,0,1-2.37,4.27c-1.55,2.45-7.29,11-7.66,12.25,2.49-.51,10.8-12.19,12.87-15.63-2,4.5-5.31,8.89-8,13a34.81,34.81,0,0,1-2.91,4.28c.25.55-.1.82.89.16l2.86-3c.64-.72,1.11-1.37,1.77-2a11.84,11.84,0,0,0,1.71-2.08c1.15-1.5,2.16-2.8,3.21-4.39.51-.76,1-1.43,1.54-2.27s1-1.64,1.54-2.39a91.65,91.65,0,0,1-5.48,9.42c-1.15,1.71-5.49,7.85-5.89,9.29a11.21,11.21,0,0,0,3.39-3.08,67.05,67.05,0,0,0,5.81-7.08c.93-1.32,1.67-2.5,2.75-4,1.29-2.64,3.87-6.1,6-10.68a123.15,123.15,0,0,0,5-11.91,106.3,106.3,0,0,0,5.45-26.42c0-.29,0-.69.06-1l.27-1.2v-9.19l-.33-2c-.26-5.63.34-6.15-.57-14.24a107.41,107.41,0,0,0-20.31-51c-.63-.82-1.27-1.7-1.89-2.41L199,35.49a9.62,9.62,0,0,0-.9-1.11l-4-4.3c-.53-.47-.65-.48-1.08-.92l-3.24-3.05C178.7,15.88,161.18,6.41,144,2.49A87.48,87.48,0,0,0,118.68.17c-1.2.09-2.62.52-3.59.53-6.75,0-7.38-.49-15,.55C98.52,1.48,88.63,3,87.06,4.49c3.06-.12,7.23-1.15,10.42-1.63,3.53-.52,7.2-.95,10.83-1.25C115,1,112.82.8,119,1.66c2.38.33,9,.81,10.61,1.68-5.39,0-8.24-.64-13.68.42l-8.55,0c-3.94.19-17.58,1.81-19.76,3.84C90.43,7.53,94.94,6.44,98,6c5.9-.91,10.68-1,16.09-1.71,2-.25,2.42.22,5.2.61,3.42.49,7.12.88,10.43,1.55-3.69.11-7.21-.37-11,0-3.48.32-1.53.66-5,.41-6.08-.44-21.55,1.31-25.44,3.72.41.1,17.9-2.45,20.42-2.68,1.83-.16,3.58-.28,5.4-.47s13.43,1.82,15.46,2.16c-3.62.09-6.94-.34-10.71,0-2.1.16-2.92.57-5.14.41a73.15,73.15,0,0,0-15.54,1.13c-4.19.76-6.33,1.67-9.14,2.25l.4.18c1.06.26,8-1.12,9.24-1.32,3.31-.51,6.68-.89,10-1.18,1.69-.15,3.41-.28,5.13-.45,2-.19,13.29,1.54,14.58,2-6,.14-6-.46-12.54.52a12,12,0,0,1-2.6-.09,72.27,72.27,0,0,0-14.95,1.19l-6.52,1.53c-1,.29-1.33.22-2,1,2.78-.09,6.6-1,9.49-1.45,5.57-.83,9.69-1,14.7-1.58,1.3-.16,1.08-.32,2.18,0,2.42.68,8.85,1.36,12,1.93,21.38,3.85,40.39,12.1,57,26.42,6.45,5.58,4,3.58,9,9.4l1.84,2.45c3.18,4.77,9.11,12.68,10.94,18.06m-14.55-39.5,5.06,4.57a38.61,38.61,0,0,1,4.52,5.48c-.82-.4-7.42-7.47-8.46-8.81-.46-.59-.79-.63-1.12-1.24m-.91,3.33A29,29,0,0,1,195,38.89a46.43,46.43,0,0,1,5.3,6.32c-1.31-1-6.36-6.6-7.79-8.07ZM189,37.59a40.82,40.82,0,0,1,9,9.53c-.79-.67-1.41-1.55-2.19-2.3Zm-2.08,2.15a29.05,29.05,0,0,1,4.71,4.15c.72.89,1.49,1.42,2.15,2.38s1.2,1.61,1.93,2.64c-1.51-1.1-8.36-8.8-8.79-9.17m40.22,57.14c1.55,9.93,2.48,12.32,1.78,22.08l-.52,5.79c-.14,1.2-.17,1.26-.54,1.81.1-2.58.26-5,.26-7.58s-.32-5.19-.26-7.64a74.86,74.86,0,0,0-.11-7.64c-.15-2.06-.64-5-.61-6.82M224.43,98c.17,1.87.77,4.36,1,6.59,1.17,9.75,1.06,10.45,0,20.18l-.44,1.74c0-2.44.23-4.8.24-7.26s-.3-4.84-.3-7.11c0-2.57.13-4.74,0-7.37-.13-2.18-.52-4.67-.5-6.77m-5.53,1.56c.47,3.9,1.82,9.42,1.75,13.63-.07,4.76-.79,9.64-1.3,14.15-.06-6.1.45-6,0-14.15-.12-2.24.11-4.72,0-7.08-.1-2.19-.42-4.44-.45-6.55m2.81-.08c.61,1.72,1.76,10.9,1.78,13.18,0,1.24-.53,12.22-1.33,13.83.16-4.9.2-8.66,0-13.56-.09-2.25.12-4.5,0-6.86-.12-2.2-.4-4.42-.45-6.59"/><path class="rubi-cls-1" d="M75.09,222.7c1.53,1.36,12.43,4.34,15.2,5a94,94,0,0,0,13.19,2.16c1.34.13,3.42,0,4.47.52h10.32l11.52-1.72c-.31-1,.25-.33-.77-.61l-8,0a146.13,146.13,0,0,1-25-1.95c-5.05-.86-9.88-2.06-14.72-3.36-4.32-1.17-9.84-3.65-14-4.34.38.75-.11.26.78.88a41.62,41.62,0,0,0,7,3.34"/><path class="rubi-cls-1" d="M127.32,226c.41-.13.8-.19,1.2-.31.82-.26.66,0,1-.64-5.38-.46-11.7,0-17.3-.25a130.47,130.47,0,0,1-30-5c-2.2-.63-12.46-4.19-13.7-4.08,3.78,3.94,20.17,8.52,25.9,9.67,11.42,2.29,21.45,2.19,33,.6"/><path class="rubi-cls-1" d="M71,214.12,77.06,217c5.58,2.55,14.48,4.87,20.4,5.84,7.26,1.18,24.93,2.32,31.58-.55-.72-.74-2.93-.44-3.88-.43-15.16.14-27.53-.69-42.4-5.06-2.23-.65-4.3-1.31-6.57-2l-3.33-1.09-1.68-.57c-2.07-.69-1.43-.13-1.62.12Z"/><path class="rubi-cls-1" d="M103.3,217.57c.84-.21,21.81,1.45,25.2-1.65-.79-.42-13.64-.35-15.85-.43-19.79-.73-38.67-8.39-40.92-8.44,1.75,3,17.73,7.87,22.61,8.88,1.41.29,2.86.57,4.32.8Z"/><path class="rubi-cls-1" d="M127.73,219.57a3,3,0,0,0,1.19-.65c-2.21-.6-10.47-.19-13.38-.25a122.66,122.66,0,0,1-12.28-.92,127.82,127.82,0,0,1-24.79-5.53,57.26,57.26,0,0,0-7.82-2.39c1.1,1.87,9.09,5,11.65,5.85,15.67,5.48,29,6.29,45.43,3.89"/><path class="rubi-cls-1" d="M52.85,206.44l-.51-.48L36.82,192.21c-2.93-3-8.41-9.51-11.16-13.06-.77-1-1.21-1.7-2-2.81l-5.92-8.8c-.61-1-1.23-2.28-2-2.72.34,3,5.43,11.2,6.84,13.26l5.34,7.32A9.13,9.13,0,0,0,29,186.8c.84.88,1.37,1.67,2.2,2.6A88.69,88.69,0,0,0,50,205.47c.55.35,1,.65,1.57,1,1.57.86,1.27.11,1.3,0"/><path class="rubi-cls-1" d="M15.62,172.45c.28.21,2.79,4.69,3.25,5.43,1.15,1.86,2.33,3.57,3.55,5.34a80,80,0,0,0,6,7.44,93,93,0,0,0,11.28,11.11c1.74,1.33,3,2.48,4.93,3.81.77.54,5,3.08,5.23,3.52l1.57.4c-1.54-1.84-3.51-3.12-5.35-4.73l-10.61-9.71c-1.7-1.6-9.07-9.91-10.73-12.23-.45-.64-.5-.72-1.08-1.45-2.36-2.95-9.47-14.29-10.44-15,.33,1.94,1.8,4.27,2.44,6.07"/><path class="rubi-cls-1" d="M18.86,163.92c-.57-.61.06-.14-.68-.54,1.05,5,8.41,15.85,11.9,20.15.38.46.7.72,1.08,1.19a79.89,79.89,0,0,0,11.92,12c1.89,1.5,8.79,7.2,11.3,7.57-.37-.86-9.17-8.25-10.13-9.12a111.78,111.78,0,0,1-9.51-9.61l-4.4-5.2c-1.57-1.71-6.77-9.22-8.08-11.17-.61-.9-1.22-1.94-1.88-2.94Z"/><path class="rubi-cls-1" d="M54.4,201.27l1.32.39c-.15-1.22-3.29-3.23-4.66-4.48-8-7.25-8.89-7.63-16.4-16.31a31.47,31.47,0,0,1-2.06-2.48L22.83,164.6c-.67-1.07-1.24-1.8-1.78-2.79-.42.61-.41-.6-.19.95.34,2.45,6.48,12,7.89,14.05,2.45,3.58,7.8,10.06,10.54,12.44.53.47.55.56,1.13,1.13l8.6,7.19c.94.69,4.86,3,5.38,3.7"/><path class="rubi-cls-1" d="M23.06,161l.81,1.64c4.49,10.75,14.5,22.46,22.93,29.44a62.68,62.68,0,0,0,7.87,5.61c.46.28,1,.63,1.42.86a5.18,5.18,0,0,0,.65.26c.65,0,.21.53.55-.29L54,195.79c-1.2-.94-2.17-1.88-3.37-2.89s-2.3-2-3.31-3l-3.39-3.26c-2.55-2.18-8.39-9.29-10.92-12.42-2.13-2.65-5.3-7.36-7.3-10.45a21,21,0,0,0-2.49-3.45Z"/><path class="rubi-cls-1" d="M177.3,198.13c4.07-2.49,11.65-10.36,15-14.58,1.84-2.3,1.1-1.84,1.06-2.28a.22.22,0,0,0-.13-.16l-3.16,2.9c-1.16,1.05-2.32,2.06-3.44,3.08-5.74,5.16-16,12.75-22.83,16-3.82,2-7,3.56-11.12,5.33-1.81.78-10.67,4.43-12.09,4.28,0,0-.14,0-.17.13s-.13.09-.17.11l-3.49,1.79c2.71.15,7.51-.92,10.05-1.64L153.4,211c2.64-1,1.79-.61,2.15-.24l-13.73,5c-1.27.4-3.81.82-4.44,2,8,.11,20.27-5.11,24.18-6.71-1.41.65-3.6,1.79-4.46,2.17-2.16,1-4.1,1.71-6.31,2.6l-12.91,4.94c3.07.34,9.69-1.46,12.64-2.32,2-.59,3.91-1.28,5.72-1.93s3.88-1.71,5.51-2.14c-3,2-13.17,5.56-17.41,7-1,.35-2,.67-3,1-.56.17-1,.31-1.47.48-1.09.39-1,.24-1.44,1.15A88.46,88.46,0,0,0,153,220.85c4.16-1.31,11.13-4.47,12.52-4.87-4.07,2.06-8.35,3.86-13.11,5.81-1.7.7-13,4.21-13.48,5.07,5.85.87,22.79-5.6,27.61-8.05,5.15-2.62,17.51-9.68,22-14.31l7.39-7c1.3-1.33,5.63-6,6.2-7.85-.88.25-4.3,3.42-5,4.13-2.5,2.52-12.65,11.12-15.4,12.44a30.4,30.4,0,0,1,2.63-2.16c1-.83,1.66-1.4,2.6-2.16s1.56-1.32,2.54-2.23a87.09,87.09,0,0,0,9-9.67,9.77,9.77,0,0,0,1-1.32c.85-1.32.31-1.18.11-1.3l-.66.76c-.25.23-.28.22-.55.44s-.66.6-1.06.94c-5.1,4.36-6.59,6.22-13,11.09a10.47,10.47,0,0,1-2.41,1.68l4.5-3.87c.77-.68,1.32-1.25,2.07-2l2-2a41.36,41.36,0,0,0,4-4.33c.92-1.17,3-3.13,3.5-4.83-1.45.71-5.94,5-7.85,6.67a119.33,119.33,0,0,1-12.82,10c.05,0,.65-.5.87-.66a4.32,4.32,0,0,0,.48-.44c.57-.66.13.24.18-.33,1.46-.61,5.71-4.42,7.24-5.86,2.54-2.39,9-8.74,9.83-11.44-1.23.32-7.68,6.52-9.26,7.83-1.39,1.15-8.17,6.78-9.35,7.12"/><path class="rubi-cls-1" d="M0,110.17v9.69l.28,1.23c0,.36,0,.89.07,1.29.06.85.14,1.69.23,2.58.16,1.61.36,3.2.62,4.8l1.85,8.92c.73.13.66.37.28-2.57-.14-1-.23-1.93-.35-3-.26-2.17-.49-4.29-.66-6.45-1-13.23-.34-22.93,1.62-35.78.07-.44.24-1.25.27-1.61.16-1.8.25-1-.43-1.12-.07,1.09-1,3.62-1.32,5.06-.44,1.86-.77,3.57-1.09,5.43C1,101,.49,108.9,0,110.17"/><path class="rubi-cls-1" d="M8.91,137.33c.47-.69-.77-9.67-.9-11.29-1.5-19.57,2-33.19,1.74-36.45-2.41,3.33-3.8,18-3.93,23.33-.16,6.24.79,19.47,3.09,24.41"/><path class="rubi-cls-1" d="M6.32,136.63,6.11,135C4.29,124.54,4.4,110.86,5.6,100.1c.4-3.57,1.33-7.83,1.47-11.26A5.28,5.28,0,0,0,6,91.29,69.44,69.44,0,0,0,4.09,100c-1.74,10.6-1.53,24.82,1.18,35.3.12.46.24,1,.39,1.43.34,1.09.38,1,.7,1.28Z"/><path class="rubi-cls-1" d="M11.49,92.18l0,.2c-1.77,9.23-2.87,11.43-2.9,22.12a85.46,85.46,0,0,0,1.6,17,39.83,39.83,0,0,1,1.15,5.15c.72-.77.46-1.53.26-3L10.79,125c-.31-3.88-.43-7.92-.35-11.85s.33-7.73.76-11.76c.37-3.54,1.21-7.5,1.38-11-.59.55-.69,1.2-1.09,1.72"/><path class="rubi-cls-1" d="M14.51,98.93a20.42,20.42,0,0,1,.67-6l.09-1.63c-.42.37-.1-.09-.52.66l-1.22,4.21c-.42,1.78-.75,3.52-1.06,5.38a82.52,82.52,0,0,0-1,11.93c-.12,5.69.86,18.51,3,22.57.17-.48-1.2-15.85-1.26-18.36-.05-2.75.27-14.82,1-17.91.17-.73,0-.32.29-.82"/><path class="rubi-cls-1" d="M19.56,52.47c.89-.08,2.22-2.24,3.17-3.45l6.16-7.48c1.92-1.79,4.69-5.34,6.43-6.92l3.45-3.32c.68-.73,1-1,1.81-1.72.46-.46,1.08-1,1.7-1.57a23.27,23.27,0,0,1,3.6-3c.11-.18.37-.59.62-1.09-4,1.51-11.49,9-15.06,12.52s-9.53,11.27-11.88,16"/><path class="rubi-cls-1" d="M22.38,54.44c.08-.52-.11-.35.58-.6a6.21,6.21,0,0,1,1.35-2c.64-.71.8-1.1,1.46-1.82s.84-1.17,1.43-1.86c2.66-3.13,9.56-11,12.59-13.62l8-7.49c.22-.65.61,0-.16-.44l0-.13c-.43.52-11.93,8.24-19.25,18.05-.31.42-.43.51-.79,1s-.35.53-.63.89a79.76,79.76,0,0,0-4.78,7.21c-.58,1.51-.37.63.13.87"/><path class="rubi-cls-1" d="M30.93,57.91c.41-1.68,9.57-11.45,10.38-12.26.55-.54.74-.92,1.27-1.49l7.38-7a30.48,30.48,0,0,1,3-2.63c-.22-.39.13-.76-1.77.55a67.93,67.93,0,0,0-8.57,7c-.61.55-.9,1-1.49,1.53-2.6,2.33-11.59,12.63-12.25,16.32Z"/><path class="rubi-cls-1" d="M27,58l0,.11c2.18-3.29,6-7.7,8.53-10.68,1-1.16,1.93-2.21,3-3.29l4.69-4.61c.66-.6,1-1,1.65-1.62,1.17-1,2.14-2,3.29-3a16.47,16.47,0,0,0,3.17-3.25C49.76,32.09,45,36,43.94,37l-6.51,6.3A67.48,67.48,0,0,0,26.56,57.87c.24.43-.17.13.44.15"/><path class="rubi-cls-1" d="M48.35,29.56,35,41.38c-.64.85-1.54,1.5-3,3.35-1.69,2.18-7.33,9.11-7.77,11.57A87,87,0,0,0,30,49.39c.86-1.2,2-2.24,2.92-3.4,2.06-2.55,4.92-5.12,6-6.54l3.19-3.11c1.37-1.21,5.64-5.49,6.83-6.06l.75-1.11Z"/><polygon class="rubi-cls-1" points="195.49 86.47 192.78 68.88 180.59 76.76 182.78 92.23 195.49 86.47"/><path class="rubi-cls-1" d="M61.36,77.7c-1,0-2.07.07-3.29.19s-2.53.26-3.91.43c-.17,2.84-.35,6.25-.55,10.2s-.47,8.16-.8,12.64a34.23,34.23,0,0,0,7.46,1,11.58,11.58,0,0,0,6.16-1.47,11.3,11.3,0,0,0,3.73-3.6,12.7,12.7,0,0,0,1.77-4.59,25.16,25.16,0,0,0,.43-4.39q0-5-2.45-7.7T61.36,77.7m-15.25,61c-3.84,0-6.57-.76-8.15-2.28s-2.38-3.76-2.38-6.73q0-1.22.15-4.11c.1-1.92.25-4.19.46-6.83s.42-5.52.65-8.66.49-6.33.77-9.57q.8-10.22,1.16-16.6c.23-4.26.42-7.6.55-10a48,48,0,0,1,.61-5.82c.21-.85.64-1.27,1.32-1.27q3.14,0,6.43-.15c2.2-.1,4.3-.22,6.33-.35s3.93-.25,5.72-.36,3.39-.15,4.81-.15A34.06,34.06,0,0,1,75.68,67.4,19.19,19.19,0,0,1,83.22,72a18.06,18.06,0,0,1,4.26,7.09,29.68,29.68,0,0,1,1.36,9.31,30.56,30.56,0,0,1-3.14,14.08,20.7,20.7,0,0,1-10,9.42L84.18,124q2.34,3.43,3.55,5.31a6.09,6.09,0,0,1,1.21,2.79,3.93,3.93,0,0,1-.86,2A11.44,11.44,0,0,1,78,139.34a8.16,8.16,0,0,1-5.62-2.13,19.88,19.88,0,0,1-4.25-5.61,42.85,42.85,0,0,1-3.24-8Q63.49,119,62.28,114c-2.43-.14-7.65,0-9.2-.35-.2,3-.41,5.8-.61,8.5s-.37,5.12-.5,7.24-.27,3.88-.41,5.27-.18,2.21-.2,2.48a2.06,2.06,0,0,1-.41,1.17,1.6,1.6,0,0,1-1.21.35Z"/><path class="rubi-cls-1" d="M107.19,105c0,1-.09,2.45-.26,4.29s-.34,3.75-.51,5.74-.34,3.85-.51,5.6-.25,3-.25,3.78a5.73,5.73,0,0,0,1.27,4,4.51,4.51,0,0,0,3.53,1.42,4.16,4.16,0,0,0,3.3-1.57,11.79,11.79,0,0,0,2.19-4.07,36.86,36.86,0,0,0,1.34-5.7q.51-3.19.76-6.47t.44-6.36c.12-2.06.25-3.84.4-5.35a2,2,0,0,1,.43-1,1.45,1.45,0,0,1,1.17-.44h2.62a11.92,11.92,0,0,1,3.66.47A5.52,5.52,0,0,1,129,100.6a4.75,4.75,0,0,1,1.16,2.14,11.81,11.81,0,0,1,.33,3c0,.72,0,1.76-.11,3.09s-.21,3.17-.4,5.52-.42,5.33-.69,8.94-.59,8.08-1,13.41a6.1,6.1,0,0,1-.33,1.82c-.12.19-.52.29-1.2.29H124a10.74,10.74,0,0,1-3.6-.51,6.53,6.53,0,0,1-2.29-1.31,4.42,4.42,0,0,1-1.24-1.88,9.12,9.12,0,0,1-.43-2.26A14.57,14.57,0,0,1,114,136a12,12,0,0,1-2.8,2.07,11.51,11.51,0,0,1-3,1.09,14,14,0,0,1-3,.33,12.83,12.83,0,0,1-4.94-.91,11.09,11.09,0,0,1-3.67-2.43,10.53,10.53,0,0,1-2.29-3.64,12.66,12.66,0,0,1-.8-4.51c0-.63,0-1.66.11-3.09s.17-3,.29-4.83.26-3.69.4-5.7.28-3.92.4-5.71.24-3.37.36-4.73.21-2.32.26-2.9a3.21,3.21,0,0,1,.58-1.79,1.93,1.93,0,0,1,1.45-.47H99.7a13.22,13.22,0,0,1,3.71.44,5.6,5.6,0,0,1,2.29,1.23,4.4,4.4,0,0,1,1.16,1.93,9.18,9.18,0,0,1,.33,2.58"/><path class="rubi-cls-1" d="M154.35,107.72a5.78,5.78,0,0,0-4.11,1.39,9.14,9.14,0,0,0-2.29,3.34,15.14,15.14,0,0,0-1,4.18c-.14,1.48-.21,2.77-.21,3.89q0,5,1.38,7.16a4.59,4.59,0,0,0,4.14,2.14,5.29,5.29,0,0,0,4.11-1.64,10.91,10.91,0,0,0,2.25-3.88,19.82,19.82,0,0,0,1-4.58c.15-1.56.22-2.77.22-3.64a12.68,12.68,0,0,0-1.23-6.21,4.48,4.48,0,0,0-4.22-2.15m-3.27,31.77a20.05,20.05,0,0,1-8.87-1.64,12.59,12.59,0,0,1-4.94-4.1,12.82,12.82,0,0,1-2.11-5.35,35.39,35.39,0,0,1-.44-5.27c0-.63.07-1.86.19-3.7s.27-4,.47-6.4.39-5,.58-7.74.39-5.33.58-7.78.35-4.62.47-6.51.19-3.2.19-3.92a4.23,4.23,0,0,1,.21-1.85c.15-.18.59-.26,1.31-.26h2.84a11.09,11.09,0,0,1,3.63.51,6.16,6.16,0,0,1,2.33,1.38,4.92,4.92,0,0,1,1.23,2,7.66,7.66,0,0,1,.37,2.44c0,.82-.09,2.42-.26,4.79s-.38,5.16-.62,8.36a13.88,13.88,0,0,1,4.29-4.83,11.45,11.45,0,0,1,6.33-1.57c4.41,0,7.78,1.46,10.14,4.37s3.52,7.24,3.52,13a42.76,42.76,0,0,1-.32,4.94,29.78,29.78,0,0,1-1.17,5.35,24.7,24.7,0,0,1-2.33,5.16,16,16,0,0,1-3.88,4.39,19.43,19.43,0,0,1-5.78,3,24.37,24.37,0,0,1-8,1.17"/><path class="rubi-cls-1" d="M183.05,138.76a12,12,0,0,1-3.67-.47,5.52,5.52,0,0,1-2.26-1.35A4.79,4.79,0,0,1,176,134.8a12.31,12.31,0,0,1-.32-2.94c0-.73,0-1.76.11-3.09s.2-3.18.39-5.53.43-5.33.7-8.94.59-8.08,1-13.41a5.83,5.83,0,0,1,.32-1.86c.13-.16.52-.25,1.2-.25h2.84a12.82,12.82,0,0,1,3.67.44,5.13,5.13,0,0,1,2.25,1.31,4.73,4.73,0,0,1,1.17,2.1,11.24,11.24,0,0,1,.32,2.76c0,.73-.05,1.82-.14,3.28s-.23,3.43-.4,5.92-.4,5.6-.69,9.3-.66,8.18-1.09,13.41a1.88,1.88,0,0,1-.37,1.17,1.82,1.82,0,0,1-1.23.29Z"/><path class="rubi-cls-1" d="M182.73,158.65l1.83-4.22,1.82,4.22Zm6,5.53h5.17l-8.26-18h-2.25l-8.25,18h5.16l.9-2.09h6.64Zm-20.08,0h4.71V146.41h-4.71Zm3.47-19.24,2.62-3.72h-3.69l-1.89,3.72Zm-15.46,5.71h1.93a1.79,1.79,0,1,1,0,3.57H156.7ZM167,164.18,162.24,157a5.36,5.36,0,0,0,3.08-4.86c0-3.18-2.75-5.77-6.59-5.77H152l0,17.77h4.71v-7.72l4.76,7.72Zm-17.64-13.39v-4.38H137.84v17.77h11.52v-4.41H142.5V157.2h5.65v-3.93H142.5v-2.48Zm-20.34,9V146.41h-4.71v17.77h11.51v-4.43Zm-13.52,0V146.41h-4.72v17.77H122.3v-4.43ZM103,164.18h4.72V146.41H103Zm-2-17.77H87.74v4.4H92v13.37h4.72V150.81H101Zm-23.73,4.24h1.93a1.79,1.79,0,1,1,0,3.57H77.25Zm10.31,13.53L82.8,157a5.35,5.35,0,0,0,3.07-4.86c0-3.18-2.74-5.77-6.58-5.77H72.54l0,17.77h4.7v-7.72L82,164.18Zm-27.1-4.05a4.86,4.86,0,1,1,5-4.84,4.84,4.84,0,0,1-5,4.84m0,4.5c5.54,0,9.77-4,9.77-9.31s-4.23-9.38-9.76-9.38a9.38,9.38,0,0,0-9.75,9.38c0,5.3,4.21,9.31,9.74,9.31M50.36,146.41H37.13v4.4h4.26v13.37h4.72V150.81h4.25Z"/></g></g></svg>