<svg xmlns="http://www.w3.org/2000/svg" viewBox="0 0 184.25 170.53"><defs><style>.cls-1,.cls-4{fill:#ed6b28;}.cls-1,.cls-2{fill-rule:evenodd;}.cls-2,.cls-3{fill:#ffd000;}</style></defs><title>Asset 1san-mateo</title><g id="Layer_2" data-name="Layer 2"><g id="Layer_1-2" data-name="Layer 1"><path class="cls-1" d="M48.92,51.7H47.05v85.42h97.62V51.7H141l-.75-1.65a56.57,56.57,0,0,0-22.54-25.31,46.12,46.12,0,0,0-5.94-2.94,41.71,41.71,0,0,0-15.9-3.2h0C81.79,18.6,69,26,60.06,36.51A60.17,60.17,0,0,0,55.27,43a56.19,56.19,0,0,0-3.8,7v0l-.75,1.63Zm-4.67-5.6h2.9A62.27,62.27,0,0,1,50.55,40a63.43,63.43,0,0,1,5.27-7.12C65.76,21.23,80,13,95.86,13h0a47.36,47.36,0,0,1,18,3.61,52.53,52.53,0,0,1,6.64,3.28A62.28,62.28,0,0,1,144.57,46.1h5.7v96.62H41.45V46.1Z"/><path class="cls-2" d="M41.84,43.14H39.26V144.69h113.2V43.14h-4.35l-.75-1.64a57.3,57.3,0,0,0-21-24.18,56.23,56.23,0,0,0-61,0,57.16,57.16,0,0,0-21,24.18l-.75,1.64Zm-5.37-5.6h3.62A62.8,62.8,0,0,1,62.36,12.62a61.8,61.8,0,0,1,67,0,62.87,62.87,0,0,1,22.27,24.92h6.42V150.29H33.67V37.54Z"/><rect class="cls-3" x="28.27" y="135.81" width="135.18" height="19.68"/><path class="cls-1" d="M151.23,146.6H154l-1.36-3.45ZM149,149.66l3.17-8h1.12l3.13,8h-1.23l-.87-2.22H150.9l-.88,2.22Zm-7.24,0v-8h1.11l4,6.18v-6.18h1v8h-1.11l-4-6.18v6.18Zm-3.19-8h1.13v8h-1.13Zm-5.87,3.76H133a2.13,2.13,0,0,0,1.69-.52,1.72,1.72,0,0,0,.45-1.15,1.23,1.23,0,0,0-.17-.65,1.11,1.11,0,0,0-.51-.44,3.05,3.05,0,0,0-1.12-.15h-.71Zm-1.13,4.24v-8H134a2.36,2.36,0,0,1,1.86.6,2,2,0,0,1,.52,1.38,2.41,2.41,0,0,1-.18.9,2.47,2.47,0,0,1-.52.79,2.69,2.69,0,0,1-.91.58l2.66,3.75H136l-2.27-3.39h-1.06v3.39Zm-6.31-3.06H128l-1.35-3.45ZM123,149.66l3.18-8h1.12l3.13,8h-1.23l-.87-2.22H124.9l-.88,2.22Zm-7.19,0v-8h1.14V145h3.8v-3.37h1.14v8h-1.14v-3.78h-3.8v3.78Zm-9.5,0v-8h4.48v.85h-3.34v2.56h2.8v.84h-2.8v2.9H111v.85Zm-7.16-.85h1.46a3.23,3.23,0,0,0,1.7-.36,2.37,2.37,0,0,0,.88-1.14,4.59,4.59,0,0,0,.32-1.73,4.18,4.18,0,0,0-.27-1.54,2.41,2.41,0,0,0-.9-1.12,4.39,4.39,0,0,0-2.25-.41h-.94Zm-1.13.85v-8h2.66a4.94,4.94,0,0,1,2.33.44,3.16,3.16,0,0,1,1.25,1.31,4.38,4.38,0,0,1,.45,2.06,5.27,5.27,0,0,1-.41,2.09,3.62,3.62,0,0,1-1.26,1.53,4.13,4.13,0,0,1-2.34.57Zm-10-.15v-1.13a7.85,7.85,0,0,0,1.41.54,4.28,4.28,0,0,0,.83.09,1.54,1.54,0,0,0,1.09-.38,1.18,1.18,0,0,0,.4-.9,1.37,1.37,0,0,0-.21-.73,3,3,0,0,0-1.06-.8l-.55-.32a4.75,4.75,0,0,1-1.49-1.15,1.91,1.91,0,0,1-.38-1.15,2,2,0,0,1,.3-1.06,2.17,2.17,0,0,1,.81-.78,2.61,2.61,0,0,1,1.28-.28,6.82,6.82,0,0,1,2,.31v1a11.85,11.85,0,0,0-1.24-.42,3,3,0,0,0-.67-.07,1.36,1.36,0,0,0-1,.36,1,1,0,0,0-.18,1.27,1.57,1.57,0,0,0,.43.46c.18.12.42.27.74.45l.58.33a4.6,4.6,0,0,1,1.49,1.16,2,2,0,0,1,.37,1.21,2.2,2.2,0,0,1-.71,1.62,2.93,2.93,0,0,1-2.11.68,5.69,5.69,0,0,1-.83,0c-.27,0-.68-.14-1.24-.29M82.2,146.6h2.73l-1.36-3.45Zm-2.26,3.06,3.17-8h1.12l3.13,8H86.13l-.87-2.22H81.87L81,149.66Zm-5,0v-8h1.13v7.15h3.56v.85Zm-5.9,0v-8h1.13v7.15h3.56v.85Zm-3.2-8H67v8H65.88Zm-5.09,8v-7.15H58v-.85h6.81v.85H61.93v7.15ZM53,145.42h.37a2.16,2.16,0,0,0,1.7-.52,1.71,1.71,0,0,0,.44-1.15,1.23,1.23,0,0,0-.16-.65,1.14,1.14,0,0,0-.52-.44,3,3,0,0,0-1.11-.15H53Zm-1.12,4.24v-8h2.42a2.36,2.36,0,0,1,1.86.6,2.07,2.07,0,0,1,.51,1.38,2.41,2.41,0,0,1-.18.9,2.31,2.31,0,0,1-.52.79,2.6,2.6,0,0,1-.91.58l2.67,3.75H56.35l-2.28-3.39H53v3.39ZM46.56,149a2.16,2.16,0,0,0,1.87-.91,4,4,0,0,0,.66-2.45,4,4,0,0,0-.66-2.45,2.41,2.41,0,0,0-3.74,0,4.81,4.81,0,0,0,0,4.9,2.16,2.16,0,0,0,1.87.91m0,.84a3.76,3.76,0,0,1-2-.5,3.42,3.42,0,0,1-1.3-1.48,5.11,5.11,0,0,1-.46-2.21,5.21,5.21,0,0,1,.44-2.16,3.33,3.33,0,0,1,1.3-1.51,4,4,0,0,1,4,0,3.33,3.33,0,0,1,1.3,1.51,5.5,5.5,0,0,1,0,4.31,3.39,3.39,0,0,1-1.28,1.51,3.69,3.69,0,0,1-2,.53m-8.37-.19v-7.15H35.36v-.85h6.8v.85H39.33v7.15Z"/><path class="cls-1" d="M166.92,133.24H24.81v24.83H166.92Zm-142.8-1.37H168.28v27.56H23.44V131.87Z"/><path class="cls-1" d="M30.83,158.89a2.7,2.7,0,0,0,.06.41,1.55,1.55,0,0,0,1.89,1.08,1.23,1.23,0,0,0,.86-1.51,1,1,0,0,0-1.2-.68.77.77,0,0,0-.55,1,.63.63,0,0,0,.77.44A.5.5,0,0,0,33,159"/><path class="cls-1" d="M29.62,156.47a.64.64,0,0,0,.1-.13.58.58,0,0,0-.2-.8.48.48,0,0,0-.64.15.38.38,0,0,0,.12.52.31.31,0,0,0,.42-.1.25.25,0,0,0-.08-.33.21.21,0,0,0-.27.07"/><path class="cls-1" d="M29,154.59a.28.28,0,0,0,.38-.09.27.27,0,0,0-.08-.38.28.28,0,0,0-.38.09.29.29,0,0,0,.08.38"/><path class="cls-1" d="M28.56,154.61a.15.15,0,0,0,.2-.05.14.14,0,0,0,0-.2.15.15,0,0,0-.2,0,.15.15,0,0,0,0,.21"/><path class="cls-1" d="M28.34,153.85a.18.18,0,0,0,.26,0,.19.19,0,0,0-.06-.26.18.18,0,0,0-.26.06.18.18,0,0,0,.06.25"/><path class="cls-1" d="M25.43,150.44a.19.19,0,0,0,.26-.06.19.19,0,0,0-.06-.26.19.19,0,0,0-.26.06.19.19,0,0,0,.06.26"/><path class="cls-1" d="M31,155.3a2.08,2.08,0,0,1,.07.66c0,.07,0,.31.2.33a.85.85,0,0,1,.32.06,2.45,2.45,0,0,1,.11-.41c0-.09,0-.22-.39-.39a1.39,1.39,0,0,1-.31-.25"/><path class="cls-1" d="M31,155.28a4,4,0,0,1-.63.74.61.61,0,0,0-.13.62.37.37,0,0,1,.05.28,1.14,1.14,0,0,1,.39-.28.63.63,0,0,0,.2-.4,3.34,3.34,0,0,1,.12-1"/><path class="cls-1" d="M31.05,155.26c.53.16.67.19.73.13s.08-.29-.08-.3a3.09,3.09,0,0,0-.65.17"/><path class="cls-1" d="M31,155.25c-.25-.4-.31-.58-.45-.55s-.21.28-.08.33l.53.22"/><path class="cls-1" d="M31,155.26a1.58,1.58,0,0,1-.7,0,.39.39,0,0,0-.43.23c-.09.22-.14.25-.17.25.16,0,.23.11.29.13a.32.32,0,0,0,.38,0,3,3,0,0,1,.63-.54"/><path class="cls-1" d="M30.65,158.2a2.63,2.63,0,0,1-.42.65c-.06.06-.21.31-.06.45s.24.25.24.29c.09-.12.31-.21.4-.29s.13-.23-.06-.64a1.57,1.57,0,0,1-.1-.46"/><path class="cls-1" d="M30.64,158.17a4.7,4.7,0,0,1-1.11.21.72.72,0,0,0-.58.46c-.05.24-.16.29-.16.29a1.38,1.38,0,0,1,.56,0,.63.63,0,0,0,.47-.22,4.18,4.18,0,0,1,.82-.78"/><path class="cls-1" d="M30.7,158.19c.35.53.47.66.56.65s.29-.21.15-.33a3.53,3.53,0,0,0-.71-.32"/><path class="cls-1" d="M30.67,158.14c.07-.54.14-.75,0-.83s-.4.1-.32.25.32.58.32.58Z"/><path class="cls-1" d="M30.66,158.16a2,2,0,0,1-.61-.55.47.47,0,0,0-.57-.11c-.24.14-.31.13-.33.11a.58.58,0,0,1,.16.33.42.42,0,0,0,.38.25,3,3,0,0,1,1,0"/><path class="cls-1" d="M33.64,155.9a3.77,3.77,0,0,1,1.08.28c.12,0,.52.14.65-.12s.23-.45.28-.46a3.83,3.83,0,0,1-.57-.42c-.15-.08-.38-.08-.85.37a2.73,2.73,0,0,1-.59.35"/><path class="cls-1" d="M33.6,155.91a7.83,7.83,0,0,1,.79,1.44,1,1,0,0,0,.89.58.57.57,0,0,1,.48.1,2,2,0,0,1-.21-.79,1,1,0,0,0-.51-.55,5.7,5.7,0,0,1-1.44-.78"/><path class="cls-1" d="M33.6,155.84c.57-.73.69-1,.63-1.07s-.41-.3-.51-.06a5.67,5.67,0,0,0-.12,1.13"/><path class="cls-1" d="M33.55,155.9c-.78.15-1.1.14-1.14.38s.32.5.48.32.66-.7.66-.7"/><path class="cls-1" d="M33.57,155.91A3,3,0,0,1,33.1,157a.67.67,0,0,0,.1.82c.3.27.32.37.3.41.1-.25.3-.3.38-.37a.59.59,0,0,0,.17-.63,5.11,5.11,0,0,1-.48-1.31"/><path class="cls-1" d="M33,152.87a3.35,3.35,0,0,1,.88.2c.09.05.41.11.52-.11a1,1,0,0,1,.21-.37,3.37,3.37,0,0,1-.46-.32c-.13-.07-.31-.06-.68.31a2.22,2.22,0,0,1-.47.29"/><path class="cls-1" d="M33,152.88a6,6,0,0,1,.66,1.14.79.79,0,0,0,.73.45.47.47,0,0,1,.38.06,1.6,1.6,0,0,1-.19-.62.71.71,0,0,0-.41-.43,4.14,4.14,0,0,1-1.17-.6"/><path class="cls-1" d="M33,152.82c.44-.59.54-.77.48-.87s-.33-.23-.41,0a5,5,0,0,0-.07.91"/><path class="cls-1" d="M33,152.87c-.63.14-.88.14-.91.33s.26.4.39.25l.52-.58"/><path class="cls-1" d="M33,152.88a2.34,2.34,0,0,1-.35.87.52.52,0,0,0,.1.66c.24.21.25.29.25.32.07-.2.23-.23.29-.3a.48.48,0,0,0,.12-.51,4.23,4.23,0,0,1-.41-1"/><path class="cls-1" d="M31.53,150.71a4.45,4.45,0,0,1,.74,1.16c.06.15.35.57.68.45a1.7,1.7,0,0,1,.65-.18,6.5,6.5,0,0,1-.17-.86c0-.2-.27-.39-1.08-.39a3,3,0,0,1-.82-.18"/><path class="cls-1" d="M31.49,150.69a9.68,9.68,0,0,1-.5,2,1.23,1.23,0,0,0,.31,1.28c.34.26.34.48.34.48a2.65,2.65,0,0,1,.48-.88,1.13,1.13,0,0,0,0-.93,6.57,6.57,0,0,1-.64-1.91"/><path class="cls-1" d="M31.55,150.62c1.13-.18,1.42-.27,1.46-.43s-.1-.62-.4-.49a7.59,7.59,0,0,0-1.06.92"/><path class="cls-1" d="M31.45,150.64c-.83-.53-1.1-.81-1.35-.62s-.13.72.16.7l1.19-.08"/><path class="cls-1" d="M31.47,150.66a3.65,3.65,0,0,1-1.34.58.82.82,0,0,0-.6.83c0,.49,0,.59-.08.62a1.15,1.15,0,0,1,.66,0,.7.7,0,0,0,.68-.42,5.75,5.75,0,0,1,.68-1.59"/><path class="cls-1" d="M26.27,153.34a3.41,3.41,0,0,1-.87.32c-.1,0-.42.14-.39.37s.06.41,0,.45a2.81,2.81,0,0,1,.59,0c.13,0,.29-.13.41-.65a2,2,0,0,1,.24-.51"/><path class="cls-1" d="M26.28,153.32a6.34,6.34,0,0,1-1.19-.61.82.82,0,0,0-.88,0c-.21.19-.36.15-.36.15a1.72,1.72,0,0,1,.5.44.77.77,0,0,0,.6.14,4.71,4.71,0,0,1,1.33-.13"/><path class="cls-1" d="M26.32,153.37c-.05.76,0,1,.06,1s.42,0,.38-.2a4.4,4.4,0,0,0-.44-.82"/><path class="cls-1" d="M26.32,153.3c.46-.46.69-.59.61-.78s-.45-.19-.48,0-.13.77-.13.77"/><path class="cls-1" d="M26.3,153.31a2.7,2.7,0,0,1-.17-.95.54.54,0,0,0-.45-.51c-.32,0-.38-.11-.39-.14.05.21-.07.33-.09.42a.51.51,0,0,0,.18.51,3.82,3.82,0,0,1,.92.67"/><path class="cls-1" d="M24.91,147.22a2.37,2.37,0,0,1-.73,0c-.08,0-.35,0-.39.18a1,1,0,0,1-.1.34,3.5,3.5,0,0,1,.43.17c.1,0,.25,0,.47-.38a2,2,0,0,1,.32-.31"/><path class="cls-1" d="M24.93,147.21a4.92,4.92,0,0,1-.74-.78.66.66,0,0,0-.65-.22.4.4,0,0,1-.32,0,1.29,1.29,0,0,1,.26.46.6.6,0,0,0,.41.26,3.83,3.83,0,0,1,1,.26"/><path class="cls-1" d="M24.94,147.25c-.24.55-.28.71-.22.78s.3.12.33-.05a4.07,4.07,0,0,0-.11-.73"/><path class="cls-1" d="M25,147.21c.47-.23.67-.27.65-.43s-.28-.26-.35-.12-.3.55-.3.55"/><path class="cls-1" d="M24.94,147.2a2.06,2.06,0,0,1,.12-.75.43.43,0,0,0-.2-.5c-.23-.12-.25-.18-.25-.21,0,.17-.14.23-.18.29a.39.39,0,0,0,0,.43,3.47,3.47,0,0,1,.52.74Z"/><path class="cls-1" d="M27.3,148.23a3.34,3.34,0,0,1-.76.63c-.1,0-.37.3-.25.53a1,1,0,0,1,.18.44,3.17,3.17,0,0,1,.6-.19c.13-.07.25-.24.17-.81a2.31,2.31,0,0,1,.06-.6"/><path class="cls-1" d="M27.31,148.2a7,7,0,0,1-1.44-.18.88.88,0,0,0-.88.34c-.15.26-.31.29-.31.29a1.67,1.67,0,0,1,.67.26.87.87,0,0,0,.65-.08,5,5,0,0,1,1.31-.63"/><path class="cls-1" d="M27.37,148.24c.22.78.31,1,.43,1s.43-.14.31-.33a4.78,4.78,0,0,0-.74-.67"/><path class="cls-1" d="M27.34,148.17c.3-.64.47-.86.32-1s-.52,0-.48.18l.16.83"/><path class="cls-1" d="M27.32,148.18a2.51,2.51,0,0,1-.52-.9.6.6,0,0,0-.64-.35c-.35.07-.43,0-.45,0a.88.88,0,0,1,.07.47.51.51,0,0,0,.36.44,4,4,0,0,1,1.18.34"/><path class="cls-1" d="M25.66,154.92a9.6,9.6,0,0,1-3.38,5.45c-1.66,1.51-2.93,1.75-5.16,2.07,2-.14,3.54-.12,5.86-2.31s4-5.41,2.34-11.29a14.09,14.09,0,0,1,.34,6.08"/><path class="cls-1" d="M27.17,154.85a9.6,9.6,0,0,1-2.4,5.94c-1.38,1.78-2.59,2.23-4.73,2.92,1.95-.48,3.46-.72,5.38-3.27s3.06-6,.37-11.53a14.21,14.21,0,0,1,1.38,5.94"/><path class="cls-1" d="M28.16,152.07a11.86,11.86,0,0,1,2.42,7.51c.1,2.76-.68,4.15-2.16,6.49,1.46-2,2.7-3.41,2.5-7.34s-1.87-8.11-8.75-11.18a17.58,17.58,0,0,1,6,4.52"/><path class="cls-1" d="M28.43,159a4.51,4.51,0,0,1,1.45-2.64,3.76,3.76,0,0,1,2.36-1.1,3.56,3.56,0,0,0-2.69,1.23c-1.07,1.12-1.75,2.64-.8,5.36a6.67,6.67,0,0,1-.32-2.85"/><path class="cls-1" d="M28.42,150a.43.43,0,0,0-.05.62.45.45,0,0,0,.62,0,.44.44,0,0,0,.05-.62.43.43,0,0,0-.62-.05"/><path class="cls-1" d="M28.57,149.36a.24.24,0,0,0,0,.33.23.23,0,0,0,.33,0,.24.24,0,0,0,0-.33.24.24,0,0,0-.34,0"/><path class="cls-1" d="M29.83,149.35a.3.3,0,0,0,0,.43.3.3,0,1,0,0-.43"/><path class="cls-1" d="M20.7,147.75A10.89,10.89,0,0,0,9.14,157.91a8.69,8.69,0,0,0,8.12,9.25,7,7,0,0,0,7.4-6.5,5.57,5.57,0,0,0-5.2-5.92,4.44,4.44,0,0,0-4.73,4.16,3.57,3.57,0,0,0,3.32,3.79,2.85,2.85,0,0,0,3-2.66A2.28,2.28,0,0,0,19,157.6,1.83,1.83,0,0,0,17,159.3a1.47,1.47,0,0,0,1.36,1.56,1.18,1.18,0,0,0,1.25-1.09,1,1,0,0,0-.87-1,.76.76,0,0,0-.8.7.6.6,0,0,0,.56.64.49.49,0,0,0,.51-.45.4.4,0,0,0-.36-.41.3.3,0,0,0-.32.29"/><path class="cls-1" d="M19.22,162.52a1.55,1.55,0,0,1,.31-.07,1.18,1.18,0,0,1,1.31,1,.94.94,0,0,1-.83,1,.75.75,0,0,1-.84-.66.61.61,0,0,1,.53-.67.49.49,0,0,1,.54.42.39.39,0,0,1-.34.43"/><path class="cls-1" d="M11.07,151.55a5.73,5.73,0,0,1,1.19-.27,4.47,4.47,0,0,1,5,3.92,3.58,3.58,0,0,1-3.13,4,2.87,2.87,0,0,1-3.18-2.51,2.29,2.29,0,0,1,2-2.54,1.83,1.83,0,0,1,2,1.61,1.47,1.47,0,0,1-1.29,1.62"/><path class="cls-1" d="M12.38,158.91a2.79,2.79,0,0,1,.57.29,2.34,2.34,0,0,1,.64,3.23,1.88,1.88,0,0,1-2.59.51,1.49,1.49,0,0,1-.4-2.07,1.19,1.19,0,0,1,1.65-.32,1,1,0,0,1,.26,1.32.77.77,0,0,1-1.06.21"/><path class="cls-1" d="M27.34,141.89a7,7,0,0,0-9,4.18,5.6,5.6,0,0,0,3.34,7.2,4.49,4.49,0,0,0,5.76-2.67A3.6,3.6,0,0,0,25.3,146a2.88,2.88,0,0,0-3.69,1.71,2.31,2.31,0,0,0,1.37,3,1.84,1.84,0,0,0,2.36-1.09,1.47,1.47,0,0,0-.88-1.89,1.17,1.17,0,0,0-1.51.7,1,1,0,0,0,.56,1.21.76.76,0,0,0,1-.45.6.6,0,0,0-.36-.78.49.49,0,0,0-.62.29.39.39,0,0,0,.23.5.31.31,0,0,0,.4-.18.24.24,0,0,0-.15-.32.19.19,0,0,0-.25.12"/><path class="cls-1" d="M30.63,156.76a8.76,8.76,0,0,0-3.74,2.39,7,7,0,0,0,.39,9.89,5.6,5.6,0,0,0,7.91-.31,4.48,4.48,0,0,0-.25-6.33,3.57,3.57,0,0,0-5.06.2,2.87,2.87,0,0,0,.16,4.05,2.29,2.29,0,0,0,3.24-.13,1.82,1.82,0,0,0-.1-2.59,1.47,1.47,0,0,0-2.08.08,1.18,1.18,0,0,0,.07,1.66,1,1,0,0,0,1.33,0,.75.75,0,0,0,0-1.06.6.6,0,0,0-.85,0,.48.48,0,0,0,0,.68.39.39,0,0,0,.54,0,.32.32,0,0,0,0-.44"/><path class="cls-1" d="M16.89,167.8a1.86,1.86,0,0,0,.34,0,1.26,1.26,0,0,0,1.24-1.26,1,1,0,0,0-1-1,.79.79,0,0,0-.79.8.65.65,0,0,0,.65.64.5.5,0,0,0,.5-.51.41.41,0,0,0-.41-.41"/><path class="cls-1" d="M29.32,163.12a1.65,1.65,0,0,1-.07.32,1.19,1.19,0,0,1-1.53.68.94.94,0,0,1-.55-1.21.76.76,0,0,1,1-.44.6.6,0,0,1,.35.78.5.5,0,0,1-.63.28.39.39,0,0,1-.22-.5"/><path class="cls-1" d="M22.45,150.69l.19,0a.73.73,0,0,1,.82.64.59.59,0,0,1-.52.65.47.47,0,0,1-.51-.41.37.37,0,0,1,.32-.42.3.3,0,0,1,.34.26.25.25,0,0,1-.22.27"/><path class="cls-1" d="M160.71,158.89a1.4,1.4,0,0,1-.06.41,1.53,1.53,0,0,1-1.88,1.08,1.24,1.24,0,0,1-.87-1.51,1,1,0,0,1,1.21-.68.77.77,0,0,1,.55,1,.63.63,0,0,1-.77.44.51.51,0,0,1-.36-.62"/><path class="cls-1" d="M161.93,156.47a.64.64,0,0,1-.1-.13.58.58,0,0,1,.19-.8.49.49,0,0,1,.65.15.39.39,0,0,1-.13.52.29.29,0,0,1-.41-.1.24.24,0,0,1,.08-.33.19.19,0,0,1,.26.07"/><path class="cls-1" d="M162.57,154.59a.28.28,0,1,1,.08-.38.28.28,0,0,1-.08.38"/><path class="cls-1" d="M163,154.61a.15.15,0,0,1-.2-.05.16.16,0,0,1,0-.2.17.17,0,0,1,.21,0,.16.16,0,0,1-.05.21"/><path class="cls-1" d="M163.21,153.85a.18.18,0,0,1-.26,0,.19.19,0,0,1,.06-.26.19.19,0,0,1,.26.06.18.18,0,0,1-.06.25"/><path class="cls-1" d="M166.12,150.44a.18.18,0,0,1-.26-.06.19.19,0,0,1,0-.26.2.2,0,0,1,.27.06.19.19,0,0,1-.06.26"/><path class="cls-1" d="M160.52,155.3a2.08,2.08,0,0,0-.07.66c0,.07,0,.31-.2.33s-.3,0-.32.06a4,4,0,0,0-.11-.41c0-.09,0-.22.38-.39a1.34,1.34,0,0,0,.32-.25"/><path class="cls-1" d="M160.53,155.28a4.48,4.48,0,0,0,.63.74.61.61,0,0,1,.14.62.32.32,0,0,0-.05.28,1.25,1.25,0,0,0-.39-.28.55.55,0,0,1-.2-.4,3.1,3.1,0,0,0-.13-1"/><path class="cls-1" d="M160.49,155.26c-.52.16-.67.19-.72.13s-.08-.29.07-.3a2.92,2.92,0,0,1,.65.17"/><path class="cls-1" d="M160.54,155.25c.24-.4.3-.58.45-.55s.21.28.08.33l-.53.22"/><path class="cls-1" d="M160.54,155.26a1.53,1.53,0,0,0,.69,0,.41.41,0,0,1,.44.23c.08.22.14.25.16.25-.15,0-.23.11-.28.13a.34.34,0,0,1-.39,0,3.22,3.22,0,0,0-.62-.54"/><path class="cls-1" d="M160.9,158.2a2.63,2.63,0,0,0,.42.65c.06.06.2.31.06.45s-.25.25-.24.29a3.07,3.07,0,0,0-.4-.29c-.09-.07-.14-.23.06-.64a1.57,1.57,0,0,0,.1-.46"/><path class="cls-1" d="M160.9,158.17a4.7,4.7,0,0,0,1.11.21.7.7,0,0,1,.58.46c0,.24.17.29.17.29a1.38,1.38,0,0,0-.56,0,.65.65,0,0,1-.48-.22,3.9,3.9,0,0,0-.82-.78"/><path class="cls-1" d="M160.85,158.19c-.36.53-.48.66-.57.65s-.29-.21-.15-.33a3.56,3.56,0,0,1,.72-.32"/><path class="cls-1" d="M160.88,158.14c-.07-.54-.15-.75,0-.83s.4.1.32.25l-.32.58"/><path class="cls-1" d="M160.89,158.16a2.14,2.14,0,0,0,.61-.55.46.46,0,0,1,.56-.11c.24.14.31.13.34.11-.14.12-.13.26-.17.33a.4.4,0,0,1-.37.25,3,3,0,0,0-1,0"/><path class="cls-1" d="M157.91,155.9a3.77,3.77,0,0,0-1.09.28c-.11,0-.51.14-.64-.12s-.23-.45-.29-.46a4,4,0,0,0,.58-.42c.14-.08.38-.08.85.37a2.47,2.47,0,0,0,.59.35"/><path class="cls-1" d="M157.94,155.91a7.83,7.83,0,0,0-.79,1.44,1,1,0,0,1-.89.58.56.56,0,0,0-.47.1,2.17,2.17,0,0,0,.21-.79.92.92,0,0,1,.5-.55,5.54,5.54,0,0,0,1.44-.78"/><path class="cls-1" d="M158,155.84c-.57-.73-.7-1-.63-1.07s.4-.3.51-.06a5.67,5.67,0,0,1,.12,1.13"/><path class="cls-1" d="M158,155.9c.77.15,1.09.14,1.13.38s-.31.5-.48.32l-.65-.7"/><path class="cls-1" d="M158,155.91a3,3,0,0,0,.47,1.08.66.66,0,0,1-.1.82c-.29.27-.31.37-.3.41-.09-.25-.3-.3-.38-.37a.59.59,0,0,1-.17-.63,4.76,4.76,0,0,0,.48-1.31"/><path class="cls-1" d="M158.51,152.87a3.35,3.35,0,0,0-.87.2c-.09.05-.42.11-.52-.11s-.17-.36-.22-.37a3,3,0,0,0,.47-.32c.12-.07.3-.06.68.31a2.05,2.05,0,0,0,.46.29"/><path class="cls-1" d="M158.54,152.88a6,6,0,0,0-.66,1.14.81.81,0,0,1-.73.45.47.47,0,0,0-.38.06,1.41,1.41,0,0,0,.18-.62.73.73,0,0,1,.42-.43,4.14,4.14,0,0,0,1.17-.6"/><path class="cls-1" d="M158.55,152.82c-.44-.59-.54-.77-.49-.87s.34-.23.41,0a4.36,4.36,0,0,1,.08.91"/><path class="cls-1" d="M158.58,152.87c.62.14.88.14.9.33s-.26.4-.39.25l-.51-.58"/><path class="cls-1" d="M158.56,152.88a2.31,2.31,0,0,0,.36.87.54.54,0,0,1-.1.66c-.24.21-.26.29-.25.32-.07-.2-.23-.23-.29-.3a.45.45,0,0,1-.12-.51,4.27,4.27,0,0,0,.4-1"/><path class="cls-1" d="M160,150.71a4.92,4.92,0,0,0-.75,1.16c-.05.15-.34.57-.68.45a1.63,1.63,0,0,0-.64-.18,5.11,5.11,0,0,0,.16-.86c.06-.2.28-.39,1.09-.39a3,3,0,0,0,.82-.18"/><path class="cls-1" d="M160.06,150.69a9.05,9.05,0,0,0,.5,2,1.25,1.25,0,0,1-.31,1.28c-.34.26-.35.48-.35.48a2.33,2.33,0,0,0-.48-.88,1.14,1.14,0,0,1,0-.93,6.89,6.89,0,0,0,.64-1.91"/><path class="cls-1" d="M160,150.62c-1.13-.18-1.43-.27-1.47-.43s.11-.62.41-.49a7.59,7.59,0,0,1,1.06.92"/><path class="cls-1" d="M160.09,150.64c.83-.53,1.11-.81,1.35-.62s.13.72-.16.7l-1.19-.08"/><path class="cls-1" d="M160.08,150.66a3.65,3.65,0,0,0,1.34.58.82.82,0,0,1,.6.83c0,.49,0,.59.07.62-.29-.14-.51,0-.65,0a.7.7,0,0,1-.68-.42,5.75,5.75,0,0,0-.68-1.59"/><path class="cls-1" d="M165.28,153.34a3.26,3.26,0,0,0,.86.32c.11,0,.42.14.39.37a1.19,1.19,0,0,0,0,.45,2.74,2.74,0,0,0-.58,0c-.14,0-.29-.13-.41-.65a2,2,0,0,0-.24-.51"/><path class="cls-1" d="M165.26,153.32a6.18,6.18,0,0,0,1.2-.61.81.81,0,0,1,.87,0c.22.19.37.15.37.15a1.59,1.59,0,0,0-.5.44.77.77,0,0,1-.6.14,4.75,4.75,0,0,0-1.34-.13"/><path class="cls-1" d="M165.22,153.37c.06.76,0,1-.06,1s-.42,0-.37-.2a4.49,4.49,0,0,1,.43-.82"/><path class="cls-1" d="M165.22,153.3c-.46-.46-.68-.59-.6-.78s.45-.19.48,0l.12.77"/><path class="cls-1" d="M165.24,153.31a2.29,2.29,0,0,0,.17-.95.55.55,0,0,1,.45-.51c.33,0,.39-.11.4-.14a.66.66,0,0,0,.08.42.47.47,0,0,1-.18.51,3.82,3.82,0,0,0-.92.67"/><path class="cls-1" d="M166.64,147.22a2.37,2.37,0,0,0,.73,0c.08,0,.35,0,.39.18a1,1,0,0,0,.1.34,3,3,0,0,0-.43.17c-.11,0-.25,0-.48-.38a1.74,1.74,0,0,0-.31-.31"/><path class="cls-1" d="M166.62,147.21a4.76,4.76,0,0,0,.73-.78.68.68,0,0,1,.66-.22.38.38,0,0,0,.31,0,1.11,1.11,0,0,0-.25.46.63.63,0,0,1-.41.26,3.74,3.74,0,0,0-1,.26"/><path class="cls-1" d="M166.6,147.25c.24.55.29.71.23.78s-.31.12-.33-.05a3.44,3.44,0,0,1,.1-.73"/><path class="cls-1" d="M166.59,147.21c-.47-.23-.67-.27-.66-.43s.29-.26.36-.12l.3.55"/><path class="cls-1" d="M166.6,147.2a1.86,1.86,0,0,0-.12-.75.44.44,0,0,1,.2-.5c.23-.12.26-.18.26-.21,0,.17.14.23.18.29a.41.41,0,0,1,0,.43,2.88,2.88,0,0,0-.52.74"/><path class="cls-1" d="M164.25,148.23a3.13,3.13,0,0,0,.76.63c.09,0,.37.3.25.53a1.33,1.33,0,0,0-.19.44,3.09,3.09,0,0,0-.59-.19c-.14-.07-.25-.24-.17-.81a2.31,2.31,0,0,0-.06-.6"/><path class="cls-1" d="M164.24,148.2a6.9,6.9,0,0,0,1.43-.18.89.89,0,0,1,.89.34c.15.26.31.29.31.29a1.61,1.61,0,0,0-.67.26.9.9,0,0,1-.66-.08,4.87,4.87,0,0,0-1.3-.63"/><path class="cls-1" d="M164.18,148.24c-.23.78-.32,1-.44,1s-.42-.14-.3-.33a4.36,4.36,0,0,1,.74-.67"/><path class="cls-1" d="M164.2,148.17c-.29-.64-.47-.86-.32-1s.53,0,.49.18-.17.83-.17.83"/><path class="cls-1" d="M164.22,148.18a2.76,2.76,0,0,0,.53-.9.59.59,0,0,1,.64-.35c.35.07.43,0,.45,0a.72.72,0,0,0-.07.47c0,.09-.09.39-.36.44a4.06,4.06,0,0,0-1.19.34"/><path class="cls-1" d="M165.88,154.92a9.61,9.61,0,0,0,3.39,5.45c1.65,1.51,2.92,1.75,5.15,2.07-2-.14-3.53-.12-5.86-2.31s-4-5.41-2.33-11.29a14.34,14.34,0,0,0-.35,6.08"/><path class="cls-1" d="M164.37,154.85a9.67,9.67,0,0,0,2.41,5.94c1.37,1.78,2.58,2.23,4.72,2.92-1.94-.48-3.46-.72-5.38-3.27s-3.05-6-.37-11.53a14.56,14.56,0,0,0-1.38,5.94"/><path class="cls-1" d="M163.39,152.07a11.74,11.74,0,0,0-2.42,7.51c-.11,2.76.68,4.15,2.15,6.49-1.46-2-2.7-3.41-2.49-7.34s1.86-8.11,8.75-11.18a17.34,17.34,0,0,0-6,4.52"/><path class="cls-1" d="M163.12,159a4.56,4.56,0,0,0-1.45-2.64,3.76,3.76,0,0,0-2.37-1.1,3.53,3.53,0,0,1,2.69,1.23c1.07,1.12,1.76,2.64.81,5.36a6.86,6.86,0,0,0,.32-2.85"/><path class="cls-1" d="M163.13,150a.44.44,0,0,1-.57.67.44.44,0,0,1,.57-.67"/><path class="cls-1" d="M163,149.36a.24.24,0,0,1,0,.33.24.24,0,0,1-.34,0,.24.24,0,0,1,0-.33.23.23,0,0,1,.33,0"/><path class="cls-1" d="M161.72,149.35a.31.31,0,0,1,0,.43.3.3,0,0,1-.42,0,.29.29,0,0,1,0-.42.3.3,0,0,1,.42,0"/><path class="cls-1" d="M170.85,147.75a10.89,10.89,0,0,1,11.56,10.16,8.71,8.71,0,0,1-8.12,9.25,7,7,0,0,1-7.4-6.5,5.56,5.56,0,0,1,5.19-5.92,4.46,4.46,0,0,1,4.74,4.16,3.57,3.57,0,0,1-3.33,3.79,2.86,2.86,0,0,1-3-2.66,2.28,2.28,0,0,1,2.13-2.43,1.82,1.82,0,0,1,1.94,1.7,1.47,1.47,0,0,1-1.36,1.56,1.17,1.17,0,0,1-1.24-1.09.93.93,0,0,1,.87-1,.75.75,0,0,1,.79.7.59.59,0,0,1-.56.64.48.48,0,0,1-.5-.45.38.38,0,0,1,.36-.41.31.31,0,0,1,.32.29"/><path class="cls-1" d="M172.33,162.52a1.55,1.55,0,0,0-.31-.07,1.18,1.18,0,0,0-1.31,1,.93.93,0,0,0,.82,1,.76.76,0,0,0,.85-.66.61.61,0,0,0-.54-.67.48.48,0,0,0-.53.42.37.37,0,0,0,.33.43"/><path class="cls-1" d="M180.48,151.55a5.88,5.88,0,0,0-1.19-.27,4.46,4.46,0,0,0-5,3.92,3.58,3.58,0,0,0,3.13,4,2.87,2.87,0,0,0,3.18-2.51,2.3,2.3,0,0,0-2-2.54,1.83,1.83,0,0,0-2,1.61,1.46,1.46,0,0,0,1.28,1.62"/><path class="cls-1" d="M179.16,158.91a2.71,2.71,0,0,0-.56.29,2.33,2.33,0,0,0-.64,3.23,1.86,1.86,0,0,0,2.58.51,1.49,1.49,0,0,0,.41-2.07,1.19,1.19,0,0,0-1.65-.32,1,1,0,0,0-.27,1.32.77.77,0,0,0,1.06.21"/><path class="cls-1" d="M164.21,141.89a7,7,0,0,1,9,4.18,5.61,5.61,0,0,1-3.34,7.2,4.49,4.49,0,0,1-5.76-2.67,3.59,3.59,0,0,1,2.14-4.61,2.86,2.86,0,0,1,3.68,1.71,2.3,2.3,0,0,1-1.36,3,1.84,1.84,0,0,1-2.36-1.09,1.47,1.47,0,0,1,.87-1.89,1.17,1.17,0,0,1,1.51.7.94.94,0,0,1-.56,1.21.75.75,0,0,1-1-.45.61.61,0,0,1,.35-.78.49.49,0,0,1,.62.29.38.38,0,0,1-.23.5.3.3,0,0,1-.39-.18.25.25,0,0,1,.14-.32.2.2,0,0,1,.26.12"/><path class="cls-1" d="M160.91,156.76a8.7,8.7,0,0,1,3.74,2.39,7,7,0,0,1-.39,9.89,5.6,5.6,0,0,1-7.91-.31,4.48,4.48,0,0,1,.25-6.33,3.57,3.57,0,0,1,5.06.2,2.85,2.85,0,0,1-.16,4.05,2.29,2.29,0,0,1-3.24-.13,1.83,1.83,0,0,1,.1-2.59,1.47,1.47,0,0,1,2.08.08,1.18,1.18,0,0,1-.06,1.66.94.94,0,0,1-1.33,0,.75.75,0,0,1,0-1.06.6.6,0,0,1,.85,0,.49.49,0,0,1,0,.68.39.39,0,0,1-.54,0,.31.31,0,0,1,0-.44"/><path class="cls-1" d="M174.66,167.8a2,2,0,0,1-.34,0,1.25,1.25,0,0,1-1.24-1.26,1,1,0,0,1,1-1,.8.8,0,0,1,.8.8.65.65,0,0,1-.65.64.51.51,0,0,1-.51-.51.42.42,0,0,1,.42-.41"/><path class="cls-1" d="M162.22,163.12a1.16,1.16,0,0,0,.08.32,1.18,1.18,0,0,0,1.52.68.93.93,0,0,0,.55-1.21.75.75,0,0,0-1-.44.59.59,0,0,0-.35.78.48.48,0,0,0,.62.28.38.38,0,0,0,.22-.5"/><path class="cls-1" d="M169.09,150.69l-.19,0a.73.73,0,0,0-.81.64.58.58,0,0,0,.51.65.47.47,0,0,0,.52-.41.39.39,0,0,0-.33-.42.3.3,0,0,0-.33.26.25.25,0,0,0,.21.27"/><path class="cls-2" d="M171.11,110.58q-8.28,7.24-8.28,11.79c0,1.3.62,2,1.87,2,2,0,5.19-2.46,9.51-7.37a4.07,4.07,0,0,1-3.42-4.39,7,7,0,0,1,.32-2m4,5.08a19.34,19.34,0,0,0,3-3.86,9.7,9.7,0,0,0,1.67-4.48c0-1-.44-1.54-1.34-1.54q-2,0-4,2.49a7.56,7.56,0,0,0-2,4.54c0,1.53.88,2.47,2.67,2.85m-13.77-.07L152.94,122c-4.28,3-7.47,4.47-9.6,4.47a.44.44,0,0,1-.48-.49.89.89,0,0,1,.82-.94,13.27,13.27,0,0,0,4.21-1.43,82,82,0,0,0,9.93-7.1l10.74-8.83c2.05-1.82,3.31-2.72,3.77-2.72a3.46,3.46,0,0,1,2.25,1.14,7.18,7.18,0,0,1,4.18-1.79c1.84,0,2.76,1,2.76,3q0,4.43-7.08,12.07t-11.61,7.73c-2.76,0-4.15-1.46-4.15-4.36,0-1.51.87-3.88,2.64-7.1m-23,2a49.18,49.18,0,0,0,7.9-4.95c3.68-2.74,5.52-4.9,5.52-6.51,0-.65-.29-1-.89-1q-2.64,0-7.2,4.88a27.44,27.44,0,0,0-5.33,7.55M133,119.85c-1.36.32-3.92,1.56-7.65,3.74-3.3,1.91-5.81,2.85-7.52,2.85-.32,0-.48-.18-.48-.53s.34-.79,1-.9a23.42,23.42,0,0,0,7-3,31.91,31.91,0,0,1,8.09-3.58q1.86-4.52,7.72-9.47,6.23-5.33,10.61-5.32c2.17,0,3.25.91,3.25,2.76q0,3.61-6.87,7.88a48.75,48.75,0,0,1-10.32,5,6.77,6.77,0,0,0-.57,2.72,2.7,2.7,0,0,0,1.47,2.78,10.19,10.19,0,0,0,2.76.36c1,0,1.47.26,1.47.7,0,.67-1.66,1-5,1-3.52,0-5.29-1.53-5.29-4.6a10,10,0,0,1,.3-2.31m-6.09-20-14.62.57c-.82,0-1.22-.22-1.22-.65s.66-.61,2-.81c1.86-.3,4.5-.55,7.89-.77,3.75-.23,6.41-.43,7.92-.61l5.82-7c3.12-3.69,5-5.53,5.64-5.53.82,0,1.22.51,1.22,1.54s-2.47,4.75-7.39,11c2.84-.2,5.2-.3,7.06-.3,1.25,0,1.88.25,1.88.74s-1.5.9-4.52,1.1l-6.17.21-9.08,11.33c-5.72,7.46-8.57,11.89-8.57,13.34,0,.68.46,1,1.39,1s1.37.23,1.37.67-.6.77-1.79.77c-2.4,0-3.61-1-3.61-2.93,0-1.54.79-3.76,2.36-6.63L118,111,106,120.5c-5,4-8.86,5.94-11.58,5.94-.32,0-.49-.18-.49-.53s.28-.76.82-.9a27.16,27.16,0,0,0,4.18-1.43q2.72-1.41,12.12-8.77,7-5.41,8.75-7a68,68,0,0,0,7.14-7.88M97.48,106q-2.4,0-9.91,7.16t-7.52,9.55c0,.73.35,1.1,1,1.1q2.31,0,9.94-7t7.62-9.45c0-.9-.39-1.35-1.18-1.35M77.27,117.91q-10.84,8.52-14.95,8.53c-.32,0-.49-.18-.49-.53s.32-.79,1-.9q3.83-.62,10.57-5.9L78.62,115,87,108.3c3.84-2.65,7.15-4,9.88-4a3.08,3.08,0,0,1,3.41,3.05c1.06-1,1.79-1.51,2.19-1.51.91,0,1.35.36,1.35,1.1q0,1.42-6.23,8.71t-6.24,8.49c0,.57.44.86,1.34.89s1.34.26,1.34.7-.92.81-2.77.81-2.72-.8-2.72-2.4c0-1.27.74-3.09,2.2-5.45l-5,4.27q-3.7,2.77-5.9,2.77-3.5,0-3.5-3.54a11.72,11.72,0,0,1,.93-4.3M52.58,98.75Q80.73,70.22,88.63,70.21c2.2,0,3.29,1,3.29,3.14a12,12,0,0,1-2.36,6.42q-1.74,2.52-21.27,23Q52,120.81,52,123.92c0,.74.53,1.15,1.6,1.23s1.58.25,1.58.48c0,.77-.83,1.14-2.49,1.14q-3.49,0-3.49-3.29,0-6.14,15.17-23.06,5.32-5.94,20.16-20.82,5-5.05,5-7.07a.69.69,0,0,0-.77-.78Q86,71.75,73,82.57,62.61,91.24,57.5,96.35q-4.92,4.92-12.93,13.91Q30.16,126.48,29.7,126.48a2.39,2.39,0,0,1-1.46-.78,2.09,2.09,0,0,1-.83-1.37q0-1.59,17.28-22T62,78.67a.73.73,0,0,0-.82-.82q-2.07,0-10.73,6.51A202.08,202.08,0,0,0,32.91,99.49L16.43,115.8,10.66,122q-4.83,5.2-5.2,5.2a3.21,3.21,0,0,1-1.63-.65c-.73-.46-1.09-.9-1.09-1.3q0-1.33,10.2-12.77L32,91.11q10.19-12,10.2-14.89a.93.93,0,0,0-1.06-1.06q-2.94,0-12.2,7.53Q22,88.35,9.12,102.62c-.54.6-1,.89-1.3.89-.6,0-.89-.23-.89-.69,0-.71,2.37-3.77,7.12-9.23a113.89,113.89,0,0,1,12.83-12.2c6.71-5.53,11.53-8.29,14.52-8.29,2,0,3,1.09,3,3.29q0,5.53-14.64,23.42Q54.79,76,61.16,76q3,0,3,3.1,0,4.88-11.59,19.63m80.13-51.49q11.17-9.46,15.69-9.48c1.93,0,2.89.91,2.89,2.73,0,1.59-2.18,4.49-6.55,8.67s-6.55,6.71-6.55,7.59.49,1.33,1.47,1.4,1.46.31,1.46.71-1,.81-2.93.81c-2.25,0-3.37-1-3.37-3,0-1.67,1.08-3.8,3.26-6.38a85.22,85.22,0,0,1,6-6.13c2.18-2.07,3.26-3.32,3.26-3.75s-.25-.53-.74-.53q-2.31,0-10.08,6.18a98.57,98.57,0,0,0-9.59,8.42c-2.67,2.79-4.28,4.19-4.85,4.19a1.53,1.53,0,0,1-1.18-.62,2.11,2.11,0,0,1-.52-1.33q0-.94,5.6-7.55l6.72-7.94L122.3,49.69l-7.69,5.9q-5.86,4-9,4c-.35,0-.53-.16-.53-.48,0-.49.38-.81,1.14-1a16,16,0,0,0,3.62-1.22q3-1.29,12.12-8.7Q130.19,41.53,133.8,38a13.07,13.07,0,0,1,1.92-1.47,3.94,3.94,0,0,1,1.39-.25,2.49,2.49,0,0,1,1.4.48,1.32,1.32,0,0,1,.71,1.11c0,.48-2.17,3.62-6.51,9.39m-24-8.14q-2.39,0-9.91,7.16c-5,4.76-7.52,7.95-7.52,9.54,0,.74.35,1.1,1.06,1.1q2.31,0,9.93-7t7.62-9.45c0-.9-.39-1.34-1.18-1.34M88.48,51c-7.23,5.69-12.23,8.53-15,8.53-.32,0-.49-.18-.49-.52,0-.51.32-.8,1-.91q3.84-.6,10.58-5.89l5.24-4.11,8.41-6.71q5.77-4,9.88-4a3.09,3.09,0,0,1,3.42,3.06c1-1,1.79-1.52,2.19-1.52.9,0,1.35.36,1.35,1.1,0,1-2.09,3.85-6.23,8.71s-6.25,7.68-6.25,8.5c0,.57.44.86,1.35.88s1.33.27,1.33.7-.92.81-2.76.81-2.73-.8-2.73-2.39c0-1.28.74-3.1,2.2-5.46l-5,4.28c-2.47,1.84-4.44,2.76-5.89,2.76-2.34,0-3.5-1.18-3.5-3.54a11.52,11.52,0,0,1,.93-4.3m-4-12.94c0,2.9-2.14,6.31-6.43,10.2a47.3,47.3,0,0,1-16.26,9.57,55.45,55.45,0,0,1-18.57,3.2q-12.93,0-12.93-7.77,0-4.62,7.28-8.45a24.94,24.94,0,0,1,11.55-3.37c1.11,0,1.66.33,1.66,1,0,.47-.57.77-1.7.94a36.94,36.94,0,0,0-9.6,2.85Q33,49.13,33,52.66,33,57,43,57a53.49,53.49,0,0,0,17.52-3.25,48.86,48.86,0,0,0,15.65-8.49c3.95-3.36,5.94-5.88,5.94-7.56s-2.67-2.79-8-3.41q-13.26-1.56-14.83-1.93c-5.35-1.29-8-3.6-8-6.91q0-6.28,9.39-12A76.11,76.11,0,0,1,80.21,5.53c7-1.87,12.49-2.8,16.67-2.8,5.35,0,8,1.65,8,5q0,4.26-7.44,10-7.2,5.57-11.74,5.57c-2.44,0-3.66-.85-3.66-2.53q0-2.1,4.19-4.95,4-2.69,6.2-2.68c.51,0,.78.17.78.48L89,15.9q-4.19,2.3-4.35,3.33a.81.81,0,0,0,.7.29c1.94,0,5.16-1.3,9.63-3.9q7.11-4.14,7.11-6.82,0-2.36-5.68-2.36C92.09,6.44,86,7.69,78.1,10.17a111.1,111.1,0,0,0-14,5.37q-10.41,4.88-10.41,8.81c0,1.68,2.2,2.93,6.58,3.74L73.35,29.8Q81,31,82.64,33.14a8.3,8.3,0,0,1,1.84,5"/><path class="cls-2" d="M169,116.39a24.83,24.83,0,0,0-1.89,2.32,10.06,10.06,0,0,0-1.33,2.45c.32-.21.71-.48,1.14-.82a30.75,30.75,0,0,0,3-2.73,4.72,4.72,0,0,1-.41-.48,6.87,6.87,0,0,1-.5-.74m-95.26,7.53-.5.34q-7.16,4.9-10.94,4.9h0a3,3,0,0,1-2.35-1h0a3.11,3.11,0,0,1-.84-2.22h0a3.39,3.39,0,0,1,1.12-2.59,4,4,0,0,1,2.12-1l.18,0A12.71,12.71,0,0,0,66,120.86,46.64,46.64,0,0,0,71.7,117l5.23-4.09h0l8.41-6.71.13-.1.14-.09c.52-.36,1.05-.7,1.58-1s1.16-.69,1.66-1a17.2,17.2,0,0,1,8.07-2.4,6,6,0,0,1,4.18,1.47l.3.28a3.3,3.3,0,0,1,1.12-.21,4.12,4.12,0,0,1,2.72.89,3.56,3.56,0,0,1,1.35,2.93q0,1.59-2.07,4.47c-1.09,1.53-2.69,3.53-4.82,6h0c-1,1.21-1.94,2.28-2.68,3.19-.31.39-.61.75-.88,1.1.48-.17,1-.38,1.59-.62a40.29,40.29,0,0,0,4-2.65q3.12-2.27,7.66-5.8h0c2.48-1.93,4.35-3.41,5.63-4.43,1.45-1.18,2.44-2,3-2.47h0c.33-.29.61-.56.85-.79s.59-.58.89-.89.77-.8,1.17-1.24l-8.46.33h-.23a4.46,4.46,0,0,1-2.07-.48,3.05,3.05,0,0,1-1.73-2.88h0a3.09,3.09,0,0,1,2.21-3,10.1,10.1,0,0,1,2.13-.51h.06c.94-.15,2.09-.29,3.43-.42s3-.26,4.6-.37h.08l1.46-.09,1.37-.09c1.54-.11,2.82-.21,3.81-.31l5.11-6.1s0,0,.06-.08c1.58-1.86,2.87-3.29,3.86-4.27q2.2-2.16,3.81-2.16h0a3.7,3.7,0,0,1,3.05,1.43,4.43,4.43,0,0,1,.89,2.83q0,1.66-2.31,5.1c-.56.82-1.24,1.78-2,2.85h1.3a6.53,6.53,0,0,1,2.41.37,3.56,3.56,0,0,1,.93.53,3.1,3.1,0,0,1,1.26,2.55q0,2.53-3.22,3.32a24.51,24.51,0,0,1-3.85.49h-.22l-4.79.16-8.25,10.31h0q-4.22,5.49-6.31,8.74l-.7,1.12a13.05,13.05,0,0,0,1.82-.66,35.75,35.75,0,0,0,3.72-1.93l.16-.08a49.24,49.24,0,0,1,4.61-2.38,25.48,25.48,0,0,1,2.76-1,21.85,21.85,0,0,1,2.68-4.06,40.57,40.57,0,0,1,5.21-5.2l.06,0q6.94-5.92,12.31-5.93a6.3,6.3,0,0,1,4.2,1.34,5.17,5.17,0,0,1,1.77,4.15q0,5.13-8.15,10.19l-.11.06c-.42.27-.88.55-1.37.83s-1,.58-1.5.85a50.91,50.91,0,0,1-6.59,3,5.86,5.86,0,0,0,0,.61h0a2.36,2.36,0,0,0,0,.29,14.8,14.8,0,0,0,1.61.14h0l.57,0a3.54,3.54,0,0,1,.5.07l.4-.1.08,0h0l.58-.11.53-.12a10.05,10.05,0,0,0,2.25-.88.56.56,0,0,1,.17-.09l.67-.4c.39-.24.73-.45,1-.64q2.81-1.85,7.7-5.73l.09-.07,10.54-8.66h0l.16-.13.7-.61c.25-.21.51-.43.78-.64,1.66-1.35,3-2,4-2h0a5,5,0,0,1,2.28.57,10.63,10.63,0,0,1,1.12-.56,7.59,7.59,0,0,1,3-.67,5.29,5.29,0,0,1,4.06,1.61,5.78,5.78,0,0,1,1.41,4.09h0a13.38,13.38,0,0,1-2.14,6.61c-.22.38-.45.75-.68,1.1h0a48.45,48.45,0,0,1-5,6.18h0a40.91,40.91,0,0,1-7,6.21,12.13,12.13,0,0,1-6.62,2.38h0a6.65,6.65,0,0,1-5.07-1.93,7,7,0,0,1-1.78-4.75l-1.37,1-.1.07a41.35,41.35,0,0,1-6,3.59l-.15.07a12.35,12.35,0,0,1-5,1.3h0a3.2,3.2,0,0,1-.7-.07l-.37.09a22.85,22.85,0,0,1-4.29.31,8.41,8.41,0,0,1-5.74-1.82,6.29,6.29,0,0,1-2.08-3.64c-1,.52-2.14,1.16-3.45,1.93l-.23.12c-.49.27-.89.5-1.22.67s-.84.43-1.34.67a14.89,14.89,0,0,1-6.1,1.74h0a4,4,0,0,1-.61-.05,7.48,7.48,0,0,1-1.48.13v0h0a6.79,6.79,0,0,1-4.41-1.35,5.23,5.23,0,0,1-1.92-4.31h0a10.15,10.15,0,0,1,.4-2.64l-2.15,1.69-.17.12a44.67,44.67,0,0,1-6.93,4.61,14,14,0,0,1-6.17,1.79h0a3.14,3.14,0,0,1-.7-.07,11.93,11.93,0,0,1-2.36.2h0A5.54,5.54,0,0,1,87.46,128a4.53,4.53,0,0,1-1.32-2l-1,.63a10.74,10.74,0,0,1-5.34,1.82h0q-5.31,0-6.09-4.56ZM27.2,80.58h0Zm-5.64,26.3,5.82-5.75a3.14,3.14,0,0,1-.23-.53Zm4.5,20.49h0c-.08-.09-.19-.21-.3-.35h0a4.2,4.2,0,0,1-1.05-2.69h0q0-2.58,17.92-23.75h0q2.28-2.68,4.49-5.36l.12-.14c1.22-1.48,2.45-3,3.67-4.52q3.49-4.38,5.52-7.16-1.89,1.29-4.34,3.14h0q-1.08.79-2.22,1.71t-2.28,1.83q-6,4.94-12.8,11.38h0L18.4,117.66l-5.76,6.2,0,0c-.41.45-.83.9-1.27,1.36s-.73.78-1.1,1.16q-3.37,3.53-4.8,3.53h0a4.59,4.59,0,0,1-1.75-.37,7.78,7.78,0,0,1-1.32-.7h0l-.07,0h0l-.14-.1L2,128.57c-.18-.12-.32-.23-.42-.31l-.09-.09A3.82,3.82,0,0,1,0,125.26H0a4,4,0,0,1,.5-1.83,10.75,10.75,0,0,1,.77-1.25,147.06,147.06,0,0,1,9.62-11.49h0l19-21.38,0,0c1-1.14,1.82-2.16,2.54-3s1.55-1.91,2.22-2.78q1.71-2.2,2.81-3.76a78.74,78.74,0,0,0-6.86,5.09h0l-.12.09c-.62.51-1.26,1-1.92,1.63s-1.38,1.25-2.23,2q-6.09,5.71-15.28,15.94l-.18.17a7,7,0,0,1-1,.92,3.68,3.68,0,0,1-2.09.7h0a3.65,3.65,0,0,1-2.35-.77,3.21,3.21,0,0,1-1.25-2.64h0c0-1,.78-2.47,2.34-4.5Q8.45,95.86,12,91.8l.06-.06c.42-.48.91-1,1.48-1.63s1-1.1,1.62-1.7a129.65,129.65,0,0,1,10-9.11h0a67.15,67.15,0,0,1,9-6.49q4.26-2.43,7.22-2.43a5.51,5.51,0,0,1,4.26,1.71,6.15,6.15,0,0,1,1.47,4.3h0a13.92,13.92,0,0,1-1.68,5.8c1.07-.86,2.09-1.66,3-2.39q8.58-6.5,12.67-6.49a5.57,5.57,0,0,1,4.2,1.6,5.75,5.75,0,0,1,1.54,4.22h0a9,9,0,0,1-.39,2.46ZM50,100.25l.2-.21v0ZM66.49,81.58q4.1-3.67,7.5-6.37,9.75-7.71,14.64-7.72h0A6,6,0,0,1,93,69a5.69,5.69,0,0,1,1.67,4.32h0a11.51,11.51,0,0,1-.75,4c-.09.26-.18.47-.25.64a19.9,19.9,0,0,1-1.81,3.3l0,0h0q-.93,1.35-6.44,7.3t-15,16h0c-1.68,1.86-3.09,3.43-4.21,4.72s-2.4,2.76-3.56,4.13a98.25,98.25,0,0,0-7.2,9.19c1.74.43,2.6,1.44,2.6,3A3.43,3.43,0,0,1,55.71,129a7.15,7.15,0,0,1-3,.54h0v0a6.31,6.31,0,0,1-4.48-1.55,5.8,5.8,0,0,1-1.73-4.44h0c0-2.13.94-4.8,2.8-8,.44-.76.9-1.52,1.4-2.27A129.25,129.25,0,0,1,62.34,98.65h0l0-.05,1.71-1.86c.58-.63,1.27-1.36,2.07-2.21q5.09-5.37,13.52-13.87-2.25,1.77-4.93,4-5.15,4.28-9,7.72-3.69,3.27-6.32,5.9c-1.68,1.68-3.56,3.64-5.62,5.86s-4.47,4.87-7.19,7.93l0,0-3.77,4.21-3.21,3.6q-8.37,9.28-9.89,9.29a4.09,4.09,0,0,1-2-.53,6.24,6.24,0,0,1-1.34-1h0l-.06-.06ZM84.83,31.52l0,0ZM87.2,38.1h0a11.6,11.6,0,0,1-2,6.17c-.2.33-.42.65-.65,1a33.6,33.6,0,0,1-4.63,5.07l-.16.13c-.65.59-1.28,1.13-1.9,1.63s-1.49,1.18-2.17,1.67c-.93.67-1.89,1.31-2.89,1.91a4.68,4.68,0,0,1,.78-.19l.19,0A12.48,12.48,0,0,0,77.24,54,45.29,45.29,0,0,0,82.9,50.1L88.13,46h0l8.42-6.7.12-.1h0l.14-.09c.52-.36,1-.7,1.58-1s1.16-.69,1.66-1a17.19,17.19,0,0,1,8.06-2.4,6.07,6.07,0,0,1,4.18,1.46l.3.29a3.34,3.34,0,0,1,1.12-.21,4.15,4.15,0,0,1,2.73.89,3.58,3.58,0,0,1,1.35,2.93c0,1.06-.69,2.54-2.07,4.47q-1.64,2.28-4.83,6h0c-1,1.22-1.94,2.29-2.69,3.2-.36.44-.69.86-1,1.26.47-.17,1-.37,1.53-.62l.19-.08a28,28,0,0,0,3.86-2.47c2-1.41,4.45-3.33,7.47-5.78h0l0,0h0l.1-.08,2.07-1.69c.34-.28,1-.84,2-1.67q4.92-4.09,7.42-6.54h0a1.71,1.71,0,0,1,.25-.22l.05-.05.28-.25a21.84,21.84,0,0,1,1.78-1.29,2.51,2.51,0,0,1,.57-.28,6.35,6.35,0,0,1,1.1-.3,6.48,6.48,0,0,1,1.19-.12h0v0a4.9,4.9,0,0,1,1.56.25l.23.09a5.17,5.17,0,0,1,1.12.58h0a1.94,1.94,0,0,1,.29.21l.08.07c.16.13.3.25.4.35a3.82,3.82,0,0,1,1.1,2.08,14.1,14.1,0,0,1,6.51-2.13v0a5.64,5.64,0,0,1,4,1.43,5.23,5.23,0,0,1,1.58,4h0a7.62,7.62,0,0,1-1.49,4c-.17.26-.4.57-.67.94a48.74,48.74,0,0,1-5.23,5.66h0c-2.09,2-3.65,3.6-4.68,4.79h0a3,3,0,0,1,1.91,2.92h0a3,3,0,0,1,0,.42,3.22,3.22,0,0,1-2.69,2.8,11.11,11.11,0,0,1-2.91.31h0A6.26,6.26,0,0,1,133.85,61a5.45,5.45,0,0,1-1.76-4.29,9.06,9.06,0,0,1,1.12-4.09l.27-.5-.8.69q-2.28,2-3.78,3.58-2.09,2.18-3.4,3.32a5.64,5.64,0,0,1-3.41,1.72,4.14,4.14,0,0,1-3.24-1.57.21.21,0,0,0-.06-.08h0a5.13,5.13,0,0,1-.79-1.35,4.32,4.32,0,0,1-.34-1.69v0l-1.4,1.07-.27.19a37.77,37.77,0,0,1-5.46,3.12h0a12.35,12.35,0,0,1-4.91,1.23h0a4.21,4.21,0,0,1-.73-.07,12.11,12.11,0,0,1-2.37.2h0a5.56,5.56,0,0,1-3.84-1.29,4.51,4.51,0,0,1-1.31-2c-.32.22-.65.43-1,.62A10.6,10.6,0,0,1,91,61.59h0C87.5,61.6,85.48,60.08,85,57l-.49.35q-7.15,4.9-10.95,4.9h0a3.08,3.08,0,0,1-2.36-1h0a3.22,3.22,0,0,1-.84-2.22h0a3.39,3.39,0,0,1,1.13-2.59l0,0a55.08,55.08,0,0,1-8.75,4l-.15,0c-.89.31-1.73.59-2.54.83s-1.74.51-2.68.74a57.43,57.43,0,0,1-14.12,1.75h0q-7.23,0-11.09-2.33a8.92,8.92,0,0,1-4.56-8.15h0q0-6.26,8.74-10.85l.13-.07q.87-.46,1.74-.87c.66-.3,1.27-.58,1.84-.8a24.23,24.23,0,0,1,9.1-2,5,5,0,0,1,2.65.65,3.39,3.39,0,0,1,1.74,3.08,3.19,3.19,0,0,1-1.84,3,6.49,6.49,0,0,1-2.2.67l-.16,0a33.3,33.3,0,0,0-4.35,1,34.92,34.92,0,0,0-4.38,1.62h0a13.82,13.82,0,0,0-4.06,2.47,2.17,2.17,0,0,0-.81,1.43c0,.24.28.48.85.72a17.69,17.69,0,0,0,6.47.85h0a44,44,0,0,0,8-.77l1.36-.27a60.33,60.33,0,0,0,7.28-2.06,55.91,55.91,0,0,0,8.29-3.61,38.22,38.22,0,0,0,6.5-4.39h0c.52-.44,1-.87,1.46-1.29s.87-.81,1.21-1.17c1.53-1.54,2.3-2.56,2.3-3s-.12.51-.34.41A20.8,20.8,0,0,0,73.8,37c-4.07-.49-7.51-.91-10.37-1.28-2.63-.34-4.23-.58-4.79-.71l-.22-.06a16.87,16.87,0,0,1-6.94-3.23,8,8,0,0,1-2.94-6.27h0a12.47,12.47,0,0,1,2.92-7.81c.33-.42.65-.8,1-1.14a30.91,30.91,0,0,1,6.75-5.33h0a1.71,1.71,0,0,1,.23-.13c.77-.47,1.5-.88,2.18-1.26s1.63-.85,2.51-1.27A89.56,89.56,0,0,1,79.51,2.9h0c.91-.24,1.87-.48,2.89-.73s1.95-.48,2.74-.65A56.69,56.69,0,0,1,96.88,0h0q10.74,0,10.73,7.67h0a10.61,10.61,0,0,1-2.39,6.26,32.29,32.29,0,0,1-6.09,5.93h0a39.94,39.94,0,0,1-7,4.48A15.12,15.12,0,0,1,85.71,26h0v0a7.44,7.44,0,0,1-4.29-1.11,4.72,4.72,0,0,1-2.08-4.12h0a6.31,6.31,0,0,1,1.69-4,18.57,18.57,0,0,1,3.69-3.15l0,0h0l.1-.06,1.06-.68c.45-.28.82-.5,1.13-.66l.21-.11a11.38,11.38,0,0,1,5.21-1.62h0a3.82,3.82,0,0,1,2,.54,3,3,0,0,1,1.09,1.13,19.62,19.62,0,0,0,2.9-2.21q.33-.32.54-.54a13,13,0,0,0-2.55-.2v0h0a37.32,37.32,0,0,0-7.29.87,102.08,102.08,0,0,0-10.22,2.73h0l-2.17.69-2.07.72A98.66,98.66,0,0,0,65.27,18l-.15.07c-.83.39-1.65.8-2.45,1.23s-1.45.8-2.15,1.22l-.18.11Q56.43,23,56.43,24.35c0,.17,1.43.52,4.28,1l13,1.71h0a35.72,35.72,0,0,1,6.66,1.54h0a9.34,9.34,0,0,1,4.4,2.84l0,.07a13.12,13.12,0,0,1,1.72,3.13,9.83,9.83,0,0,1,.63,3.42Z"/><path class="cls-1" d="M171.11,110.58q-8.28,7.24-8.28,11.79c0,1.3.62,2,1.87,2,2,0,5.19-2.46,9.51-7.37a4.07,4.07,0,0,1-3.42-4.39,7,7,0,0,1,.32-2m4,5.08a19.34,19.34,0,0,0,3-3.86,9.7,9.7,0,0,0,1.67-4.48c0-1-.44-1.54-1.34-1.54q-2,0-4,2.49a7.56,7.56,0,0,0-2,4.54c0,1.53.88,2.47,2.67,2.85m-13.77-.07L152.94,122c-4.28,3-7.47,4.47-9.6,4.47a.44.44,0,0,1-.48-.49.89.89,0,0,1,.82-.94,13.27,13.27,0,0,0,4.21-1.43,82,82,0,0,0,9.93-7.1l10.74-8.83c2.05-1.82,3.31-2.72,3.77-2.72a3.46,3.46,0,0,1,2.25,1.14,7.18,7.18,0,0,1,4.18-1.79c1.84,0,2.76,1,2.76,3q0,4.43-7.08,12.07t-11.61,7.73c-2.76,0-4.15-1.46-4.15-4.36,0-1.51.87-3.88,2.64-7.1m-23,2a49.18,49.18,0,0,0,7.9-4.95c3.68-2.74,5.52-4.9,5.52-6.51,0-.65-.29-1-.89-1q-2.64,0-7.2,4.88a27.44,27.44,0,0,0-5.33,7.55M133,119.85c-1.36.32-3.92,1.56-7.65,3.74-3.3,1.91-5.81,2.85-7.52,2.85-.32,0-.48-.18-.48-.53s.34-.79,1-.9a23.42,23.42,0,0,0,7-3,31.91,31.91,0,0,1,8.09-3.58q1.86-4.52,7.72-9.47,6.23-5.33,10.61-5.32c2.17,0,3.25.91,3.25,2.76q0,3.61-6.87,7.88a48.75,48.75,0,0,1-10.32,5,6.77,6.77,0,0,0-.57,2.72,2.7,2.7,0,0,0,1.47,2.78,10.19,10.19,0,0,0,2.76.36c1,0,1.47.26,1.47.7,0,.67-1.66,1-5,1-3.52,0-5.29-1.53-5.29-4.6a10,10,0,0,1,.3-2.31m-6.09-20-14.62.57c-.82,0-1.22-.22-1.22-.65s.66-.61,2-.81c1.86-.3,4.5-.55,7.89-.77,3.75-.23,6.41-.43,7.92-.61l5.82-7c3.12-3.69,5-5.53,5.64-5.53.82,0,1.22.51,1.22,1.54s-2.47,4.75-7.39,11c2.84-.2,5.2-.3,7.06-.3,1.25,0,1.88.25,1.88.74s-1.5.9-4.52,1.1l-6.17.21-9.08,11.33c-5.72,7.46-8.57,11.89-8.57,13.34,0,.68.46,1,1.39,1s1.37.23,1.37.67-.6.77-1.79.77c-2.4,0-3.61-1-3.61-2.93,0-1.54.79-3.76,2.36-6.63L118,111,106,120.5c-5,4-8.86,5.94-11.58,5.94-.32,0-.49-.18-.49-.53s.28-.76.82-.9a27.16,27.16,0,0,0,4.18-1.43q2.72-1.41,12.12-8.77,7-5.41,8.75-7a68,68,0,0,0,7.14-7.88M97.48,106q-2.4,0-9.91,7.16t-7.52,9.55c0,.73.35,1.1,1,1.1q2.31,0,9.94-7t7.62-9.45c0-.9-.39-1.35-1.18-1.35M77.27,117.91q-10.84,8.52-14.95,8.53c-.32,0-.49-.18-.49-.53s.32-.79,1-.9q3.83-.62,10.57-5.9L78.62,115,87,108.3c3.84-2.65,7.15-4,9.88-4a3.08,3.08,0,0,1,3.41,3.05c1.06-1,1.79-1.51,2.19-1.51.91,0,1.35.36,1.35,1.1q0,1.42-6.23,8.71t-6.24,8.49c0,.57.44.86,1.34.89s1.34.26,1.34.7-.92.81-2.77.81-2.72-.8-2.72-2.4c0-1.27.74-3.09,2.2-5.45l-5,4.27q-3.7,2.77-5.9,2.77-3.5,0-3.5-3.54a11.72,11.72,0,0,1,.93-4.3M52.58,98.75Q80.73,70.22,88.63,70.21c2.2,0,3.29,1,3.29,3.14a12,12,0,0,1-2.36,6.42q-1.74,2.52-21.27,23Q52,120.81,52,123.92c0,.74.53,1.15,1.6,1.23s1.58.25,1.58.48c0,.77-.83,1.14-2.49,1.14q-3.49,0-3.49-3.29,0-6.14,15.17-23.06,5.32-5.94,20.16-20.82,5-5.05,5-7.07a.69.69,0,0,0-.77-.78Q86,71.75,73,82.57,62.61,91.24,57.5,96.35q-4.92,4.92-12.93,13.91Q30.16,126.48,29.7,126.48a2.39,2.39,0,0,1-1.46-.78,2.09,2.09,0,0,1-.83-1.37q0-1.59,17.28-22T62,78.67a.73.73,0,0,0-.82-.82q-2.07,0-10.73,6.51A202.08,202.08,0,0,0,32.91,99.49L16.43,115.8,10.66,122q-4.83,5.2-5.2,5.2a3.21,3.21,0,0,1-1.63-.65c-.73-.46-1.09-.9-1.09-1.3q0-1.33,10.2-12.77L32,91.11q10.19-12,10.2-14.89a.93.93,0,0,0-1.06-1.06q-2.94,0-12.2,7.53Q22,88.35,9.12,102.62c-.54.6-1,.89-1.3.89-.6,0-.89-.23-.89-.69,0-.71,2.37-3.77,7.12-9.23a113.89,113.89,0,0,1,12.83-12.2c6.71-5.53,11.53-8.29,14.52-8.29,2,0,3,1.09,3,3.29q0,5.53-14.64,23.42Q54.79,76,61.16,76q3,0,3,3.1,0,4.88-11.59,19.63m80.13-51.49q11.17-9.46,15.69-9.48c1.93,0,2.89.91,2.89,2.73,0,1.59-2.18,4.49-6.55,8.67s-6.55,6.71-6.55,7.59.49,1.33,1.47,1.4,1.46.31,1.46.71-1,.81-2.93.81c-2.25,0-3.37-1-3.37-3,0-1.67,1.08-3.8,3.26-6.38a85.22,85.22,0,0,1,6-6.13c2.18-2.07,3.26-3.32,3.26-3.75s-.25-.53-.74-.53q-2.31,0-10.08,6.18a98.57,98.57,0,0,0-9.59,8.42c-2.67,2.79-4.28,4.19-4.85,4.19a1.53,1.53,0,0,1-1.18-.62,2.11,2.11,0,0,1-.52-1.33q0-.94,5.6-7.55l6.72-7.94L122.3,49.69l-7.69,5.9q-5.86,4-9,4c-.35,0-.53-.16-.53-.48,0-.49.38-.81,1.14-1a16,16,0,0,0,3.62-1.22q3-1.29,12.12-8.7Q130.19,41.53,133.8,38a13.07,13.07,0,0,1,1.92-1.47,3.94,3.94,0,0,1,1.39-.25,2.49,2.49,0,0,1,1.4.48,1.32,1.32,0,0,1,.71,1.11c0,.48-2.17,3.62-6.51,9.39m-24-8.14q-2.39,0-9.91,7.16c-5,4.76-7.52,7.95-7.52,9.54,0,.74.35,1.1,1.06,1.1q2.31,0,9.93-7t7.62-9.45c0-.9-.39-1.34-1.18-1.34M88.48,51c-7.23,5.69-12.23,8.53-15,8.53-.32,0-.49-.18-.49-.52,0-.51.32-.8,1-.91q3.84-.6,10.58-5.89l5.24-4.11,8.41-6.71q5.77-4,9.88-4a3.09,3.09,0,0,1,3.42,3.06c1-1,1.79-1.52,2.19-1.52.9,0,1.35.36,1.35,1.1,0,1-2.09,3.85-6.23,8.71s-6.25,7.68-6.25,8.5c0,.57.44.86,1.35.88s1.33.27,1.33.7-.92.81-2.76.81-2.73-.8-2.73-2.39c0-1.28.74-3.1,2.2-5.46l-5,4.28c-2.47,1.84-4.44,2.76-5.89,2.76-2.34,0-3.5-1.18-3.5-3.54a11.52,11.52,0,0,1,.93-4.3m-4-12.94c0,2.9-2.14,6.31-6.43,10.2a47.3,47.3,0,0,1-16.26,9.57,55.45,55.45,0,0,1-18.57,3.2q-12.93,0-12.93-7.77,0-4.62,7.28-8.45a24.94,24.94,0,0,1,11.55-3.37c1.11,0,1.66.33,1.66,1,0,.47-.57.77-1.7.94a36.94,36.94,0,0,0-9.6,2.85Q33,49.13,33,52.66,33,57,43,57a53.49,53.49,0,0,0,17.52-3.25,48.86,48.86,0,0,0,15.65-8.49c3.95-3.36,5.94-5.88,5.94-7.56s-2.67-2.79-8-3.41q-13.26-1.56-14.83-1.93c-5.35-1.29-8-3.6-8-6.91q0-6.28,9.39-12A76.11,76.11,0,0,1,80.21,5.53c7-1.87,12.49-2.8,16.67-2.8,5.35,0,8,1.65,8,5q0,4.26-7.44,10-7.2,5.57-11.74,5.57c-2.44,0-3.66-.85-3.66-2.53q0-2.1,4.19-4.95,4-2.69,6.2-2.68c.51,0,.78.17.78.48L89,15.9q-4.19,2.3-4.35,3.33a.81.81,0,0,0,.7.29c1.94,0,5.16-1.3,9.63-3.9q7.11-4.14,7.11-6.82,0-2.36-5.68-2.36C92.09,6.44,86,7.69,78.1,10.17a111.1,111.1,0,0,0-14,5.37q-10.41,4.88-10.41,8.81c0,1.68,2.2,2.93,6.58,3.74L73.35,29.8Q81,31,82.64,33.14a8.3,8.3,0,0,1,1.84,5"/><path class="cls-4" d="M5.46,127.5a3.41,3.41,0,0,1-1.78-.7c-.81-.51-1.23-1-1.23-1.54s0-1.45,10.28-13l19-21.38C38.48,83,41.89,78,41.89,76.22c0-.55-.22-.77-.77-.77-1.88,0-5.92,2.51-12,7.46-4.63,3.77-11.28,10.47-19.77,19.9-.61.68-1.09,1-1.51,1-1.06,0-1.17-.69-1.17-1,0-.54.81-2.09,7.18-9.41A115,115,0,0,1,26.7,81.17c6.82-5.62,11.62-8.36,14.7-8.36,2.15,0,3.29,1.24,3.29,3.58,0,3.44-4,10.11-12.09,20.35,15.11-14.12,24.46-21,28.56-21,2.15,0,3.29,1.17,3.29,3.38,0,2.94-2.93,8.28-8.93,16.27,17.18-17.12,28-25.46,33.11-25.46,2.34,0,3.58,1.18,3.58,3.42a12.22,12.22,0,0,1-2.41,6.58c-1.16,1.67-8.13,9.21-21.31,23-13.36,14.82-16.17,19.57-16.17,20.94,0,.23,0,.84,1.34,1s1.84.32,1.84.76c0,1-.93,1.43-2.77,1.43-2.47,0-3.78-1.24-3.78-3.58,0-4.21,5-11.81,15.24-23.25,3.54-3.94,10.32-10.94,20.18-20.83,4.09-4.11,4.95-6,4.95-6.87,0-.36-.14-.5-.49-.5C87.6,72,83.89,73.9,73.2,82.79c-6.87,5.72-12.09,10.35-15.5,13.76s-7.49,7.81-12.91,13.9c-14.52,16.31-14.85,16.31-15.09,16.31a2.6,2.6,0,0,1-1.65-.85,2.31,2.31,0,0,1-.92-1.58c0-.73,1.79-3.83,17.34-22.18C55.9,88.66,61.69,80.76,61.69,78.67c0-.38-.15-.53-.53-.53-.91,0-3.47,1.12-10.56,6.45A203,203,0,0,0,33.1,99.7L16.63,116l-5.76,6.2C6,127.5,5.68,127.5,5.46,127.5ZM41.12,74.88a1.21,1.21,0,0,1,1.34,1.34c0,2-3.36,6.92-10.27,15.07l-19,21.39C4.34,122.55,3,124.8,3,125.26c0,.3.34.68,1,1.06a3,3,0,0,0,1.48.61,58.68,58.68,0,0,0,5-5.11l5.78-6.22L32.71,99.29A204.12,204.12,0,0,1,50.26,84.14c5.87-4.42,9.43-6.57,10.9-6.57a1,1,0,0,1,1.1,1.1c0,2.26-5.68,10.06-17.36,23.85-15,17.67-17.21,21.25-17.21,21.81a1.88,1.88,0,0,0,.75,1.16,2.29,2.29,0,0,0,1.2.7c.43-.32,3-2.93,14.72-16.12C49.79,104,54,99.42,57.3,96.15c3.42-3.42,8.65-8.06,15.54-13.79,8.81-7.33,14-10.89,16-10.89a1,1,0,0,1,1.06,1.06c0,1.44-1.68,3.82-5.12,7.27-9.85,9.88-16.63,16.88-20.15,20.81-10,11.17-15.1,18.87-15.1,22.87,0,2,1,3,3.21,3,1.42,0,2.16-.27,2.2-.81a3.39,3.39,0,0,0-1.32-.25c-1.53-.12-1.86-.88-1.86-1.51,0-2.17,5.34-9.15,16.33-21.33,13.16-13.82,20.11-21.34,21.25-23a11.71,11.71,0,0,0,2.31-6.26c0-1.95-1-2.86-3-2.86-5.15,0-17.21,9.58-35.85,28.46l-.42-.37C60,88.85,63.88,82.3,63.88,79.12c0-1.92-.86-2.81-2.72-2.81-4.16,0-14.65,8-31.2,23.7l-.41-.38C39.22,87.81,44.13,80,44.13,76.39c0-2.06-.87-3-2.73-3-2.9,0-7.72,2.77-14.34,8.23a113.75,113.75,0,0,0-12.8,12.17c-6.13,7-7,8.69-7,9,0,.15,0,.41.61.41.13,0,.46-.1,1.09-.8,8.51-9.46,15.18-16.17,19.83-20C35,77.36,39.08,74.88,41.12,74.88Zm121.71,52.45c-2.94,0-4.43-1.56-4.43-4.64,0-1.38.69-3.42,2.06-6.09l-7.34,5.59c-4.38,3-7.57,4.53-9.78,4.53a.75.75,0,0,1-.59-.24c-.74.39-2.27.56-4.77.56-3.69,0-5.57-1.64-5.57-4.88a10.34,10.34,0,0,1,.2-1.91,42.91,42.91,0,0,0-7.13,3.59c-3.31,1.91-5.89,2.88-7.66,2.88a.79.79,0,0,1-.54-.19,3.44,3.44,0,0,1-1.56.28c-3.22,0-3.89-1.75-3.89-3.22s.8-3.86,2.39-6.76l2.76-4.64-10.84,8.53c-5.12,4-9,6-11.76,6a.75.75,0,0,1-.58-.23,6.29,6.29,0,0,1-2.5.35c-2.48,0-3-1.45-3-2.68A9.48,9.48,0,0,1,89.7,120l-3.78,3.21c-2.52,1.88-4.56,2.83-6.08,2.83-2.47,0-3.78-1.32-3.78-3.82a11,11,0,0,1,.61-3.47c-6.92,5.37-11.62,8-14.35,8a.74.74,0,0,1-.78-.81c0-.44.21-1,1.21-1.18,2.49-.4,6-2.36,10.45-5.84l5.25-4.11,8.4-6.7c3.9-2.69,7.28-4,10.06-4a3.29,3.29,0,0,1,3.61,2.76c1.2-1.09,1.71-1.22,2-1.22,1.35,0,1.64.75,1.64,1.38s-.66,2.28-6.3,8.9c-5.38,6.24-6.18,7.88-6.18,8.3,0,.16,0,.57,1.07.61a2.39,2.39,0,0,1,1.23.29,1.74,1.74,0,0,1,.67-.33,26.18,26.18,0,0,0,4.14-1.41c1.76-.92,5.72-3.78,12.06-8.74,4.57-3.55,7.51-5.92,8.73-7a65.34,65.34,0,0,0,6.72-7.36l-14,.54c-1.26,0-1.52-.5-1.52-.93s.65-.85,2.24-1.09c1.78-.29,4.37-.54,7.91-.78s6.24-.41,7.79-.59l5.75-6.87c4.22-5,5.35-5.63,5.86-5.63.69,0,1.51.31,1.51,1.82,0,.73-.75,2.64-7.06,10.62,2.56-.17,4.72-.25,6.44-.25.53,0,2.16,0,2.16,1,0,.56-.58,1.11-4.78,1.38l-6.05.21-9,11.23C117.9,118.24,115,122.67,115,124c0,.22,0,.74,1.11.75a2.46,2.46,0,0,1,1.29.29,2,2,0,0,1,.92-.35,23,23,0,0,0,6.89-3,32.6,32.6,0,0,1,8-3.57c1.25-3,3.86-6.15,7.73-9.44,4.19-3.58,7.82-5.4,10.8-5.4s3.53,1.66,3.53,3c0,2.53-2.29,5.19-7,8.12a49,49,0,0,1-10.26,4.94,6.59,6.59,0,0,0-.5,2.49,2.44,2.44,0,0,0,1.31,2.52,10,10,0,0,0,2.65.34,2.65,2.65,0,0,1,1.38.31,1.35,1.35,0,0,1,.71-.35,13,13,0,0,0,4.13-1.4,82.27,82.27,0,0,0,9.89-7.08l10.74-8.82c2.79-2.47,3.58-2.78,4-2.78a3.56,3.56,0,0,1,2.27,1,7.21,7.21,0,0,1,4.16-1.71c2,0,3,1.13,3,3.26,0,3-2.34,7.07-7.15,12.26S165.85,127.33,162.83,127.33Zm-1.69-12,.42.36c-1.72,3.15-2.6,5.5-2.6,7,0,2.74,1.27,4.07,3.87,4.07,2.86,0,6.69-2.57,11.4-7.63s7-9,7-11.88c0-1.84-.78-2.69-2.47-2.69a7,7,0,0,0-4,1.73l-.19.15-.17-.17a3.27,3.27,0,0,0-2.06-1.06c-.14,0-.8.19-3.58,2.65L158,116.69a83.41,83.41,0,0,1-10,7.14,13.7,13.7,0,0,1-4.3,1.46.69.69,0,0,0-.48.25.71.71,0,0,1,0,.21.75.75,0,0,1-.1.36s.08,0,.16,0c2.06,0,5.23-1.48,9.44-4.41Zm-27.77,4.11-.11.44a10.08,10.08,0,0,0-.28,2.25c0,2.9,1.64,4.31,5,4.31s4.29-.33,4.6-.55a1.32,1.32,0,0,1,0-.34,2.19,2.19,0,0,0-1.11-.25,10.76,10.76,0,0,1-2.85-.37,3,3,0,0,1-1.66-3,7.06,7.06,0,0,1,.6-2.83l.05-.11.12,0A49,49,0,0,0,148,114c4.47-2.78,6.74-5.35,6.74-7.64,0-1.69-.94-2.48-3-2.48-2.84,0-6.35,1.77-10.43,5.26-3.87,3.28-6.43,6.43-7.64,9.36l0,.13-.14,0a31.77,31.77,0,0,0-8,3.54,23.83,23.83,0,0,1-7.08,3.08,1.23,1.23,0,0,0-.67.25,1.25,1.25,0,0,1,0,.21.86.86,0,0,1-.09.39h.12c1.67,0,4.15-.94,7.38-2.8,3.73-2.18,6.33-3.45,7.72-3.78Zm-42.78-1,.43.37c-1.43,2.31-2.15,4.1-2.15,5.3,0,1.45.77,2.12,2.43,2.12a5,5,0,0,0,2.31-.33v0a1.18,1.18,0,0,1,0-.37,1.89,1.89,0,0,0-.94-.21c-1.34,0-1.62-.66-1.62-1.17s.66-2.1,6.32-8.67c5.09-6,6.16-7.94,6.16-8.53,0-.41-.13-.82-1.07-.82-.15,0-.64.14-2,1.44l-.41.39-.07-.56a2.82,2.82,0,0,0-3.13-2.81c-2.66,0-5.93,1.33-9.72,3.93l-8.39,6.7-5.25,4.11c-4.58,3.59-8.09,5.53-10.71,6-.64.11-.73.37-.73.62s.08.24.21.24c2.66,0,7.63-2.85,14.78-8.47l.83-.65-.39,1a11.31,11.31,0,0,0-.91,4.2c0,2.19,1.05,3.25,3.21,3.25,1.4,0,3.32-.91,5.73-2.7Zm27.24-7.69.42.37-3.53,5.94c-1.54,2.81-2.33,5-2.33,6.48,0,1.78,1.09,2.65,3.33,2.65a3.11,3.11,0,0,0,1.34-.23.34.34,0,0,1,0-.1,1,1,0,0,1,.06-.36,2.17,2.17,0,0,0-1-.19c-1.45,0-1.67-.84-1.67-1.32,0-1.52,2.83-5.94,8.64-13.51l9.16-11.44,6.3-.22c4.19-.27,4.24-.8,4.24-.81,0-.28-.59-.45-1.59-.45-1.85,0-4.22.1-7,.29l-.64,0,.4-.5c6.06-7.62,7.33-10.06,7.33-10.77,0-1.12-.5-1.26-.94-1.26-.25,0-1.28.53-5.43,5.44l-5.89,7h-.11c-1.54.18-4.29.39-7.94.61s-6.09.48-7.85.77-1.76.52-1.76.53c0,.24.32.37.94.37l15.23-.59-.39.48A67,67,0,0,1,120,108c-1.23,1.11-4.18,3.49-8.76,7-6.37,5-10.36,7.86-12.17,8.8a26.25,26.25,0,0,1-4.25,1.45,1,1,0,0,0-.45.23,1,1,0,0,1,0,.24.7.7,0,0,1-.11.38.3.3,0,0,0,.14,0c2.63,0,6.47-2,11.41-5.87Zm46.87,13.81a2,2,0,0,1-2.16-2.24c0-3.15,2.75-7.08,8.39-12l.74-.64-.29.94a6.86,6.86,0,0,0-.3,1.91,3.79,3.79,0,0,0,3.19,4.12l.46.1-.31.36C170,122.17,166.83,124.61,164.7,124.61Zm5.92-13.22c-5,4.48-7.51,8.17-7.51,11,0,1.14.51,1.67,1.59,1.67,1.88,0,4.91-2.33,9-6.93a4.29,4.29,0,0,1-3.18-4.54A7.1,7.1,0,0,1,170.62,111.39ZM81.11,124.07a1.22,1.22,0,0,1-1.34-1.38c0-1.69,2.49-4.88,7.6-9.75s8.42-7.24,10.11-7.24c.54,0,1.46.21,1.46,1.63,0,1.73-2.52,4.89-7.71,9.66S82.74,124.07,81.11,124.07Zm16.37-17.8c-1.51,0-4.78,2.38-9.71,7.08-6.15,5.84-7.44,8.3-7.44,9.34,0,.58.23.82.78.82,1,0,3.51-1.21,9.74-6.94s7.52-8.18,7.52-9.24S97.92,106.27,97.48,106.27Zm40.32,11.88.28-.69a27.83,27.83,0,0,1,5.38-7.63c3.12-3.35,5.55-5,7.41-5a1.1,1.1,0,0,1,1.18,1.26c0,1.71-1.85,3.91-5.64,6.73a49.18,49.18,0,0,1-7.94,5Zm13.07-12.73c-1.67,0-4,1.61-7,4.8a30,30,0,0,0-4.95,6.74,50.14,50.14,0,0,0,7.14-4.57c3.59-2.67,5.41-4.78,5.41-6.28C151.48,105.54,151.24,105.42,150.87,105.42ZM175.18,116l-.14,0c-1.93-.4-2.91-1.45-2.91-3.12a7.9,7.9,0,0,1,2.08-4.72c1.39-1.72,2.81-2.6,4.22-2.6.74,0,1.62.32,1.62,1.83a9.77,9.77,0,0,1-1.7,4.62,19.29,19.29,0,0,1-3.06,3.92Zm3.25-9.9c-1.23,0-2.5.81-3.78,2.39a7.37,7.37,0,0,0-2,4.36c0,1.34.76,2.17,2.31,2.54a19.09,19.09,0,0,0,2.85-3.7,9.41,9.41,0,0,0,1.62-4.33C179.48,106.21,179,106.06,178.43,106.06ZM43.22,61.35C34.45,61.35,30,58.64,30,53.3c0-3.18,2.51-6.11,7.44-8.7a25.32,25.32,0,0,1,11.68-3.41c1.61,0,2,.71,2,1.3,0,.84-1.11,1.1-2,1.22a37.07,37.07,0,0,0-9.53,2.83c-4.21,1.84-6.34,3.9-6.34,6.12,0,2.67,3.28,4,9.76,4a53.57,53.57,0,0,0,17.42-3.23A48.86,48.86,0,0,0,76,45c3.87-3.29,5.83-5.76,5.83-7.34,0-1-1.34-2.38-7.75-3.13-9-1.05-13.81-1.69-14.87-1.94C53.75,31.28,51,28.86,51,25.41c0-4.28,3.21-8.39,9.54-12.23A76.33,76.33,0,0,1,80.14,5.26C87.06,3.4,92.69,2.45,96.88,2.45c5.5,0,8.29,1.76,8.29,5.24,0,3-2.47,6.31-7.55,10.27-4.83,3.73-8.84,5.62-11.91,5.62-3.26,0-3.95-1.53-3.95-2.81,0-1.51,1.41-3.21,4.32-5.18,2.68-1.82,4.82-2.73,6.36-2.73,1,0,1.06.53,1.06.76v.17l-4.34,2.36c-3.15,1.73-4,2.59-4.16,3a.65.65,0,0,0,.38.09c1.88,0,5.07-1.3,9.49-3.86,4.62-2.69,7-4.91,7-6.58,0-1.38-1.82-2.08-5.4-2.08C92.16,6.72,86,8,78.19,10.44a111.62,111.62,0,0,0-14,5.35C57.44,19,54,21.86,54,24.35c0,1.52,2.14,2.68,6.35,3.46l13,1.71c5.22.79,8.32,1.91,9.49,3.44a8.74,8.74,0,0,1,1.89,5.14c0,3-2.19,6.48-6.52,10.41a47.7,47.7,0,0,1-16.36,9.62A55.66,55.66,0,0,1,43.22,61.35Zm5.9-19.59A24.73,24.73,0,0,0,37.71,45.1c-4.74,2.49-7.14,5.25-7.14,8.2,0,5,4.26,7.49,12.65,7.49A55.33,55.33,0,0,0,61.69,57.6a47.17,47.17,0,0,0,16.17-9.51c4.2-3.81,6.33-7.18,6.33-10a8.2,8.2,0,0,0-1.77-4.8c-1.06-1.38-4.12-2.47-9.11-3.22L60.25,28.37c-4.6-.85-6.82-2.16-6.82-4,0-2.77,3.46-5.74,10.57-9.07A112.72,112.72,0,0,1,78,9.9c7.89-2.49,14.09-3.75,18.42-3.75,4,0,6,.89,6,2.65S100,13,95.15,15.87c-4.57,2.65-7.76,3.94-9.77,3.94a1.05,1.05,0,0,1-.92-.41l-.08-.09,0-.12c.08-.51.64-1.43,4.49-3.54l4-2.15a.83.83,0,0,0-.42-.08c-1.43,0-3.46.89-6,2.64s-4.07,3.42-4.07,4.71c0,1.51,1.11,2.25,3.38,2.25,2.94,0,6.83-1.86,11.57-5.51s7.32-7.09,7.32-9.82c0-3.15-2.52-4.67-7.72-4.67C92.74,3,87.16,4,80.29,5.81a76.12,76.12,0,0,0-19.48,7.85c-6.14,3.73-9.26,7.68-9.26,11.75,0,3.15,2.62,5.38,7.79,6.63,1,.25,5.88.88,14.8,1.92,5.56.65,8.26,1.86,8.26,3.7s-2,4.33-6,7.78A49.31,49.31,0,0,1,60.62,54,54,54,0,0,1,43,57.25c-6.95,0-10.33-1.5-10.33-4.59,0-2.47,2.25-4.7,6.68-6.64A37.76,37.76,0,0,1,49,43.15c.94-.14,1.47-.38,1.47-.66S50.5,41.76,49.12,41.76ZM138.19,60c-3,0-3.66-1.79-3.66-3.3,0-1.74,1.12-4,3.33-6.56,1.12-1.34,3.15-3.41,6-6.16s3.17-3.41,3.17-3.54,0-.24-.45-.24c-1.46,0-4.8,2-9.91,6.11a99,99,0,0,0-9.56,8.4c-3.6,3.77-4.57,4.28-5,4.28a1.82,1.82,0,0,1-1.39-.73,2.36,2.36,0,0,1-.6-1.51c0-.51.68-1.82,5.68-7.73l4.75-5.63-8,6.54-7.69,5.9c-4,2.73-7,4-9.17,4a.85.85,0,0,1-.62-.22,6.45,6.45,0,0,1-2.49.35c-2.49,0-3-1.46-3-2.68a9.43,9.43,0,0,1,1.41-4.18l-3.79,3.21c-2.51,1.88-4.55,2.83-6.07,2.83-2.48,0-3.79-1.32-3.79-3.82a11.29,11.29,0,0,1,.61-3.47c-6.92,5.37-11.62,8-14.35,8a.73.73,0,0,1-.77-.8c0-.45.21-1,1.21-1.19,2.48-.39,6-2.35,10.44-5.84l5.25-4.11,8.41-6.7c3.9-2.68,7.27-4,10-4a3.29,3.29,0,0,1,3.61,2.77c1.2-1.1,1.71-1.23,2-1.23,1.35,0,1.63.75,1.63,1.38s-.65,2.29-6.3,8.9c-5.37,6.25-6.18,7.89-6.18,8.31,0,.17,0,.57,1.07.6a2.26,2.26,0,0,1,1.29.33,2.34,2.34,0,0,1,.94-.39,16.16,16.16,0,0,0,3.57-1.21c1.93-.83,6-3.75,12.05-8.66,5.41-4.38,9.38-7.8,11.82-10.18a12.91,12.91,0,0,1,1.95-1.49,3.16,3.16,0,0,1,3.11.22,1.58,1.58,0,0,1,.83,1.35c0,.23,0,.75-5.12,7.63,6.58-5.38,11.18-8,14-8,2.08,0,3.17,1,3.17,3,0,1.7-2.17,4.61-6.63,8.87-5.63,5.4-6.47,6.95-6.47,7.39,0,.71.38,1.06,1.21,1.12.42,0,1.72.12,1.72,1S140.41,60,138.19,60Zm8.42-20.37c.95,0,1,.62,1,.81,0,.38-.4,1.15-3.34,3.95a80.31,80.31,0,0,0-6,6.12c-2.13,2.5-3.2,4.59-3.2,6.19,0,1.86,1,2.73,3.09,2.73s2.64-.33,2.64-.53-.45-.38-1.19-.43c-1.43-.1-1.73-1-1.73-1.68s.69-2.09,6.64-7.8c5.33-5.1,6.45-7.42,6.45-8.46,0-1.67-.82-2.44-2.6-2.44-2.92,0-8.14,3.16-15.51,9.41l-.41-.39c5.73-7.61,6.42-9,6.46-9.23a1.06,1.06,0,0,0-.58-.87,2.62,2.62,0,0,0-2.54-.19A13,13,0,0,0,134,38.2c-2.44,2.39-6.43,5.82-11.85,10.22C116,53.43,112,56.29,110,57.15a16.23,16.23,0,0,1-3.68,1.24,1.66,1.66,0,0,0-.75.32,1,1,0,0,1,0,.17.8.8,0,0,1-.1.38.34.34,0,0,0,.17,0c2,0,5-1.33,8.83-3.94l7.68-5.88L132.53,41l.39.4-6.71,7.94c-4.82,5.7-5.54,7.06-5.54,7.37a1.82,1.82,0,0,0,.46,1.15,1.27,1.27,0,0,0,1,.52c.22,0,1.11-.4,4.64-4.1a96.54,96.54,0,0,1,9.62-8.45C141.63,41.65,145,39.61,146.61,39.61Zm-44.81,12,.42.36c-1.43,2.32-2.15,4.1-2.15,5.31,0,1.44.77,2.11,2.44,2.11a5,5,0,0,0,2.3-.32h0a1.1,1.1,0,0,1,.07-.41,1.9,1.9,0,0,0-.95-.21c-1.34,0-1.62-.66-1.62-1.17s.65-2.1,6.31-8.68c5.09-6,6.16-7.93,6.16-8.53,0-.4-.12-.81-1.06-.81-.12,0-.61.1-2,1.43l-.41.39-.06-.56a2.83,2.83,0,0,0-3.14-2.8c-2.66,0-5.93,1.32-9.72,3.93L90,48.36l-5.25,4.11c-4.59,3.6-8.09,5.54-10.7,6-.65.11-.74.38-.74.63s.08.24.21.24c2.66,0,7.63-2.85,14.78-8.47l.83-.66-.39,1a11.55,11.55,0,0,0-.91,4.2c0,2.19,1,3.26,3.22,3.26,1.39,0,3.32-.91,5.72-2.71ZM92.31,57.2A1.23,1.23,0,0,1,91,55.82c0-1.69,2.49-4.88,7.61-9.75s8.42-7.24,10.1-7.24c.55,0,1.47.22,1.47,1.63,0,1.73-2.53,4.89-7.72,9.66S93.94,57.2,92.31,57.2Zm16.37-17.8c-1.51,0-4.78,2.38-9.71,7.08-6.14,5.84-7.43,8.31-7.43,9.34,0,.58.22.82.77.82,1,0,3.52-1.2,9.74-6.94s7.53-8.18,7.53-9.24S109.13,39.4,108.68,39.4Z"/></g></g></svg>