<?xml version="1.0" encoding="utf-8"?>
<!-- Generator: Adobe Illustrator 24.0.3, SVG Export Plug-In . SVG Version: 6.00 Build 0)  -->
<svg version="1.1" id="Layer_1" xmlns="http://www.w3.org/2000/svg" xmlns:xlink="http://www.w3.org/1999/xlink" x="0px" y="0px"
	 viewBox="0 0 512 512" style="enable-background:new 0 0 512 512;" xml:space="preserve">
<style type="text/css">
	.st0{fill:#E8B459;}
	.st1{fill:#FCCA5F;}
	.st2{fill:#F9E5C5;}
	.st3{fill:none;stroke:#000000;stroke-width:8;stroke-linecap:round;stroke-linejoin:round;stroke-miterlimit:10;}
</style>
<g>
	<g>
		<path class="st0" d="M393,88.4c5.7,4.6,11.2,9.6,16.5,14.9c84.4,84.4,84.4,221.3,0,305.7s-221.2,84.4-305.7,0
			c-5.3-5.3-10.2-10.8-14.9-16.4l0,0"/>
		<path class="st0" d="M423.7,119c5.7,4.6,11.2,9.6,16.5,14.9c84.4,84.4,84.4,221.3,0,305.7s-221.2,84.4-305.7,0
			c-5.3-5.3-10.2-10.8-14.9-16.4l0,0"/>
	</g>
	<path class="st1" d="M11.7,257.5c6.7,43.9,27,86.2,60.8,120c84.4,84.4,221.3,84.4,305.7,0s84.4-221.2,0-305.7
		C334.8,28.6,277.7,7.5,221,8.6l-2.2,2.2L9.2,220.4C9,232.8,9.8,245.2,11.7,257.5z"/>
	<path class="st0" d="M11.7,257.5c53-1.6,105.6-22.7,146.1-63.2C198.9,153.2,220,99.6,221,45.7c-0.3-12.5-1.1-24.2-2.2-35L9.2,220.4
		C9,232.8,9.8,245.2,11.7,257.5z"/>
	<path class="st2" d="M9.2,220.4c53.9-1.1,107.4-22.1,148.5-63.3S220,62.5,221,8.6C167.1,9.7,10.3,166.5,9.2,220.4z"/>
	<path d="M446.2,127.9c-5.1-5.1-10.6-10-16.1-14.6c-4.6-5.6-9.4-10.9-14.5-16c-5.2-5.2-10.7-10.2-16.4-14.9
		c-4.7-5.7-9.7-11.2-15-16.5C340.5,22.2,282.5-1.1,220.8,0l0,0c-0.1,0-0.1,0-0.2,0l0,0l0,0c-32.4,0.7-89.3,46.2-131.8,88.7
		s-88,99.4-88.7,131.8l0,0c-0.5,23.7,2.8,47.3,9.7,69.9c1.2,3.8,4.7,6.3,8.5,6.3c0.9,0,1.7-0.1,2.6-0.4c4.7-1.4,7.3-6.4,5.9-11
		c-5.5-18.2-8.5-37.1-8.9-56.2c55.1-3.2,106.7-26.2,146-65.5c31-31,52.2-70.1,61.1-112.8c1-4.8-2.1-9.5-6.8-10.5
		c-4.8-1-9.5,2.1-10.5,6.8c-8.2,39.4-27.7,75.4-56.3,104c-35.5,35.5-81.9,56.7-131.7,60.2c7.6-24.6,39.2-67.6,81.8-110.1
		c48.7-48.7,97.9-83.1,119.6-83.5l0,0c56.9-1.1,110.4,20.4,150.7,60.7c39.2,39.2,60.7,91.2,60.7,146.6s-21.6,107.4-60.7,146.6
		c-80.8,80.8-212.3,80.8-293.1,0C64,356.9,51.6,340.2,42,322c-2.3-4.3-7.6-6-11.9-3.7s-6,7.6-3.7,11.9C36.6,350,50,368.1,65.9,384
		c5.3,5.3,10.8,10.3,16.5,14.9c4.7,5.7,9.7,11.3,14.9,16.5c5.2,5.2,10.5,10,16.1,14.6c4.6,5.6,9.5,11,14.6,16.1
		c42.5,42.5,99,65.9,159.1,65.9s116.6-23.4,159.1-65.9C533.9,358.4,533.9,215.7,446.2,127.9z M433.7,433.6
		c-39.2,39.2-91.2,60.7-146.6,60.7c-32.7,0-64.3-7.5-92.7-21.8c20.2,5.8,41.1,8.7,62,8.7c57.6,0,115.2-21.9,159.1-65.8
		c37.4-37.4,60.5-87,65.1-139.7c0.4-4.9-3.2-9.1-8-9.6c-4.9-0.4-9.1,3.2-9.6,8.1c-4.2,48.5-25.5,94.2-60,128.7
		c-65.1,65.1-163.2,77.8-241.1,37.9c20.6,6,41.8,9,63.1,9c57.6,0,115.2-21.9,159.1-65.8c42.5-42.5,65.9-99,65.9-159.1
		c0-21.5-3-42.4-8.8-62.5c12.5,24.5,20,51.5,22,79.3c0.3,4.7,4.2,8.2,8.8,8.2c0.2,0,0.4,0,0.6,0c4.9-0.3,8.5-4.6,8.2-9.4
		c-1.1-15.5-3.8-30.7-8-45.5C511.1,272.6,498.1,369.2,433.7,433.6z"/>
	<circle cx="369" cy="311" r="8.8"/>
	<circle cx="328.1" cy="440.8" r="8.8"/>
	<circle cx="472.8" cy="378.3" r="8.8"/>
	<circle cx="342.1" cy="127.2" r="8.8"/>
	<circle cx="171.2" cy="75.6" r="8.8"/>
	<circle cx="118.5" cy="127.2" r="8.8"/>
	<circle cx="119.7" cy="350.5" r="8.8"/>
	<path d="M311.6,70.7c-7.3,0-13.2-5.9-13.2-13.2c0-4.9-4-8.8-8.8-8.8s-8.8,4-8.8,8.8c0,17,13.8,30.9,30.9,30.9
		c17,0,30.9-13.8,30.9-30.9s-13.8-30.9-30.9-30.9c-4.9,0-8.8,4-8.8,8.8s4,8.8,8.8,8.8c7.3,0,13.2,5.9,13.2,13.2
		C324.8,64.8,318.8,70.7,311.6,70.7z"/>
	<path d="M175.7,243.3L175.7,243.3c-2.4,0-4.4-2-4.4-4.4v-9.7c0-2.4,2-4.4,4.4-4.4l0,0c2.4,0,4.4,2,4.4,4.4v9.7
		C180.1,241.3,178.1,243.3,175.7,243.3z"/>
	<path d="M285.3,243.3L285.3,243.3c-2.4,0-4.4-2-4.4-4.4v-9.7c0-2.4,2-4.4,4.4-4.4l0,0c2.4,0,4.4,2,4.4,4.4v9.7
		C289.7,241.3,287.8,243.3,285.3,243.3z"/>
	<path class="st3" d="M214.4,240c0,0,12.6,20.9,31.8,0"/>
	<path d="M168,413.5c-7.3,0-13.2-5.9-13.2-13.2c0-4.9-4-8.8-8.8-8.8s-8.8,4-8.8,8.8c0,17,13.8,30.9,30.9,30.9s30.9-13.8,30.9-30.9
		c0-17-13.8-30.9-30.9-30.9c-4.9,0-8.8,4-8.8,8.8s4,8.8,8.8,8.8c7.3,0,13.2,5.9,13.2,13.2S175.3,413.5,168,413.5z"/>
</g>
</svg>
