<svg width="86" height="86" viewBox="0 0 86 86" fill="none" xmlns="http://www.w3.org/2000/svg">
<g clip-path="url(#clip0)">
<path d="M73.53 12.3589C65.36 4.46125 54.61 0 43.1613 0C10.3021 0 -10.3308 35.6004 6.07733 63.9195L0 86L22.7004 80.0803C32.5904 85.4231 40.6923 84.9501 43.1828 85.2654C81.2843 85.2654 100.251 39.1694 73.4762 12.4987L73.53 12.3589Z" fill="#ECEFF1"/>
<path d="M43.2399 77.9411L43.2184 77.9375H43.1611C31.7589 77.9375 24.474 72.5374 23.7573 72.2257L10.3198 75.7194L13.9211 62.6582L13.0647 61.3144C9.51716 55.6671 7.63232 49.1633 7.63232 42.4661C7.63232 10.9578 46.1352 -4.79809 68.4164 17.4723C90.6438 39.5098 75.0384 77.9411 43.2399 77.9411Z" fill="#4CAF50"/>
<path d="M62.7334 51.2668L62.7012 51.5355C61.6226 50.998 56.3694 48.4288 55.3912 48.074C53.1946 47.2606 53.8145 47.945 49.5969 52.7753C48.9698 53.4741 48.3463 53.5278 47.2821 53.0441C46.2071 52.5066 42.7563 51.3778 38.6713 47.7228C35.4893 44.8741 33.3537 41.3803 32.723 40.3053C31.6731 38.4922 33.8697 38.2342 35.8692 34.4502C36.2275 33.6977 36.0448 33.1064 35.7796 32.5725C35.5108 32.035 33.3716 26.7675 32.4758 24.6677C31.6158 22.575 30.7307 22.8402 30.0678 22.8402C28.0038 22.661 26.4952 22.6897 25.1658 24.0728C19.3823 30.4297 20.8407 36.9872 25.7893 43.9603C35.5144 56.6883 40.6959 59.0318 50.1703 62.2855C52.7288 63.0989 55.0615 62.9843 56.9069 62.7191C58.9638 62.393 63.2387 60.1355 64.1309 57.6093C65.0447 55.083 65.0447 52.9868 64.7759 52.503C64.5108 52.0193 63.8084 51.7505 62.7334 51.2668Z" fill="#FAFAFA"/>
</g>
<defs>
<clipPath id="clip0">
<rect width="86" height="86" fill="white"/>
</clipPath>
</defs>
</svg>
